M48
METRIC,LZ,000.000
;FILE_FORMAT=3:3
;TYPE=PLATED
;Layer: Drill PTH
;EasyEDA v6.4.19.4, 2021-05-17T11:53:22--6:00
;e5bb7b4e7bdd45059bcec5d89b479325,ecfdb7ac97474c2db5e1325c5a2f7ac0,10
;Gerber Generator version 0.2
;Holesize 1 = 0.305 mm
T01C0.305
;Holesize 2 = 0.310 mm
T02C0.310
;Holesize 3 = 0.701 mm
T03C0.701
;Holesize 4 = 0.800 mm
T04C0.800
;Holesize 5 = 1.000 mm
T05C1.000
;Holesize 6 = 1.101 mm
T06C1.101
;Holesize 7 = 1.200 mm
T07C1.200
;Holesize 8 = 1.301 mm
T08C1.301
;Holesize 9 = 2.701 mm
T09C2.701
%
G05
G90
T01
X173736Y-006858
X173736Y-003429
X173990Y000000
T02
X173736Y-005080
T03
X109612Y-032150G85X108512Y-032150
X109612Y-018650G85X108512Y-018650
T04
X116586Y-014732
X117856Y-014732
X119126Y-014732
T05
X178689Y-009624
X178689Y-006124
X178689Y002385
X178689Y-001115
T06
X120269Y-000762
X120269Y-003302
T07
X114212Y-012887G85X114212Y-010787
X108038Y-010787G85X108038Y-012887
X110165Y-016611G85X112265Y-016611
X114212Y-003235G85X114212Y-001135
X108038Y-001135G85X108038Y-003235
X110165Y-006959G85X112265Y-006959
X108585Y004318
X108585Y006858
X111125Y004318
X111125Y006858
X113665Y004318
X113665Y006858
X116205Y004318
X116205Y006858
X118745Y004318
X118745Y006858
X121285Y004318
X121285Y006858
X123825Y004318
X123825Y006858
X126365Y004318
X126365Y006858
X128905Y004318
X128905Y006858
X131445Y004318
X131445Y006858
X133985Y004318
X133985Y006858
X136525Y004318
X136525Y006858
X139065Y004318
X139065Y006858
X141605Y004318
X141605Y006858
X144145Y004318
X144145Y006858
X146685Y004318
X146685Y006858
X149225Y004318
X149225Y006858
X151765Y004318
X151765Y006858
X154305Y004318
X154305Y006858
X156845Y004318
X156845Y006858
T08
X174625Y-011607
X174625Y-024207
T09
X115062Y-029001
X115062Y-021800
M30
