G04 Layer: TopSolderMaskLayer*
G04 EasyEDA v6.4.19.4, 2021-05-17T11:53:22--6:00*
G04 e5bb7b4e7bdd45059bcec5d89b479325,ecfdb7ac97474c2db5e1325c5a2f7ac0,10*
G04 Gerber Generator version 0.2*
G04 Scale: 100 percent, Rotated: No, Reflected: No *
G04 Dimensions in millimeters *
G04 leading zeros omitted , absolute positions ,4 integer and 5 decimal *
%FSLAX45Y45*%
%MOMM*%

%ADD33C,1.9016*%
%ADD34C,1.4032*%
%ADD35C,1.0016*%
%ADD36C,1.7016*%
%ADD37C,2.1016*%

%LPD*%
D33*
X11421262Y-1073716D02*
G01*
X11421262Y-1293715D01*
X10803763Y-1293715D02*
G01*
X10803763Y-1073716D01*
X11231542Y-1661058D02*
G01*
X11011542Y-1661058D01*
X11421262Y-108516D02*
G01*
X11421262Y-328515D01*
X10803763Y-328515D02*
G01*
X10803763Y-108516D01*
X11231542Y-695858D02*
G01*
X11011542Y-695858D01*
D34*
X10796201Y-3215004D02*
G01*
X11016200Y-3215004D01*
X10796201Y-1864995D02*
G01*
X11016200Y-1864995D01*
D35*
X11658600Y-1508201D02*
G01*
X11658600Y-1438201D01*
X11785600Y-1508201D02*
G01*
X11785600Y-1438201D01*
D36*
G01*
X17868900Y-962405D03*
G01*
X17868900Y-612394D03*
G01*
X17868900Y238505D03*
G01*
X17868900Y-111505D03*
D37*
G01*
X17462500Y-1160703D03*
G01*
X17462500Y-2420696D03*
G36*
X16290290Y-2717292D02*
G01*
X16290290Y-2382012D01*
X16800575Y-2382012D01*
X16800575Y-2717292D01*
G37*
G36*
X16270224Y-1377187D02*
G01*
X16270224Y-1041907D01*
X16780509Y-1041907D01*
X16780509Y-1377187D01*
G37*
G36*
X15820390Y-885952D02*
G01*
X15820390Y200152D01*
X16729709Y200152D01*
X16729709Y-885952D01*
G37*
G36*
X17077690Y-66294D02*
G01*
X17077690Y60960D01*
X17326609Y60960D01*
X17326609Y-66294D01*
G37*
G36*
X17077690Y-236473D02*
G01*
X17077690Y-109220D01*
X17326609Y-109220D01*
X17326609Y-236473D01*
G37*
G36*
X17077690Y-576834D02*
G01*
X17077690Y-449579D01*
X17326609Y-449579D01*
X17326609Y-576834D01*
G37*
G36*
X17077690Y-406654D02*
G01*
X17077690Y-279400D01*
X17326609Y-279400D01*
X17326609Y-406654D01*
G37*
G36*
X17077690Y-747013D02*
G01*
X17077690Y-619760D01*
X17326609Y-619760D01*
X17326609Y-747013D01*
G37*
G36*
X11316208Y-3090163D02*
G01*
X11316208Y-2709926D01*
X11696445Y-2709926D01*
X11696445Y-3090163D01*
G37*
G36*
X11315954Y-2370073D02*
G01*
X11315954Y-1989836D01*
X11696445Y-1989836D01*
X11696445Y-2370073D01*
G37*
G36*
X11931904Y-171195D02*
G01*
X11931904Y18795D01*
X12121895Y18795D01*
X12121895Y-171195D01*
G37*
D33*
G01*
X12026900Y-330200D03*
G36*
X10763504Y336804D02*
G01*
X10763504Y526795D01*
X10953495Y526795D01*
X10953495Y336804D01*
G37*
G01*
X10858500Y685800D03*
G01*
X11112500Y431800D03*
G01*
X11112500Y685800D03*
G01*
X11366500Y431800D03*
G01*
X11366500Y685800D03*
G01*
X11620500Y431800D03*
G01*
X11620500Y685800D03*
G01*
X11874500Y431800D03*
G01*
X11874500Y685800D03*
G01*
X12128500Y431800D03*
G01*
X12128500Y685800D03*
G01*
X12382500Y431800D03*
G01*
X12382500Y685800D03*
G01*
X12636500Y431800D03*
G01*
X12636500Y685800D03*
G01*
X12890500Y431800D03*
G01*
X12890500Y685800D03*
G01*
X13144500Y431800D03*
G01*
X13144500Y685800D03*
G01*
X13398500Y431800D03*
G01*
X13398500Y685800D03*
G01*
X13652500Y431800D03*
G01*
X13652500Y685800D03*
G01*
X13906500Y431800D03*
G01*
X13906500Y685800D03*
G01*
X14160500Y431800D03*
G01*
X14160500Y685800D03*
G01*
X14414500Y431800D03*
G01*
X14414500Y685800D03*
G01*
X14668500Y431800D03*
G01*
X14668500Y685800D03*
G01*
X14922500Y431800D03*
G01*
X14922500Y685800D03*
G01*
X15176500Y431800D03*
G01*
X15176500Y685800D03*
G01*
X15430500Y431800D03*
G01*
X15430500Y685800D03*
G01*
X15684500Y431800D03*
G01*
X15684500Y685800D03*
G36*
X11740641Y-93218D02*
G01*
X11740641Y-3047D01*
X11830558Y-3047D01*
X11830558Y-93218D01*
G37*
G36*
X11740641Y76962D02*
G01*
X11740641Y167131D01*
X11830558Y167131D01*
X11830558Y76962D01*
G37*
G36*
X11862561Y-1558289D02*
G01*
X11862561Y-1388110D01*
X11962638Y-1388110D01*
X11962638Y-1558289D01*
G37*
G36*
X11612625Y-1256029D02*
G01*
X11612625Y-1080770D01*
X11733022Y-1080770D01*
X11733022Y-1256029D01*
G37*
G36*
X11812777Y-1256029D02*
G01*
X11812777Y-1080770D01*
X11933174Y-1080770D01*
X11933174Y-1256029D01*
G37*
G36*
X11725402Y-305307D02*
G01*
X11725402Y-195071D01*
X11845797Y-195071D01*
X11845797Y-305307D01*
G37*
G36*
X11725402Y-465328D02*
G01*
X11725402Y-355092D01*
X11845797Y-355092D01*
X11845797Y-465328D01*
G37*
M02*
