G04 Layer: TopSilkLayer*
G04 EasyEDA v6.4.19.4, 2021-05-17T11:53:22--6:00*
G04 e5bb7b4e7bdd45059bcec5d89b479325,ecfdb7ac97474c2db5e1325c5a2f7ac0,10*
G04 Gerber Generator version 0.2*
G04 Scale: 100 percent, Rotated: No, Reflected: No *
G04 Dimensions in millimeters *
G04 leading zeros omitted , absolute positions ,4 integer and 5 decimal *
%FSLAX45Y45*%
%MOMM*%

%ADD10C,0.2540*%
%ADD12C,0.2600*%
%ADD29C,0.2030*%
%ADD30C,0.2500*%
%ADD31C,0.2032*%
%ADD32C,0.1524*%

%LPD*%
D30*
X10080243Y-3488436D02*
G01*
X10080243Y-3479545D01*
X10089388Y-3461257D01*
X10098277Y-3452113D01*
X10116565Y-3442970D01*
X10152888Y-3442970D01*
X10171175Y-3452113D01*
X10180065Y-3461257D01*
X10189209Y-3479545D01*
X10189209Y-3497579D01*
X10180065Y-3515868D01*
X10162031Y-3543045D01*
X10071100Y-3633978D01*
X10198354Y-3633978D01*
X10258297Y-3552189D02*
G01*
X10422127Y-3552189D01*
X10591038Y-3470402D02*
G01*
X10581893Y-3452113D01*
X10554715Y-3442970D01*
X10536427Y-3442970D01*
X10509250Y-3452113D01*
X10491215Y-3479545D01*
X10482072Y-3525012D01*
X10482072Y-3570478D01*
X10491215Y-3606800D01*
X10509250Y-3624834D01*
X10536427Y-3633978D01*
X10545572Y-3633978D01*
X10573004Y-3624834D01*
X10591038Y-3606800D01*
X10600181Y-3579368D01*
X10600181Y-3570478D01*
X10591038Y-3543045D01*
X10573004Y-3525012D01*
X10545572Y-3515868D01*
X10536427Y-3515868D01*
X10509250Y-3525012D01*
X10491215Y-3543045D01*
X10482072Y-3570478D01*
X10760202Y-3533902D02*
G01*
X10751058Y-3515868D01*
X10723879Y-3506723D01*
X10696447Y-3506723D01*
X10669270Y-3515868D01*
X10660125Y-3533902D01*
X10669270Y-3552189D01*
X10687558Y-3561334D01*
X10733024Y-3570478D01*
X10751058Y-3579368D01*
X10760202Y-3597655D01*
X10760202Y-3606800D01*
X10751058Y-3624834D01*
X10723879Y-3633978D01*
X10696447Y-3633978D01*
X10669270Y-3624834D01*
X10660125Y-3606800D01*
X10960100Y-3442970D02*
G01*
X10969243Y-3452113D01*
X10978388Y-3442970D01*
X10969243Y-3434079D01*
X10960100Y-3442970D01*
X10969243Y-3506723D02*
G01*
X10969243Y-3633978D01*
X11038331Y-3506723D02*
G01*
X11038331Y-3633978D01*
X11038331Y-3543045D02*
G01*
X11065763Y-3515868D01*
X11083797Y-3506723D01*
X11110975Y-3506723D01*
X11129263Y-3515868D01*
X11138408Y-3543045D01*
X11138408Y-3633978D01*
X11198352Y-3506723D02*
G01*
X11198352Y-3697731D01*
X11198352Y-3533902D02*
G01*
X11216640Y-3515868D01*
X11234674Y-3506723D01*
X11262106Y-3506723D01*
X11280140Y-3515868D01*
X11298427Y-3533902D01*
X11307572Y-3561334D01*
X11307572Y-3579368D01*
X11298427Y-3606800D01*
X11280140Y-3624834D01*
X11262106Y-3633978D01*
X11234674Y-3633978D01*
X11216640Y-3624834D01*
X11198352Y-3606800D01*
X11367515Y-3506723D02*
G01*
X11367515Y-3597655D01*
X11376659Y-3624834D01*
X11394693Y-3633978D01*
X11422125Y-3633978D01*
X11440159Y-3624834D01*
X11467338Y-3597655D01*
X11467338Y-3506723D02*
G01*
X11467338Y-3633978D01*
X11554713Y-3442970D02*
G01*
X11554713Y-3597655D01*
X11563858Y-3624834D01*
X11581891Y-3633978D01*
X11600179Y-3633978D01*
X11527536Y-3506723D02*
G01*
X11591036Y-3506723D01*
X10718800Y-3849115D02*
G01*
X10718800Y-3992371D01*
X10718800Y-3849115D02*
G01*
X10766552Y-3849115D01*
X10786872Y-3855973D01*
X10800588Y-3869689D01*
X10807445Y-3883152D01*
X10814304Y-3903726D01*
X10814304Y-3937762D01*
X10807445Y-3958336D01*
X10800588Y-3971797D01*
X10786872Y-3985513D01*
X10766552Y-3992371D01*
X10718800Y-3992371D01*
X10961624Y-3883152D02*
G01*
X10954765Y-3869689D01*
X10941050Y-3855973D01*
X10927334Y-3849115D01*
X10900156Y-3849115D01*
X10886440Y-3855973D01*
X10872977Y-3869689D01*
X10866120Y-3883152D01*
X10859261Y-3903726D01*
X10859261Y-3937762D01*
X10866120Y-3958336D01*
X10872977Y-3971797D01*
X10886440Y-3985513D01*
X10900156Y-3992371D01*
X10927334Y-3992371D01*
X10941050Y-3985513D01*
X10954765Y-3971797D01*
X10961624Y-3958336D01*
X11047475Y-3849115D02*
G01*
X11033759Y-3855973D01*
X11020043Y-3869689D01*
X11013440Y-3883152D01*
X11006581Y-3903726D01*
X11006581Y-3937762D01*
X11013440Y-3958336D01*
X11020043Y-3971797D01*
X11033759Y-3985513D01*
X11047475Y-3992371D01*
X11074654Y-3992371D01*
X11088370Y-3985513D01*
X11102086Y-3971797D01*
X11108690Y-3958336D01*
X11115547Y-3937762D01*
X11115547Y-3903726D01*
X11108690Y-3883152D01*
X11102086Y-3869689D01*
X11088370Y-3855973D01*
X11074654Y-3849115D01*
X11047475Y-3849115D01*
X11160506Y-3849115D02*
G01*
X11160506Y-3951478D01*
X11167363Y-3971797D01*
X11181079Y-3985513D01*
X11201654Y-3992371D01*
X11215115Y-3992371D01*
X11235690Y-3985513D01*
X11249152Y-3971797D01*
X11256009Y-3951478D01*
X11256009Y-3849115D01*
X11348720Y-3849115D02*
G01*
X11348720Y-3992371D01*
X11300968Y-3849115D02*
G01*
X11396472Y-3849115D01*
D31*
X10756900Y-4044187D02*
G01*
X11329670Y-4044187D01*
X13970000Y-252221D02*
G01*
X13970000Y-446023D01*
X13970000Y-252221D02*
G01*
X14090141Y-252221D01*
X13970000Y-344423D02*
G01*
X14043913Y-344423D01*
X14225016Y-252221D02*
G01*
X14151102Y-446023D01*
X14225016Y-252221D02*
G01*
X14298929Y-446023D01*
X14178788Y-381507D02*
G01*
X14270990Y-381507D01*
X14359890Y-252221D02*
G01*
X14359890Y-446023D01*
X14359890Y-252221D02*
G01*
X14489175Y-446023D01*
X14489175Y-252221D02*
G01*
X14489175Y-446023D01*
D30*
X12107672Y-4036821D02*
G01*
X12089129Y-4045965D01*
X12070841Y-4064507D01*
X12061443Y-4083050D01*
X12052300Y-4110736D01*
X12052300Y-4156710D01*
X12061443Y-4184650D01*
X12070841Y-4202937D01*
X12089129Y-4221479D01*
X12107672Y-4230623D01*
X12144756Y-4230623D01*
X12163043Y-4221479D01*
X12181586Y-4202937D01*
X12190729Y-4184650D01*
X12200127Y-4156710D01*
X12200127Y-4110736D01*
X12190729Y-4083050D01*
X12181586Y-4064507D01*
X12163043Y-4045965D01*
X12144756Y-4036821D01*
X12107672Y-4036821D01*
X12261088Y-4036821D02*
G01*
X12261088Y-4230623D01*
X12261088Y-4036821D02*
G01*
X12390374Y-4230623D01*
X12390374Y-4036821D02*
G01*
X12390374Y-4230623D01*
X12617450Y-3999737D02*
G01*
X12451334Y-4295394D01*
X12734036Y-4036821D02*
G01*
X12715493Y-4045965D01*
X12696952Y-4064507D01*
X12687808Y-4083050D01*
X12678409Y-4110736D01*
X12678409Y-4156710D01*
X12687808Y-4184650D01*
X12696952Y-4202937D01*
X12715493Y-4221479D01*
X12734036Y-4230623D01*
X12770865Y-4230623D01*
X12789408Y-4221479D01*
X12807950Y-4202937D01*
X12817093Y-4184650D01*
X12826238Y-4156710D01*
X12826238Y-4110736D01*
X12817093Y-4083050D01*
X12807950Y-4064507D01*
X12789408Y-4045965D01*
X12770865Y-4036821D01*
X12734036Y-4036821D01*
X12887197Y-4036821D02*
G01*
X12887197Y-4230623D01*
X12887197Y-4036821D02*
G01*
X13007340Y-4036821D01*
X12887197Y-4129023D02*
G01*
X12961111Y-4129023D01*
X13068300Y-4036821D02*
G01*
X13068300Y-4230623D01*
X13068300Y-4036821D02*
G01*
X13188441Y-4036821D01*
X13068300Y-4129023D02*
G01*
X13142213Y-4129023D01*
D31*
X11925300Y81534D02*
G01*
X12091670Y81534D01*
D30*
X10820400Y-4090415D02*
G01*
X10820400Y-4233671D01*
X10820400Y-4090415D02*
G01*
X10868152Y-4090415D01*
X10888472Y-4097273D01*
X10902188Y-4110989D01*
X10909045Y-4124452D01*
X10915904Y-4145026D01*
X10915904Y-4179062D01*
X10909045Y-4199636D01*
X10902188Y-4213097D01*
X10888472Y-4226813D01*
X10868152Y-4233671D01*
X10820400Y-4233671D01*
X11063224Y-4124452D02*
G01*
X11056365Y-4110989D01*
X11042650Y-4097273D01*
X11028934Y-4090415D01*
X11001756Y-4090415D01*
X10988040Y-4097273D01*
X10974577Y-4110989D01*
X10967720Y-4124452D01*
X10960861Y-4145026D01*
X10960861Y-4179062D01*
X10967720Y-4199636D01*
X10974577Y-4213097D01*
X10988040Y-4226813D01*
X11001756Y-4233671D01*
X11028934Y-4233671D01*
X11042650Y-4226813D01*
X11056365Y-4213097D01*
X11063224Y-4199636D01*
X11108181Y-4090415D02*
G01*
X11108181Y-4233671D01*
X11153140Y-4090415D02*
G01*
X11153140Y-4233671D01*
X11153140Y-4090415D02*
G01*
X11248643Y-4233671D01*
X11248643Y-4090415D02*
G01*
X11248643Y-4233671D01*
D31*
X10756900Y-4285487D02*
G01*
X11329670Y-4285487D01*
D30*
X10782300Y-4344415D02*
G01*
X10877804Y-4487671D01*
X10877804Y-4344415D02*
G01*
X10782300Y-4487671D01*
X10970513Y-4344415D02*
G01*
X10970513Y-4487671D01*
X10922761Y-4344415D02*
G01*
X11018265Y-4344415D01*
X11145011Y-4364989D02*
G01*
X11138154Y-4351273D01*
X11117834Y-4344415D01*
X11104118Y-4344415D01*
X11083543Y-4351273D01*
X11070081Y-4371594D01*
X11063224Y-4405884D01*
X11063224Y-4439920D01*
X11070081Y-4467097D01*
X11083543Y-4480813D01*
X11104118Y-4487671D01*
X11110975Y-4487671D01*
X11131295Y-4480813D01*
X11145011Y-4467097D01*
X11151870Y-4446778D01*
X11151870Y-4439920D01*
X11145011Y-4419345D01*
X11131295Y-4405884D01*
X11110975Y-4399026D01*
X11104118Y-4399026D01*
X11083543Y-4405884D01*
X11070081Y-4419345D01*
X11063224Y-4439920D01*
X11237722Y-4344415D02*
G01*
X11217402Y-4351273D01*
X11203686Y-4371594D01*
X11196827Y-4405884D01*
X11196827Y-4426204D01*
X11203686Y-4460239D01*
X11217402Y-4480813D01*
X11237722Y-4487671D01*
X11251438Y-4487671D01*
X11271758Y-4480813D01*
X11285474Y-4460239D01*
X11292331Y-4426204D01*
X11292331Y-4405884D01*
X11285474Y-4371594D01*
X11271758Y-4351273D01*
X11251438Y-4344415D01*
X11237722Y-4344415D01*
D32*
X18320258Y-771397D02*
G01*
X18309843Y-776731D01*
X18299429Y-787145D01*
X18294350Y-797305D01*
X18294350Y-818134D01*
X18299429Y-828547D01*
X18309843Y-838962D01*
X18320258Y-844295D01*
X18336006Y-849376D01*
X18361913Y-849376D01*
X18377408Y-844295D01*
X18387822Y-838962D01*
X18398236Y-828547D01*
X18403316Y-818134D01*
X18403316Y-797305D01*
X18398236Y-787145D01*
X18387822Y-776731D01*
X18377408Y-771397D01*
X18315177Y-737107D02*
G01*
X18309843Y-726694D01*
X18294350Y-711200D01*
X18403316Y-711200D01*
X18325591Y14478D02*
G01*
X18315177Y9144D01*
X18304763Y-1270D01*
X18299684Y-11429D01*
X18299684Y-32257D01*
X18304763Y-42671D01*
X18315177Y-53086D01*
X18325591Y-58420D01*
X18341340Y-63500D01*
X18367248Y-63500D01*
X18382741Y-58420D01*
X18393156Y-53086D01*
X18403570Y-42671D01*
X18408650Y-32257D01*
X18408650Y-11429D01*
X18403570Y-1270D01*
X18393156Y9144D01*
X18382741Y14478D01*
X18325591Y53847D02*
G01*
X18320511Y53847D01*
X18310098Y59181D01*
X18304763Y64262D01*
X18299684Y74676D01*
X18299684Y95504D01*
X18304763Y105918D01*
X18310098Y110997D01*
X18320511Y116331D01*
X18330925Y116331D01*
X18341340Y110997D01*
X18356834Y100584D01*
X18408650Y48768D01*
X18408650Y121412D01*
X17702784Y-1866900D02*
G01*
X17811750Y-1866900D01*
X17702784Y-1866900D02*
G01*
X17702784Y-1830578D01*
X17707863Y-1814829D01*
X17718277Y-1804670D01*
X17728691Y-1799336D01*
X17744440Y-1794255D01*
X17770348Y-1794255D01*
X17785841Y-1799336D01*
X17796256Y-1804670D01*
X17806670Y-1814829D01*
X17811750Y-1830578D01*
X17811750Y-1866900D01*
X17723611Y-1759965D02*
G01*
X17718277Y-1749552D01*
X17702784Y-1733804D01*
X17811750Y-1733804D01*
X16470884Y-2908300D02*
G01*
X16579850Y-2908300D01*
X16579850Y-2908300D02*
G01*
X16579850Y-2846070D01*
X16491711Y-2811779D02*
G01*
X16486377Y-2801365D01*
X16470884Y-2785618D01*
X16579850Y-2785618D01*
X16567150Y343915D02*
G01*
X16567150Y265937D01*
X16572229Y250444D01*
X16582643Y240029D01*
X16598391Y234950D01*
X16608806Y234950D01*
X16624300Y240029D01*
X16634713Y250444D01*
X16639793Y265937D01*
X16639793Y343915D01*
X16674084Y323087D02*
G01*
X16684497Y328421D01*
X16700245Y343915D01*
X16700245Y234950D01*
X12446000Y-164084D02*
G01*
X12446000Y-273050D01*
X12518643Y-164084D02*
G01*
X12518643Y-273050D01*
X12446000Y-215900D02*
G01*
X12518643Y-215900D01*
X12552934Y-184912D02*
G01*
X12563347Y-179578D01*
X12579095Y-164084D01*
X12579095Y-273050D01*
X13284200Y229615D02*
G01*
X13284200Y120650D01*
X13284200Y229615D02*
G01*
X13330936Y229615D01*
X13346429Y224536D01*
X13351763Y219202D01*
X13356843Y208787D01*
X13356843Y193294D01*
X13351763Y182879D01*
X13346429Y177800D01*
X13330936Y172465D01*
X13284200Y172465D01*
X13391134Y208787D02*
G01*
X13401547Y214121D01*
X13417295Y229615D01*
X13417295Y120650D01*
X11555984Y-127000D02*
G01*
X11664950Y-127000D01*
X11664950Y-127000D02*
G01*
X11664950Y-64770D01*
X11555984Y-30479D02*
G01*
X11664950Y-30479D01*
X11555984Y-30479D02*
G01*
X11555984Y37084D01*
X11607800Y-30479D02*
G01*
X11607800Y11176D01*
X11664950Y-30479D02*
G01*
X11664950Y37084D01*
X11555984Y71373D02*
G01*
X11664950Y71373D01*
X11555984Y71373D02*
G01*
X11555984Y107950D01*
X11561063Y123444D01*
X11571477Y133857D01*
X11581891Y138937D01*
X11597640Y144271D01*
X11623547Y144271D01*
X11639041Y138937D01*
X11649456Y133857D01*
X11659870Y123444D01*
X11664950Y107950D01*
X11664950Y71373D01*
X11576811Y178562D02*
G01*
X11571477Y188976D01*
X11555984Y204470D01*
X11664950Y204470D01*
X11727941Y-1751584D02*
G01*
X11717527Y-1756663D01*
X11707113Y-1767078D01*
X11701779Y-1777492D01*
X11696700Y-1793239D01*
X11696700Y-1819147D01*
X11701779Y-1834642D01*
X11707113Y-1845055D01*
X11717527Y-1855470D01*
X11727941Y-1860550D01*
X11748770Y-1860550D01*
X11758929Y-1855470D01*
X11769343Y-1845055D01*
X11774677Y-1834642D01*
X11779758Y-1819147D01*
X11779758Y-1793239D01*
X11774677Y-1777492D01*
X11769343Y-1767078D01*
X11758929Y-1756663D01*
X11748770Y-1751584D01*
X11727941Y-1751584D01*
X11743436Y-1839976D02*
G01*
X11774677Y-1870963D01*
X11814047Y-1772412D02*
G01*
X11824461Y-1767078D01*
X11840209Y-1751584D01*
X11840209Y-1860550D01*
X11709400Y-926084D02*
G01*
X11709400Y-1035050D01*
X11709400Y-926084D02*
G01*
X11756136Y-926084D01*
X11771629Y-931163D01*
X11776963Y-936497D01*
X11782043Y-946912D01*
X11782043Y-957326D01*
X11776963Y-967739D01*
X11771629Y-972820D01*
X11756136Y-977900D01*
X11709400Y-977900D01*
X11745722Y-977900D02*
G01*
X11782043Y-1035050D01*
X11816334Y-946912D02*
G01*
X11826747Y-941578D01*
X11842495Y-926084D01*
X11842495Y-1035050D01*
X11555984Y-392490D02*
G01*
X11664950Y-392490D01*
X11555984Y-392490D02*
G01*
X11555984Y-345754D01*
X11561063Y-330260D01*
X11566397Y-324926D01*
X11576811Y-319846D01*
X11587225Y-319846D01*
X11597640Y-324926D01*
X11602720Y-330260D01*
X11607800Y-345754D01*
X11607800Y-392490D01*
X11607800Y-356168D02*
G01*
X11664950Y-319846D01*
X11581891Y-280222D02*
G01*
X11576811Y-280222D01*
X11566397Y-275142D01*
X11561063Y-269808D01*
X11555984Y-259394D01*
X11555984Y-238820D01*
X11561063Y-228406D01*
X11566397Y-223072D01*
X11576811Y-217992D01*
X11587225Y-217992D01*
X11597640Y-223072D01*
X11613134Y-233486D01*
X11664950Y-285556D01*
X11664950Y-212658D01*
G36*
X17568926Y-1062380D02*
G01*
X17582896Y-1075131D01*
X17597374Y-1087272D01*
X17612410Y-1098753D01*
X17627955Y-1109573D01*
X17643906Y-1119682D01*
X17660315Y-1129131D01*
X17677130Y-1137818D01*
X17694249Y-1145794D01*
X17711724Y-1153007D01*
X17729504Y-1159459D01*
X17747589Y-1165148D01*
X17765826Y-1170025D01*
X17784318Y-1174089D01*
X17802961Y-1177391D01*
X17821706Y-1179830D01*
X17840553Y-1181455D01*
X17859451Y-1182319D01*
X17878348Y-1182319D01*
X17897246Y-1181455D01*
X17916093Y-1179830D01*
X17934838Y-1177391D01*
X17953482Y-1174089D01*
X17971973Y-1170025D01*
X17990210Y-1165148D01*
X18008295Y-1159459D01*
X18026075Y-1153007D01*
X18043550Y-1145794D01*
X18060670Y-1137818D01*
X18077484Y-1129131D01*
X18093893Y-1119682D01*
X18109844Y-1109573D01*
X18125389Y-1098753D01*
X18140426Y-1087272D01*
X18154904Y-1075131D01*
X18168874Y-1062380D01*
G37*
G36*
X17868900Y458520D02*
G01*
X17850002Y458114D01*
X17831104Y456844D01*
X17812308Y454812D01*
X17793614Y451916D01*
X17775072Y448259D01*
X17756682Y443788D01*
X17738496Y438505D01*
X17720614Y432460D01*
X17702987Y425602D01*
X17685664Y418033D01*
X17668646Y409651D01*
X17652085Y400608D01*
X17635880Y390804D01*
X17620132Y380339D01*
X17604841Y369214D01*
X17590058Y357378D01*
X17575834Y344932D01*
X17568926Y338480D01*
X18168874Y338480D01*
X18154904Y351231D01*
X18140426Y363372D01*
X18125389Y374853D01*
X18109844Y385673D01*
X18093893Y395782D01*
X18077484Y405231D01*
X18060670Y413918D01*
X18043550Y421893D01*
X18026075Y429107D01*
X18008295Y435559D01*
X17990210Y441248D01*
X17971973Y446125D01*
X17953482Y450189D01*
X17934838Y453491D01*
X17916093Y455930D01*
X17897246Y457555D01*
X17878348Y458419D01*
G37*
D12*
X12725400Y-533400D02*
G01*
X12725400Y-3530600D01*
X15722600Y-3530600D01*
X15722600Y-533400D01*
X12725400Y-533400D01*
D10*
X10044569Y-739228D02*
G01*
X11459578Y-739228D01*
X10044569Y-738390D02*
G01*
X10044569Y-1638388D01*
X10346829Y-739228D02*
G01*
X10346829Y-1639227D01*
X11461889Y-953267D02*
G01*
X11461889Y-739228D01*
X11461889Y-739228D02*
G01*
X10044569Y-739228D01*
X10044569Y-739228D02*
G01*
X10044569Y-1638388D01*
X10044569Y-1638388D02*
G01*
X10887715Y-1638388D01*
X11461889Y-1412311D02*
G01*
X11461889Y-1638388D01*
X11461889Y-1638388D02*
G01*
X11345311Y-1638388D01*
X10044569Y225971D02*
G01*
X11459578Y225971D01*
X10044569Y226809D02*
G01*
X10044569Y-673188D01*
X10346829Y225971D02*
G01*
X10346829Y-674027D01*
X11461889Y11932D02*
G01*
X11461889Y225971D01*
X11461889Y225971D02*
G01*
X10044569Y225971D01*
X10044569Y225971D02*
G01*
X10044569Y-673188D01*
X10044569Y-673188D02*
G01*
X10887715Y-673188D01*
X11461889Y-447111D02*
G01*
X11461889Y-673188D01*
X11461889Y-673188D02*
G01*
X11345311Y-673188D01*
X17961589Y-505170D02*
G01*
X18096209Y-505170D01*
X18028899Y-567400D02*
G01*
X18028899Y-442940D01*
X17776210Y-218729D02*
G01*
X17641590Y-218729D01*
X17708900Y-156499D02*
G01*
X17708900Y-280959D01*
X17652497Y-2133600D02*
G01*
X17272502Y-2133600D01*
X17652497Y-2108200D02*
G01*
X17272502Y-2108200D01*
X17272502Y-1360698D02*
G01*
X17652497Y-1360698D01*
X17652497Y-2220701D02*
G01*
X17272502Y-2220701D01*
X17652497Y-1360698D02*
G01*
X17652497Y-2220701D01*
X17652497Y-2082800D02*
G01*
X17272502Y-2082800D01*
X17272502Y-2220701D02*
G01*
X17272502Y-1360698D01*
X15915398Y-2549598D02*
G01*
X15915396Y-1209601D01*
X17175391Y-2549598D02*
G01*
X17175393Y-1209601D01*
X15915398Y-2549598D02*
G01*
X16272281Y-2549598D01*
X16818508Y-2549598D02*
G01*
X17175391Y-2549598D01*
X17175393Y-1209601D02*
G01*
X16818508Y-1209601D01*
X16272281Y-1209601D02*
G01*
X15915396Y-1209601D01*
X16764000Y165100D02*
G01*
X16917670Y165100D01*
X16917670Y-850900D01*
X16764000Y-850900D01*
X10046154Y-3324697D02*
G01*
X10046154Y-1774789D01*
X11366192Y-1774789D02*
G01*
X10046154Y-1774789D01*
X11766242Y-3124799D02*
G01*
X11766242Y-1974687D01*
X11366192Y-3324697D02*
G01*
X10046154Y-3324697D01*
X12407900Y-76200D02*
G01*
X13042900Y-76200D01*
X12407900Y-330200D02*
G01*
X13042900Y-330200D01*
X12407900Y50800D02*
G01*
X12407900Y-457200D01*
X12153900Y-457200D01*
X12153900Y50800D01*
X12407900Y50800D01*
X10731500Y304800D02*
G01*
X10731500Y812800D01*
X15811500Y812800D01*
X15811500Y304800D01*
X10731500Y304800D01*
X10731500Y558800D02*
G01*
X10985500Y558800D01*
X10985500Y304800D01*
X11699240Y-139639D02*
G01*
X11871959Y-139639D01*
X11871959Y-139639D02*
G01*
X11871959Y7680D01*
X11699240Y-139639D02*
G01*
X11699240Y7680D01*
X11871959Y66100D02*
G01*
X11871959Y182940D01*
X11699240Y68640D02*
G01*
X11699240Y182940D01*
X11699240Y182940D02*
G01*
X11734800Y218500D01*
X11836400Y218500D01*
X11871959Y182940D01*
D29*
X11744959Y29270D02*
G01*
X11823700Y29270D01*
X11784804Y29270D02*
G01*
X11784804Y46807D01*
D10*
X11587609Y-1323212D02*
G01*
X11983590Y-1323212D01*
X11822899Y-1270396D02*
G01*
X11947900Y-1270396D01*
X11822899Y-1066403D02*
G01*
X11947900Y-1066403D01*
X11722900Y-1270396D02*
G01*
X11597899Y-1270396D01*
X11722900Y-1066403D02*
G01*
X11597899Y-1066403D01*
X11947903Y-1270396D02*
G01*
X11947900Y-1066403D01*
X11597899Y-1270396D02*
G01*
X11597899Y-1066403D01*
X11705597Y-485195D02*
G01*
X11865602Y-485195D01*
X11865091Y-300134D02*
G01*
X11865091Y-175138D01*
X11705087Y-300134D02*
G01*
X11705087Y-175138D01*
X11865602Y-360192D02*
G01*
X11865602Y-485195D01*
X11705597Y-360192D02*
G01*
X11705597Y-485195D01*
X11705087Y-175138D02*
G01*
X11865091Y-175138D01*
G75*
G01*
X18268950Y-787654D02*
G03*
X18268950Y-794766I-399984J-3556D01*
G75*
G01*
X17468850Y63754D02*
G03*
X17468850Y70866I399984J3556D01*
G75*
G01*
X11359749Y-1775297D02*
G02*
X11766149Y-1978497I28768J-450464D01*
G75*
G01*
X11359749Y-3324697D02*
G03*
X11766149Y-3121497I28768J450463D01*
G75*
G01*
X11587480Y-1323086D02*
G03*
X11983720Y-1323086I198120J-149840D01*
G75*
G01
X17212310Y-812800D02*
G03X17212310Y-812800I-16510J0D01*
M02*
