G04 Layer: BottomLayer*
G04 EasyEDA v6.4.19.4, 2021-05-18T12:34:38--6:00*
G04 00e3982b90714801b635961d6bcae6ed,ecfdb7ac97474c2db5e1325c5a2f7ac0,10*
G04 Gerber Generator version 0.2*
G04 Scale: 100 percent, Rotated: No, Reflected: No *
G04 Dimensions in millimeters *
G04 leading zeros omitted , absolute positions ,4 integer and 5 decimal *
%FSLAX45Y45*%
%MOMM*%

%ADD11C,0.2600*%
%ADD13C,0.5000*%
%ADD14C,0.7000*%
%ADD22C,1.6000*%
%ADD24C,1.8000*%
%ADD25C,2.0000*%
%ADD26R,3.6000X3.6000*%
%ADD27R,1.8000X1.8000*%
%ADD28R,0.9000X1.6000*%
%ADD29C,1.2000*%
%ADD30C,0.9000*%

%LPD*%
D11*
X15684500Y431800D02*
G01*
X15773400Y431800D01*
X15773400Y-3822700D01*
X15036800Y-4559300D01*
X12830302Y-4559300D01*
X12817602Y-4572000D01*
X15430500Y431800D02*
G01*
X15430500Y12700D01*
X13449300Y12700D01*
X12496800Y-939800D01*
X12496800Y-3946397D01*
X12817602Y-4267200D01*
X12026900Y-76200D02*
G01*
X12026900Y-127000D01*
X12166600Y-266700D01*
X12166600Y-850900D01*
X12115800Y-901700D01*
X12115800Y-965200D01*
D13*
X17462500Y-2420696D02*
G01*
X17208500Y-2166696D01*
X17208500Y-673100D01*
X17373600Y-508000D01*
D11*
X11112500Y685800D02*
G01*
X11239500Y558800D01*
X11928350Y558800D01*
X11997941Y489204D01*
X11997941Y129034D01*
X11899900Y30987D01*
X11899900Y-203200D01*
X12026900Y-330200D01*
D13*
X17868900Y-612396D02*
G01*
X17447003Y-612396D01*
X17373600Y-685800D01*
D22*
G01*
X15684500Y685800D03*
G01*
X15684500Y431800D03*
G01*
X15430500Y685800D03*
G01*
X15430500Y431800D03*
G01*
X15176500Y685800D03*
G01*
X15176500Y431800D03*
G01*
X14922500Y685800D03*
G01*
X14922500Y431800D03*
G01*
X14668500Y685800D03*
G01*
X14668500Y431800D03*
G01*
X14414500Y685800D03*
G01*
X14414500Y431800D03*
G01*
X14160500Y685800D03*
G01*
X14160500Y431800D03*
G01*
X13906500Y685800D03*
G01*
X13906500Y431800D03*
G01*
X13652500Y685800D03*
G01*
X13652500Y431800D03*
G01*
X13398500Y685800D03*
G01*
X13398500Y431800D03*
G01*
X13144500Y685800D03*
G01*
X13144500Y431800D03*
G01*
X12890500Y685800D03*
G01*
X12890500Y431800D03*
G01*
X12636500Y685800D03*
G01*
X12636500Y431800D03*
G01*
X12382500Y685800D03*
G01*
X12382500Y431800D03*
G01*
X12128500Y685800D03*
G01*
X12128500Y431800D03*
G01*
X11874500Y685800D03*
G01*
X11874500Y431800D03*
G01*
X11620500Y685800D03*
G01*
X11620500Y431800D03*
G01*
X11366500Y685800D03*
G01*
X11366500Y431800D03*
G01*
X11112500Y685800D03*
G01*
X11112500Y431800D03*
G01*
X10858500Y685800D03*
G36*
X10778500Y511799D02*
G01*
X10938499Y511799D01*
X10938499Y351800D01*
X10778500Y351800D01*
G37*
D24*
G01*
X12277597Y-4267200D03*
G01*
X12277597Y-4572000D03*
G01*
X12817602Y-4267200D03*
G01*
X12817602Y-4572000D03*
D22*
G01*
X17868900Y-962405D03*
G01*
X17868900Y-612394D03*
G01*
X17868900Y238505D03*
G01*
X17868900Y-111505D03*
D25*
G01*
X17462500Y-1160703D03*
G01*
X17462500Y-2420696D03*
G36*
X11326266Y-3461034D02*
G01*
X11326266Y-3101116D01*
X11686184Y-3101116D01*
X11686184Y-3461034D01*
G37*
D26*
G01*
X11506200Y-2561005D03*
D27*
G01*
X12026900Y-76200D03*
D24*
G01*
X12026900Y-330200D03*
D28*
G01*
X12115800Y-965200D03*
D14*
G01*
X17373600Y-508000D03*
G01*
X17373600Y-685800D03*
D24*
X11421262Y-1509615D02*
G01*
X11421262Y-1289616D01*
X10803763Y-1289616D02*
G01*
X10803763Y-1509615D01*
X11011542Y-1876958D02*
G01*
X11231542Y-1876958D01*
X11421262Y-328515D02*
G01*
X11421262Y-108516D01*
X10803763Y-108516D02*
G01*
X10803763Y-328515D01*
X11011542Y-695858D02*
G01*
X11231542Y-695858D01*
D29*
X10796201Y-3596004D02*
G01*
X11016200Y-3596004D01*
X10796201Y-2245995D02*
G01*
X11016200Y-2245995D01*
D30*
X11861800Y-1000201D02*
G01*
X11861800Y-930201D01*
X11988800Y-1000201D02*
G01*
X11988800Y-930201D01*
M02*
