G04 Layer: BottomLayer*
G04 EasyEDA v6.4.19.4, 2021-05-17T11:53:22--6:00*
G04 e5bb7b4e7bdd45059bcec5d89b479325,ecfdb7ac97474c2db5e1325c5a2f7ac0,10*
G04 Gerber Generator version 0.2*
G04 Scale: 100 percent, Rotated: No, Reflected: No *
G04 Dimensions in millimeters *
G04 leading zeros omitted , absolute positions ,4 integer and 5 decimal *
%FSLAX45Y45*%
%MOMM*%

%ADD11C,0.5000*%
%ADD12C,0.2600*%
%ADD14C,0.7000*%
%ADD21C,1.6000*%
%ADD22C,2.0000*%
%ADD23R,3.6000X3.6000*%
%ADD24R,1.8000X1.8000*%
%ADD25C,1.8000*%
%ADD26R,0.9000X1.6000*%
%ADD27C,1.2000*%
%ADD28C,0.9000*%

%LPD*%
D12*
X11112500Y685800D02*
G01*
X11239500Y558800D01*
X11928347Y558800D01*
X11997943Y489204D01*
X11997943Y129031D01*
X11899900Y30987D01*
X11899900Y-203200D01*
X12026900Y-330200D01*
D11*
X17868900Y-612396D02*
G01*
X17447003Y-612396D01*
X17373600Y-685800D01*
X17462500Y-2420696D02*
G01*
X17208500Y-2166696D01*
X17208500Y-673100D01*
X17373600Y-508000D01*
D12*
X17399000Y0D02*
G01*
X17399000Y-317500D01*
X17373600Y-342900D01*
X12014200Y-195326D02*
G01*
X12073890Y-195326D01*
X12147295Y-268986D01*
X12147295Y-1129284D01*
X11912600Y-1363979D01*
X11506200Y-2614676D02*
G01*
X11715495Y-2405379D01*
X11715495Y-1667255D01*
X11658600Y-1610360D01*
X11658600Y-1473200D01*
X11506225Y-2900070D02*
G01*
X11506225Y-2614698D01*
X11506200Y-2614673D01*
X11874500Y431800D02*
G01*
X11577065Y134365D01*
X11577065Y76962D01*
X11577065Y76962D02*
G01*
X11658600Y-4826D01*
X11658600Y-1473200D01*
X12026900Y-76200D02*
G01*
X12026900Y-182623D01*
X12014200Y-195323D01*
X11912600Y-1473200D02*
G01*
X11912600Y-1363979D01*
D21*
G01*
X17868900Y-962405D03*
G01*
X17868900Y-612394D03*
G01*
X17868900Y238505D03*
G01*
X17868900Y-111505D03*
D22*
G01*
X17462500Y-1160703D03*
G01*
X17462500Y-2420696D03*
G36*
X11326266Y-3080034D02*
G01*
X11326266Y-2720116D01*
X11686184Y-2720116D01*
X11686184Y-3080034D01*
G37*
D23*
G01*
X11506200Y-2180005D03*
D24*
G01*
X12026900Y-76200D03*
D25*
G01*
X12026900Y-330200D03*
G36*
X10768500Y521799D02*
G01*
X10948499Y521799D01*
X10948499Y341800D01*
X10768500Y341800D01*
G37*
G01*
X10858500Y685800D03*
G01*
X11112500Y431800D03*
G01*
X11112500Y685800D03*
G01*
X11366500Y431800D03*
G01*
X11366500Y685800D03*
G01*
X11620500Y431800D03*
G01*
X11620500Y685800D03*
G01*
X11874500Y431800D03*
G01*
X11874500Y685800D03*
G01*
X12128500Y431800D03*
G01*
X12128500Y685800D03*
G01*
X12382500Y431800D03*
G01*
X12382500Y685800D03*
G01*
X12636500Y431800D03*
G01*
X12636500Y685800D03*
G01*
X12890500Y431800D03*
G01*
X12890500Y685800D03*
G01*
X13144500Y431800D03*
G01*
X13144500Y685800D03*
G01*
X13398500Y431800D03*
G01*
X13398500Y685800D03*
G01*
X13652500Y431800D03*
G01*
X13652500Y685800D03*
G01*
X13906500Y431800D03*
G01*
X13906500Y685800D03*
G01*
X14160500Y431800D03*
G01*
X14160500Y685800D03*
G01*
X14414500Y431800D03*
G01*
X14414500Y685800D03*
G01*
X14668500Y431800D03*
G01*
X14668500Y685800D03*
G01*
X14922500Y431800D03*
G01*
X14922500Y685800D03*
G01*
X15176500Y431800D03*
G01*
X15176500Y685800D03*
G01*
X15430500Y431800D03*
G01*
X15430500Y685800D03*
G01*
X15684500Y431800D03*
G01*
X15684500Y685800D03*
D26*
G01*
X11912600Y-1473200D03*
D14*
G01*
X17373600Y-508000D03*
G01*
X17373600Y-685800D03*
G01*
X17373600Y-342900D03*
G01*
X17399000Y0D03*
D25*
X11421262Y-1073716D02*
G01*
X11421262Y-1293715D01*
X10803763Y-1293715D02*
G01*
X10803763Y-1073716D01*
X11231542Y-1661058D02*
G01*
X11011542Y-1661058D01*
X11421262Y-108516D02*
G01*
X11421262Y-328515D01*
X10803763Y-328515D02*
G01*
X10803763Y-108516D01*
X11231542Y-695858D02*
G01*
X11011542Y-695858D01*
D27*
X10796201Y-3215004D02*
G01*
X11016200Y-3215004D01*
X10796201Y-1864995D02*
G01*
X11016200Y-1864995D01*
D28*
X11658600Y-1508201D02*
G01*
X11658600Y-1438201D01*
X11785600Y-1508201D02*
G01*
X11785600Y-1438201D01*
M02*
