G04 Layer: BottomSolderMaskLayer*
G04 EasyEDA v6.4.19.4, 2021-05-18T12:34:38--6:00*
G04 00e3982b90714801b635961d6bcae6ed,ecfdb7ac97474c2db5e1325c5a2f7ac0,10*
G04 Gerber Generator version 0.2*
G04 Scale: 100 percent, Rotated: No, Reflected: No *
G04 Dimensions in millimeters *
G04 leading zeros omitted , absolute positions ,4 integer and 5 decimal *
%FSLAX45Y45*%
%MOMM*%

%ADD36C,1.9016*%
%ADD37C,1.4032*%
%ADD38C,1.0016*%
%ADD39C,1.7016*%
%ADD44C,2.1016*%

%LPD*%
D36*
X11421262Y-1509615D02*
G01*
X11421262Y-1289616D01*
X10803763Y-1289616D02*
G01*
X10803763Y-1509615D01*
X11011542Y-1876958D02*
G01*
X11231542Y-1876958D01*
X11421262Y-328515D02*
G01*
X11421262Y-108516D01*
X10803763Y-108516D02*
G01*
X10803763Y-328515D01*
X11011542Y-695858D02*
G01*
X11231542Y-695858D01*
D37*
X10796201Y-3596004D02*
G01*
X11016200Y-3596004D01*
X10796201Y-2245995D02*
G01*
X11016200Y-2245995D01*
D38*
X11861800Y-1000201D02*
G01*
X11861800Y-930201D01*
X11988800Y-1000201D02*
G01*
X11988800Y-930201D01*
D39*
G01*
X15684500Y685800D03*
G01*
X15684500Y431800D03*
G01*
X15430500Y685800D03*
G01*
X15430500Y431800D03*
G01*
X15176500Y685800D03*
G01*
X15176500Y431800D03*
G01*
X14922500Y685800D03*
G01*
X14922500Y431800D03*
G01*
X14668500Y685800D03*
G01*
X14668500Y431800D03*
G01*
X14414500Y685800D03*
G01*
X14414500Y431800D03*
G01*
X14160500Y685800D03*
G01*
X14160500Y431800D03*
G01*
X13906500Y685800D03*
G01*
X13906500Y431800D03*
G01*
X13652500Y685800D03*
G01*
X13652500Y431800D03*
G01*
X13398500Y685800D03*
G01*
X13398500Y431800D03*
G01*
X13144500Y685800D03*
G01*
X13144500Y431800D03*
G01*
X12890500Y685800D03*
G01*
X12890500Y431800D03*
G01*
X12636500Y685800D03*
G01*
X12636500Y431800D03*
G01*
X12382500Y685800D03*
G01*
X12382500Y431800D03*
G01*
X12128500Y685800D03*
G01*
X12128500Y431800D03*
G01*
X11874500Y685800D03*
G01*
X11874500Y431800D03*
G01*
X11620500Y685800D03*
G01*
X11620500Y431800D03*
G01*
X11366500Y685800D03*
G01*
X11366500Y431800D03*
G01*
X11112500Y685800D03*
G01*
X11112500Y431800D03*
G01*
X10858500Y685800D03*
G36*
X10773409Y346710D02*
G01*
X10773409Y516889D01*
X10943590Y516889D01*
X10943590Y346710D01*
G37*
D36*
G01*
X12277597Y-4267200D03*
G01*
X12277597Y-4572000D03*
G01*
X12817602Y-4267200D03*
G01*
X12817602Y-4572000D03*
D39*
G01*
X17868900Y-962405D03*
G01*
X17868900Y-612394D03*
G01*
X17868900Y238505D03*
G01*
X17868900Y-111505D03*
D44*
G01*
X17462500Y-1160703D03*
G01*
X17462500Y-2420696D03*
G36*
X11316208Y-3471163D02*
G01*
X11316208Y-3090926D01*
X11696445Y-3090926D01*
X11696445Y-3471163D01*
G37*
G36*
X11315954Y-2751073D02*
G01*
X11315954Y-2370836D01*
X11696445Y-2370836D01*
X11696445Y-2751073D01*
G37*
G36*
X11931904Y-171195D02*
G01*
X11931904Y18795D01*
X12121895Y18795D01*
X12121895Y-171195D01*
G37*
D36*
G01*
X12026900Y-330200D03*
G36*
X12065761Y-1050289D02*
G01*
X12065761Y-880110D01*
X12165838Y-880110D01*
X12165838Y-1050289D01*
G37*
M02*
