G04 Layer: TopLayer*
G04 EasyEDA v6.4.19.4, 2021-05-18T12:34:38--6:00*
G04 00e3982b90714801b635961d6bcae6ed,ecfdb7ac97474c2db5e1325c5a2f7ac0,10*
G04 Gerber Generator version 0.2*
G04 Scale: 100 percent, Rotated: No, Reflected: No *
G04 Dimensions in millimeters *
G04 leading zeros omitted , absolute positions ,4 integer and 5 decimal *
%FSLAX45Y45*%
%MOMM*%

%ADD11C,0.2600*%
%ADD12C,1.0000*%
%ADD13C,0.5000*%
%ADD14C,0.7000*%
%ADD15R,2.2900X2.7200*%
%ADD16R,8.8900X10.6600*%
%ADD17R,2.2860X1.0693*%
%ADD18R,5.0000X3.2500*%
%ADD20R,1.0000X1.5500*%
%ADD21R,1.1000X1.0000*%
%ADD22C,1.6000*%
%ADD24C,1.8000*%
%ADD25C,2.0000*%
%ADD26R,3.6000X3.6000*%
%ADD27R,1.8000X1.8000*%
%ADD28R,0.9000X1.6000*%
%ADD29C,1.2000*%
%ADD30C,0.9000*%

%LPD*%
G36*
X10056114Y-4673346D02*
G01*
X10052202Y-4672584D01*
X10048951Y-4670348D01*
X10046716Y-4667097D01*
X10045954Y-4663186D01*
X10045954Y878586D01*
X10046716Y882497D01*
X10048951Y885748D01*
X10052202Y887984D01*
X10056114Y888746D01*
X11053775Y888746D01*
X11057432Y888085D01*
X11060582Y886155D01*
X11062868Y883208D01*
X11063884Y879652D01*
X11063630Y875944D01*
X11062665Y872388D01*
X11061852Y863142D01*
X11061852Y795680D01*
X11061192Y792124D01*
X11059363Y789025D01*
X11056569Y786739D01*
X11050524Y783437D01*
X11038789Y774903D01*
X11028222Y764946D01*
X11018926Y753770D01*
X11011154Y741527D01*
X11005007Y728370D01*
X11000486Y714552D01*
X10997793Y700278D01*
X10996879Y685800D01*
X10997793Y671322D01*
X11000486Y657047D01*
X11005007Y643229D01*
X11011154Y630072D01*
X11018926Y617829D01*
X11028222Y606653D01*
X11038789Y596696D01*
X11050524Y588162D01*
X11063274Y581152D01*
X11076787Y575818D01*
X11090808Y572211D01*
X11105235Y570382D01*
X11119764Y570382D01*
X11134191Y572211D01*
X11148212Y575818D01*
X11161725Y581152D01*
X11174476Y588162D01*
X11186210Y596696D01*
X11196777Y606653D01*
X11206073Y617829D01*
X11213846Y630072D01*
X11219992Y643229D01*
X11224514Y657047D01*
X11227206Y671322D01*
X11228120Y685800D01*
X11227206Y700278D01*
X11224514Y714552D01*
X11219992Y728370D01*
X11213846Y741527D01*
X11206073Y753770D01*
X11196777Y764946D01*
X11186210Y774903D01*
X11174476Y783437D01*
X11168430Y786739D01*
X11165636Y789025D01*
X11163808Y792124D01*
X11163147Y795680D01*
X11163147Y802792D01*
X11163909Y806653D01*
X11166144Y809955D01*
X11169446Y812190D01*
X11173307Y812952D01*
X11320881Y812952D01*
X11324793Y812139D01*
X11328095Y809955D01*
X11330279Y806602D01*
X11331041Y802690D01*
X11330228Y798779D01*
X11327942Y795528D01*
X11324640Y793343D01*
X11317274Y790448D01*
X11304524Y783437D01*
X11292789Y774903D01*
X11282222Y764946D01*
X11272926Y753770D01*
X11265154Y741527D01*
X11259007Y728370D01*
X11254486Y714552D01*
X11251793Y700278D01*
X11250879Y685800D01*
X11251793Y671322D01*
X11254486Y657047D01*
X11259007Y643229D01*
X11265154Y630072D01*
X11272926Y617829D01*
X11282222Y606653D01*
X11292789Y596696D01*
X11304524Y588162D01*
X11317274Y581152D01*
X11330787Y575818D01*
X11344808Y572211D01*
X11359235Y570382D01*
X11373764Y570382D01*
X11388191Y572211D01*
X11402212Y575818D01*
X11415725Y581152D01*
X11428476Y588162D01*
X11440210Y596696D01*
X11450777Y606653D01*
X11460073Y617829D01*
X11467846Y630072D01*
X11473992Y643229D01*
X11478514Y657047D01*
X11481206Y671322D01*
X11482120Y685800D01*
X11481206Y700278D01*
X11478514Y714552D01*
X11473992Y728370D01*
X11467846Y741527D01*
X11460073Y753770D01*
X11450777Y764946D01*
X11440210Y774903D01*
X11428476Y783437D01*
X11415725Y790448D01*
X11408359Y793343D01*
X11405057Y795528D01*
X11402771Y798779D01*
X11401958Y802690D01*
X11402720Y806602D01*
X11404904Y809955D01*
X11408206Y812139D01*
X11412118Y812952D01*
X11574881Y812952D01*
X11578793Y812139D01*
X11582095Y809955D01*
X11584279Y806602D01*
X11585041Y802690D01*
X11584228Y798779D01*
X11581942Y795528D01*
X11578640Y793343D01*
X11571274Y790448D01*
X11558524Y783437D01*
X11546789Y774903D01*
X11536222Y764946D01*
X11526926Y753770D01*
X11519154Y741527D01*
X11513007Y728370D01*
X11508486Y714552D01*
X11505793Y700278D01*
X11504879Y685800D01*
X11505793Y671322D01*
X11508486Y657047D01*
X11513261Y642721D01*
X11514175Y638708D01*
X11513464Y634644D01*
X11511229Y631190D01*
X11466525Y586486D01*
X11461394Y580237D01*
X11457838Y573582D01*
X11455654Y566318D01*
X11454841Y558292D01*
X11454841Y530199D01*
X11453876Y525881D01*
X11451183Y522376D01*
X11447221Y520344D01*
X11442801Y520242D01*
X11438737Y521970D01*
X11428476Y529437D01*
X11415725Y536448D01*
X11402212Y541782D01*
X11388191Y545388D01*
X11373764Y547217D01*
X11359235Y547217D01*
X11344808Y545388D01*
X11330787Y541782D01*
X11317274Y536448D01*
X11304524Y529437D01*
X11292789Y520903D01*
X11282222Y510946D01*
X11272926Y499770D01*
X11265154Y487527D01*
X11259007Y474370D01*
X11254486Y460552D01*
X11251793Y446278D01*
X11250879Y431800D01*
X11251793Y417322D01*
X11254486Y403047D01*
X11259007Y389229D01*
X11265154Y376072D01*
X11272926Y363829D01*
X11282222Y352653D01*
X11292789Y342696D01*
X11304524Y334162D01*
X11317274Y327152D01*
X11330787Y321818D01*
X11344808Y318211D01*
X11359235Y316382D01*
X11373764Y316382D01*
X11388191Y318211D01*
X11402212Y321818D01*
X11415725Y327152D01*
X11428476Y334162D01*
X11438737Y341630D01*
X11442801Y343357D01*
X11447221Y343255D01*
X11451183Y341223D01*
X11453876Y337718D01*
X11454841Y333400D01*
X11454841Y51308D01*
X11455654Y43281D01*
X11457838Y36017D01*
X11461394Y29362D01*
X11466525Y23114D01*
X11473942Y15697D01*
X11476126Y12395D01*
X11476939Y8534D01*
X11476177Y4673D01*
X11473992Y1371D01*
X11470741Y-863D01*
X11466931Y-1676D01*
X11463020Y-965D01*
X11456974Y1422D01*
X11442903Y5080D01*
X11428526Y6858D01*
X11413998Y6858D01*
X11399570Y5080D01*
X11385499Y1422D01*
X11372037Y-3911D01*
X11359286Y-10871D01*
X11347551Y-19456D01*
X11336934Y-29362D01*
X11327688Y-40538D01*
X11319916Y-52832D01*
X11313718Y-65938D01*
X11309248Y-79756D01*
X11306505Y-94030D01*
X11305590Y-108864D01*
X11305590Y-328218D01*
X11306505Y-343001D01*
X11309248Y-357276D01*
X11313718Y-371094D01*
X11319916Y-384251D01*
X11327688Y-396494D01*
X11336934Y-407670D01*
X11347551Y-417626D01*
X11359286Y-426161D01*
X11372037Y-433171D01*
X11385499Y-438505D01*
X11399570Y-442112D01*
X11413998Y-443941D01*
X11428526Y-443941D01*
X11442903Y-442112D01*
X11456974Y-438505D01*
X11470487Y-433171D01*
X11483187Y-426161D01*
X11494973Y-417626D01*
X11501221Y-411734D01*
X11504523Y-409651D01*
X11508384Y-408990D01*
X11512245Y-409803D01*
X11515445Y-412038D01*
X11517579Y-415290D01*
X11518341Y-419150D01*
X11518341Y-672592D01*
X11519154Y-680618D01*
X11521338Y-687882D01*
X11524894Y-694537D01*
X11529720Y-700379D01*
X11535562Y-705205D01*
X11542217Y-708761D01*
X11549481Y-710946D01*
X11557508Y-711758D01*
X11587073Y-711758D01*
X11590985Y-712520D01*
X11594287Y-714705D01*
X11596471Y-718007D01*
X11597233Y-721918D01*
X11597233Y-750011D01*
X11597944Y-756310D01*
X11599824Y-761695D01*
X11602872Y-766572D01*
X11606936Y-770585D01*
X11611813Y-773633D01*
X11617198Y-775563D01*
X11623446Y-776274D01*
X11722354Y-776274D01*
X11728602Y-775563D01*
X11733987Y-773633D01*
X11738864Y-770585D01*
X11742928Y-766572D01*
X11745976Y-761695D01*
X11747855Y-756310D01*
X11748566Y-750011D01*
X11748566Y-596188D01*
X11747855Y-589889D01*
X11745976Y-584504D01*
X11742928Y-579628D01*
X11738864Y-575614D01*
X11733987Y-572566D01*
X11728602Y-570636D01*
X11722354Y-569925D01*
X11623446Y-569925D01*
X11617198Y-570636D01*
X11607190Y-574395D01*
X11602872Y-574040D01*
X11599113Y-571957D01*
X11596573Y-568502D01*
X11595658Y-564286D01*
X11595658Y-13208D01*
X11594846Y-5181D01*
X11592661Y2082D01*
X11589105Y8737D01*
X11583974Y14985D01*
X11535105Y63855D01*
X11532920Y67106D01*
X11532158Y71018D01*
X11532158Y333400D01*
X11533124Y337718D01*
X11535816Y341223D01*
X11539778Y343255D01*
X11544198Y343357D01*
X11548262Y341630D01*
X11558524Y334162D01*
X11571274Y327152D01*
X11584787Y321818D01*
X11598808Y318211D01*
X11613235Y316382D01*
X11627764Y316382D01*
X11642191Y318211D01*
X11656212Y321818D01*
X11669725Y327152D01*
X11682476Y334162D01*
X11694210Y342696D01*
X11704777Y352653D01*
X11714073Y363829D01*
X11721846Y376072D01*
X11727992Y389229D01*
X11732514Y403047D01*
X11735206Y417322D01*
X11736120Y431800D01*
X11735206Y446278D01*
X11732514Y460552D01*
X11727992Y474370D01*
X11721846Y487527D01*
X11714073Y499770D01*
X11704777Y510946D01*
X11694210Y520903D01*
X11682476Y529437D01*
X11669725Y536448D01*
X11656212Y541782D01*
X11642191Y545388D01*
X11627764Y547217D01*
X11613235Y547217D01*
X11598808Y545388D01*
X11584787Y541782D01*
X11571274Y536448D01*
X11558524Y529437D01*
X11548262Y521970D01*
X11544198Y520242D01*
X11539778Y520344D01*
X11535816Y522376D01*
X11533124Y525881D01*
X11532158Y530199D01*
X11532158Y538581D01*
X11532920Y542493D01*
X11535105Y545744D01*
X11566042Y576681D01*
X11569293Y578866D01*
X11573103Y579628D01*
X11576964Y578916D01*
X11584787Y575818D01*
X11598808Y572211D01*
X11613235Y570382D01*
X11627764Y570382D01*
X11642191Y572211D01*
X11656212Y575818D01*
X11669725Y581152D01*
X11682476Y588162D01*
X11694210Y596696D01*
X11704777Y606653D01*
X11714073Y617829D01*
X11721846Y630072D01*
X11727992Y643229D01*
X11732514Y657047D01*
X11735206Y671322D01*
X11736120Y685800D01*
X11735206Y700278D01*
X11732514Y714552D01*
X11727992Y728370D01*
X11721846Y741527D01*
X11714073Y753770D01*
X11704777Y764946D01*
X11694210Y774903D01*
X11682476Y783437D01*
X11669725Y790448D01*
X11662359Y793343D01*
X11659057Y795528D01*
X11656771Y798779D01*
X11655958Y802690D01*
X11656720Y806602D01*
X11658904Y809955D01*
X11662206Y812139D01*
X11666118Y812952D01*
X11828881Y812952D01*
X11832793Y812139D01*
X11836095Y809955D01*
X11838279Y806602D01*
X11839041Y802690D01*
X11838228Y798779D01*
X11835942Y795528D01*
X11832640Y793343D01*
X11825274Y790448D01*
X11812524Y783437D01*
X11800789Y774903D01*
X11790222Y764946D01*
X11780926Y753770D01*
X11773154Y741527D01*
X11767007Y728370D01*
X11762486Y714552D01*
X11759793Y700278D01*
X11758879Y685800D01*
X11759793Y671322D01*
X11762486Y657047D01*
X11767007Y643229D01*
X11773154Y630072D01*
X11780926Y617829D01*
X11790222Y606653D01*
X11800789Y596696D01*
X11812524Y588162D01*
X11825274Y581152D01*
X11838787Y575818D01*
X11852808Y572211D01*
X11867235Y570382D01*
X11881764Y570382D01*
X11896191Y572211D01*
X11910212Y575818D01*
X11923725Y581152D01*
X11936476Y588162D01*
X11948210Y596696D01*
X11958777Y606653D01*
X11968073Y617829D01*
X11975846Y630072D01*
X11981992Y643229D01*
X11986514Y657047D01*
X11989206Y671322D01*
X11990120Y685800D01*
X11989206Y700278D01*
X11986514Y714552D01*
X11981992Y728370D01*
X11975846Y741527D01*
X11968073Y753770D01*
X11958777Y764946D01*
X11948210Y774903D01*
X11936476Y783437D01*
X11923725Y790448D01*
X11916359Y793343D01*
X11913057Y795528D01*
X11910771Y798779D01*
X11909958Y802690D01*
X11910720Y806602D01*
X11912904Y809955D01*
X11916206Y812139D01*
X11920118Y812952D01*
X12082881Y812952D01*
X12086793Y812139D01*
X12090095Y809955D01*
X12092279Y806602D01*
X12093041Y802690D01*
X12092228Y798779D01*
X12089942Y795528D01*
X12086640Y793343D01*
X12079274Y790448D01*
X12066524Y783437D01*
X12054789Y774903D01*
X12044222Y764946D01*
X12034926Y753770D01*
X12027154Y741527D01*
X12021007Y728370D01*
X12016486Y714552D01*
X12013793Y700278D01*
X12012879Y685800D01*
X12013793Y671322D01*
X12016486Y657047D01*
X12021007Y643229D01*
X12027154Y630072D01*
X12034926Y617829D01*
X12044222Y606653D01*
X12054789Y596696D01*
X12066524Y588162D01*
X12079274Y581152D01*
X12092787Y575818D01*
X12106808Y572211D01*
X12121235Y570382D01*
X12135764Y570382D01*
X12150191Y572211D01*
X12164212Y575818D01*
X12177725Y581152D01*
X12190476Y588162D01*
X12202210Y596696D01*
X12212777Y606653D01*
X12222073Y617829D01*
X12229846Y630072D01*
X12235992Y643229D01*
X12240514Y657047D01*
X12243206Y671322D01*
X12244120Y685800D01*
X12243206Y700278D01*
X12240514Y714552D01*
X12235992Y728370D01*
X12229846Y741527D01*
X12222073Y753770D01*
X12212777Y764946D01*
X12202210Y774903D01*
X12190476Y783437D01*
X12177725Y790448D01*
X12170359Y793343D01*
X12167057Y795528D01*
X12164771Y798779D01*
X12163958Y802690D01*
X12164720Y806602D01*
X12166904Y809955D01*
X12170206Y812139D01*
X12174118Y812952D01*
X12336881Y812952D01*
X12340793Y812139D01*
X12344095Y809955D01*
X12346279Y806602D01*
X12347041Y802690D01*
X12346228Y798779D01*
X12343942Y795528D01*
X12340640Y793343D01*
X12333274Y790448D01*
X12320524Y783437D01*
X12308789Y774903D01*
X12298222Y764946D01*
X12288926Y753770D01*
X12281154Y741527D01*
X12275007Y728370D01*
X12270486Y714552D01*
X12267793Y700278D01*
X12266879Y685800D01*
X12267793Y671322D01*
X12270486Y657047D01*
X12275007Y643229D01*
X12281154Y630072D01*
X12288926Y617829D01*
X12298222Y606653D01*
X12308789Y596696D01*
X12320524Y588162D01*
X12333274Y581152D01*
X12346787Y575818D01*
X12360808Y572211D01*
X12375235Y570382D01*
X12389764Y570382D01*
X12404191Y572211D01*
X12418212Y575818D01*
X12431725Y581152D01*
X12444476Y588162D01*
X12456210Y596696D01*
X12466777Y606653D01*
X12476073Y617829D01*
X12483846Y630072D01*
X12489992Y643229D01*
X12494514Y657047D01*
X12497206Y671322D01*
X12498120Y685800D01*
X12497206Y700278D01*
X12494514Y714552D01*
X12489992Y728370D01*
X12483846Y741527D01*
X12476073Y753770D01*
X12466777Y764946D01*
X12456210Y774903D01*
X12444476Y783437D01*
X12431725Y790448D01*
X12424359Y793343D01*
X12421057Y795528D01*
X12418771Y798779D01*
X12417958Y802690D01*
X12418720Y806602D01*
X12420904Y809955D01*
X12424206Y812139D01*
X12428118Y812952D01*
X12590881Y812952D01*
X12594793Y812139D01*
X12598095Y809955D01*
X12600279Y806602D01*
X12601041Y802690D01*
X12600228Y798779D01*
X12597942Y795528D01*
X12594640Y793343D01*
X12587274Y790448D01*
X12574524Y783437D01*
X12562789Y774903D01*
X12552222Y764946D01*
X12542926Y753770D01*
X12535154Y741527D01*
X12529007Y728370D01*
X12524486Y714552D01*
X12521793Y700278D01*
X12520879Y685800D01*
X12521793Y671322D01*
X12524486Y657047D01*
X12529007Y643229D01*
X12535154Y630072D01*
X12542926Y617829D01*
X12552222Y606653D01*
X12562789Y596696D01*
X12574524Y588162D01*
X12587274Y581152D01*
X12600787Y575818D01*
X12614808Y572211D01*
X12629235Y570382D01*
X12643764Y570382D01*
X12658191Y572211D01*
X12672212Y575818D01*
X12685725Y581152D01*
X12698476Y588162D01*
X12710210Y596696D01*
X12720777Y606653D01*
X12730073Y617829D01*
X12737846Y630072D01*
X12743992Y643229D01*
X12748514Y657047D01*
X12751206Y671322D01*
X12752120Y685800D01*
X12751206Y700278D01*
X12748514Y714552D01*
X12743992Y728370D01*
X12737846Y741527D01*
X12730073Y753770D01*
X12720777Y764946D01*
X12710210Y774903D01*
X12698476Y783437D01*
X12685725Y790448D01*
X12678359Y793343D01*
X12675057Y795528D01*
X12672771Y798779D01*
X12671958Y802690D01*
X12672720Y806602D01*
X12674904Y809955D01*
X12678206Y812139D01*
X12682118Y812952D01*
X12844881Y812952D01*
X12848793Y812139D01*
X12852095Y809955D01*
X12854279Y806602D01*
X12855041Y802690D01*
X12854228Y798779D01*
X12851942Y795528D01*
X12848640Y793343D01*
X12841274Y790448D01*
X12828524Y783437D01*
X12816789Y774903D01*
X12806222Y764946D01*
X12796926Y753770D01*
X12789154Y741527D01*
X12783007Y728370D01*
X12778486Y714552D01*
X12775793Y700278D01*
X12774879Y685800D01*
X12775793Y671322D01*
X12778486Y657047D01*
X12783007Y643229D01*
X12789154Y630072D01*
X12796926Y617829D01*
X12806222Y606653D01*
X12816789Y596696D01*
X12828524Y588162D01*
X12841274Y581152D01*
X12854787Y575818D01*
X12868808Y572211D01*
X12883235Y570382D01*
X12897764Y570382D01*
X12912191Y572211D01*
X12926212Y575818D01*
X12939725Y581152D01*
X12952476Y588162D01*
X12964210Y596696D01*
X12974777Y606653D01*
X12984073Y617829D01*
X12991846Y630072D01*
X12997992Y643229D01*
X13002514Y657047D01*
X13005206Y671322D01*
X13006120Y685800D01*
X13005206Y700278D01*
X13002514Y714552D01*
X12997992Y728370D01*
X12991846Y741527D01*
X12984073Y753770D01*
X12974777Y764946D01*
X12964210Y774903D01*
X12952476Y783437D01*
X12939725Y790448D01*
X12932359Y793343D01*
X12929057Y795528D01*
X12926771Y798779D01*
X12925958Y802690D01*
X12926720Y806602D01*
X12928904Y809955D01*
X12932206Y812139D01*
X12936118Y812952D01*
X13098881Y812952D01*
X13102793Y812139D01*
X13106095Y809955D01*
X13108279Y806602D01*
X13109041Y802690D01*
X13108228Y798779D01*
X13105942Y795528D01*
X13102640Y793343D01*
X13095274Y790448D01*
X13082524Y783437D01*
X13070789Y774903D01*
X13060222Y764946D01*
X13050926Y753770D01*
X13043154Y741527D01*
X13037007Y728370D01*
X13032486Y714552D01*
X13029793Y700278D01*
X13028879Y685800D01*
X13029793Y671322D01*
X13032486Y657047D01*
X13037007Y643229D01*
X13043154Y630072D01*
X13050926Y617829D01*
X13060222Y606653D01*
X13070789Y596696D01*
X13082524Y588162D01*
X13095274Y581152D01*
X13108787Y575818D01*
X13122808Y572211D01*
X13137235Y570382D01*
X13151764Y570382D01*
X13166191Y572211D01*
X13180212Y575818D01*
X13193725Y581152D01*
X13206476Y588162D01*
X13218210Y596696D01*
X13228777Y606653D01*
X13238073Y617829D01*
X13245846Y630072D01*
X13251992Y643229D01*
X13256513Y657047D01*
X13259206Y671322D01*
X13260120Y685800D01*
X13259206Y700278D01*
X13256513Y714552D01*
X13251992Y728370D01*
X13245846Y741527D01*
X13238073Y753770D01*
X13228777Y764946D01*
X13218210Y774903D01*
X13206476Y783437D01*
X13193725Y790448D01*
X13186359Y793343D01*
X13183057Y795528D01*
X13180771Y798779D01*
X13179958Y802690D01*
X13180720Y806602D01*
X13182904Y809955D01*
X13186206Y812139D01*
X13190118Y812952D01*
X13352881Y812952D01*
X13356793Y812139D01*
X13360095Y809955D01*
X13362279Y806602D01*
X13363041Y802690D01*
X13362228Y798779D01*
X13359942Y795528D01*
X13356640Y793343D01*
X13349274Y790448D01*
X13336524Y783437D01*
X13324789Y774903D01*
X13314222Y764946D01*
X13304926Y753770D01*
X13297154Y741527D01*
X13291007Y728370D01*
X13286486Y714552D01*
X13283793Y700278D01*
X13282879Y685800D01*
X13283793Y671322D01*
X13286486Y657047D01*
X13291007Y643229D01*
X13297154Y630072D01*
X13304926Y617829D01*
X13314222Y606653D01*
X13324789Y596696D01*
X13336524Y588162D01*
X13349274Y581152D01*
X13362787Y575818D01*
X13376808Y572211D01*
X13391235Y570382D01*
X13405764Y570382D01*
X13420191Y572211D01*
X13434212Y575818D01*
X13447725Y581152D01*
X13460476Y588162D01*
X13472210Y596696D01*
X13482777Y606653D01*
X13492073Y617829D01*
X13499846Y630072D01*
X13505992Y643229D01*
X13510513Y657047D01*
X13513206Y671322D01*
X13514120Y685800D01*
X13513206Y700278D01*
X13510513Y714552D01*
X13505992Y728370D01*
X13499846Y741527D01*
X13492073Y753770D01*
X13482777Y764946D01*
X13472210Y774903D01*
X13460476Y783437D01*
X13447725Y790448D01*
X13440359Y793343D01*
X13437057Y795528D01*
X13434771Y798779D01*
X13433958Y802690D01*
X13434720Y806602D01*
X13436904Y809955D01*
X13440206Y812139D01*
X13444118Y812952D01*
X13606881Y812952D01*
X13610793Y812139D01*
X13614095Y809955D01*
X13616279Y806602D01*
X13617041Y802690D01*
X13616228Y798779D01*
X13613942Y795528D01*
X13610640Y793343D01*
X13603274Y790448D01*
X13590524Y783437D01*
X13578789Y774903D01*
X13568222Y764946D01*
X13558926Y753770D01*
X13551154Y741527D01*
X13545007Y728370D01*
X13540486Y714552D01*
X13537793Y700278D01*
X13536879Y685800D01*
X13537793Y671322D01*
X13540486Y657047D01*
X13545007Y643229D01*
X13551154Y630072D01*
X13558926Y617829D01*
X13568222Y606653D01*
X13578789Y596696D01*
X13590524Y588162D01*
X13603274Y581152D01*
X13616787Y575818D01*
X13630808Y572211D01*
X13645235Y570382D01*
X13659764Y570382D01*
X13674191Y572211D01*
X13688212Y575818D01*
X13701725Y581152D01*
X13714476Y588162D01*
X13726210Y596696D01*
X13736777Y606653D01*
X13746073Y617829D01*
X13753846Y630072D01*
X13759992Y643229D01*
X13764513Y657047D01*
X13767206Y671322D01*
X13768120Y685800D01*
X13767206Y700278D01*
X13764513Y714552D01*
X13759992Y728370D01*
X13753846Y741527D01*
X13746073Y753770D01*
X13736777Y764946D01*
X13726210Y774903D01*
X13714476Y783437D01*
X13701725Y790448D01*
X13694359Y793343D01*
X13691057Y795528D01*
X13688771Y798779D01*
X13687958Y802690D01*
X13688720Y806602D01*
X13690904Y809955D01*
X13694206Y812139D01*
X13698118Y812952D01*
X13860881Y812952D01*
X13864793Y812139D01*
X13868095Y809955D01*
X13870279Y806602D01*
X13871041Y802690D01*
X13870228Y798779D01*
X13867942Y795528D01*
X13864640Y793343D01*
X13857274Y790448D01*
X13844524Y783437D01*
X13832789Y774903D01*
X13822222Y764946D01*
X13812926Y753770D01*
X13805154Y741527D01*
X13799007Y728370D01*
X13794486Y714552D01*
X13791793Y700278D01*
X13790879Y685800D01*
X13791793Y671322D01*
X13794486Y657047D01*
X13799007Y643229D01*
X13805154Y630072D01*
X13812926Y617829D01*
X13822222Y606653D01*
X13832789Y596696D01*
X13844524Y588162D01*
X13857274Y581152D01*
X13870787Y575818D01*
X13884808Y572211D01*
X13899235Y570382D01*
X13913764Y570382D01*
X13928191Y572211D01*
X13942212Y575818D01*
X13955725Y581152D01*
X13968476Y588162D01*
X13980210Y596696D01*
X13990777Y606653D01*
X14000073Y617829D01*
X14007846Y630072D01*
X14013992Y643229D01*
X14018513Y657047D01*
X14021206Y671322D01*
X14022120Y685800D01*
X14021206Y700278D01*
X14018513Y714552D01*
X14013992Y728370D01*
X14007846Y741527D01*
X14000073Y753770D01*
X13990777Y764946D01*
X13980210Y774903D01*
X13968476Y783437D01*
X13955725Y790448D01*
X13948359Y793343D01*
X13945057Y795528D01*
X13942771Y798779D01*
X13941958Y802690D01*
X13942720Y806602D01*
X13944904Y809955D01*
X13948206Y812139D01*
X13952118Y812952D01*
X14114881Y812952D01*
X14118793Y812139D01*
X14122095Y809955D01*
X14124279Y806602D01*
X14125041Y802690D01*
X14124228Y798779D01*
X14121942Y795528D01*
X14118640Y793343D01*
X14111274Y790448D01*
X14098524Y783437D01*
X14086789Y774903D01*
X14076222Y764946D01*
X14066926Y753770D01*
X14059154Y741527D01*
X14053007Y728370D01*
X14048486Y714552D01*
X14045793Y700278D01*
X14044879Y685800D01*
X14045793Y671322D01*
X14048486Y657047D01*
X14053007Y643229D01*
X14059154Y630072D01*
X14066926Y617829D01*
X14076222Y606653D01*
X14086789Y596696D01*
X14098524Y588162D01*
X14111274Y581152D01*
X14124787Y575818D01*
X14138808Y572211D01*
X14153235Y570382D01*
X14167764Y570382D01*
X14182191Y572211D01*
X14196212Y575818D01*
X14209725Y581152D01*
X14222476Y588162D01*
X14234210Y596696D01*
X14244777Y606653D01*
X14254073Y617829D01*
X14261846Y630072D01*
X14267992Y643229D01*
X14272513Y657047D01*
X14275206Y671322D01*
X14276120Y685800D01*
X14275206Y700278D01*
X14272513Y714552D01*
X14267992Y728370D01*
X14261846Y741527D01*
X14254073Y753770D01*
X14244777Y764946D01*
X14234210Y774903D01*
X14222476Y783437D01*
X14209725Y790448D01*
X14202359Y793343D01*
X14199057Y795528D01*
X14196771Y798779D01*
X14195958Y802690D01*
X14196720Y806602D01*
X14198904Y809955D01*
X14202206Y812139D01*
X14206118Y812952D01*
X14368881Y812952D01*
X14372793Y812139D01*
X14376095Y809955D01*
X14378279Y806602D01*
X14379041Y802690D01*
X14378228Y798779D01*
X14375942Y795528D01*
X14372640Y793343D01*
X14365274Y790448D01*
X14352524Y783437D01*
X14340789Y774903D01*
X14330222Y764946D01*
X14320926Y753770D01*
X14313154Y741527D01*
X14307007Y728370D01*
X14302486Y714552D01*
X14299793Y700278D01*
X14298879Y685800D01*
X14299793Y671322D01*
X14302486Y657047D01*
X14307007Y643229D01*
X14313154Y630072D01*
X14320926Y617829D01*
X14330222Y606653D01*
X14340789Y596696D01*
X14352524Y588162D01*
X14365274Y581152D01*
X14378787Y575818D01*
X14392808Y572211D01*
X14407235Y570382D01*
X14421764Y570382D01*
X14436191Y572211D01*
X14450212Y575818D01*
X14463725Y581152D01*
X14476476Y588162D01*
X14488210Y596696D01*
X14498777Y606653D01*
X14508073Y617829D01*
X14515846Y630072D01*
X14521992Y643229D01*
X14526513Y657047D01*
X14529206Y671322D01*
X14530120Y685800D01*
X14529206Y700278D01*
X14526513Y714552D01*
X14521992Y728370D01*
X14515846Y741527D01*
X14508073Y753770D01*
X14498777Y764946D01*
X14488210Y774903D01*
X14476476Y783437D01*
X14463725Y790448D01*
X14456359Y793343D01*
X14453057Y795528D01*
X14450771Y798779D01*
X14449958Y802690D01*
X14450720Y806602D01*
X14452904Y809955D01*
X14456206Y812139D01*
X14460118Y812952D01*
X14622881Y812952D01*
X14626793Y812139D01*
X14630095Y809955D01*
X14632279Y806602D01*
X14633041Y802690D01*
X14632228Y798779D01*
X14629942Y795528D01*
X14626640Y793343D01*
X14619274Y790448D01*
X14606524Y783437D01*
X14594789Y774903D01*
X14584222Y764946D01*
X14574926Y753770D01*
X14567154Y741527D01*
X14561007Y728370D01*
X14556486Y714552D01*
X14553793Y700278D01*
X14552879Y685800D01*
X14553793Y671322D01*
X14556486Y657047D01*
X14561007Y643229D01*
X14567154Y630072D01*
X14574926Y617829D01*
X14584222Y606653D01*
X14594789Y596696D01*
X14606524Y588162D01*
X14619274Y581152D01*
X14632787Y575818D01*
X14646808Y572211D01*
X14661235Y570382D01*
X14675764Y570382D01*
X14690191Y572211D01*
X14704212Y575818D01*
X14717725Y581152D01*
X14730476Y588162D01*
X14742210Y596696D01*
X14752777Y606653D01*
X14762073Y617829D01*
X14769846Y630072D01*
X14775992Y643229D01*
X14780513Y657047D01*
X14783206Y671322D01*
X14784120Y685800D01*
X14783206Y700278D01*
X14780513Y714552D01*
X14775992Y728370D01*
X14769846Y741527D01*
X14762073Y753770D01*
X14752777Y764946D01*
X14742210Y774903D01*
X14730476Y783437D01*
X14717725Y790448D01*
X14710359Y793343D01*
X14707057Y795528D01*
X14704771Y798779D01*
X14703958Y802690D01*
X14704720Y806602D01*
X14706904Y809955D01*
X14710206Y812139D01*
X14714118Y812952D01*
X14876881Y812952D01*
X14880793Y812139D01*
X14884095Y809955D01*
X14886279Y806602D01*
X14887041Y802690D01*
X14886228Y798779D01*
X14883942Y795528D01*
X14880640Y793343D01*
X14873274Y790448D01*
X14860524Y783437D01*
X14848789Y774903D01*
X14838222Y764946D01*
X14828926Y753770D01*
X14821154Y741527D01*
X14815007Y728370D01*
X14810486Y714552D01*
X14807793Y700278D01*
X14806879Y685800D01*
X14807793Y671322D01*
X14810486Y657047D01*
X14815007Y643229D01*
X14821154Y630072D01*
X14828926Y617829D01*
X14838222Y606653D01*
X14848789Y596696D01*
X14860524Y588162D01*
X14873274Y581152D01*
X14886787Y575818D01*
X14900808Y572211D01*
X14915235Y570382D01*
X14929764Y570382D01*
X14944191Y572211D01*
X14958212Y575818D01*
X14971725Y581152D01*
X14984476Y588162D01*
X14996210Y596696D01*
X15006777Y606653D01*
X15016073Y617829D01*
X15023846Y630072D01*
X15029992Y643229D01*
X15034513Y657047D01*
X15037206Y671322D01*
X15038120Y685800D01*
X15037206Y700278D01*
X15034513Y714552D01*
X15029992Y728370D01*
X15023846Y741527D01*
X15016073Y753770D01*
X15006777Y764946D01*
X14996210Y774903D01*
X14984476Y783437D01*
X14971725Y790448D01*
X14964359Y793343D01*
X14961057Y795528D01*
X14958771Y798779D01*
X14957958Y802690D01*
X14958720Y806602D01*
X14960904Y809955D01*
X14964206Y812139D01*
X14968118Y812952D01*
X15130881Y812952D01*
X15134793Y812139D01*
X15138095Y809955D01*
X15140279Y806602D01*
X15141041Y802690D01*
X15140228Y798779D01*
X15137942Y795528D01*
X15134640Y793343D01*
X15127274Y790448D01*
X15114524Y783437D01*
X15102789Y774903D01*
X15092222Y764946D01*
X15082926Y753770D01*
X15075154Y741527D01*
X15069007Y728370D01*
X15064486Y714552D01*
X15061793Y700278D01*
X15060879Y685800D01*
X15061793Y671322D01*
X15064486Y657047D01*
X15069007Y643229D01*
X15075154Y630072D01*
X15082926Y617829D01*
X15092222Y606653D01*
X15102789Y596696D01*
X15114524Y588162D01*
X15127274Y581152D01*
X15140787Y575818D01*
X15154808Y572211D01*
X15169235Y570382D01*
X15183764Y570382D01*
X15198191Y572211D01*
X15212212Y575818D01*
X15225725Y581152D01*
X15238476Y588162D01*
X15250210Y596696D01*
X15260777Y606653D01*
X15270073Y617829D01*
X15277846Y630072D01*
X15283992Y643229D01*
X15288513Y657047D01*
X15291206Y671322D01*
X15292120Y685800D01*
X15291206Y700278D01*
X15288513Y714552D01*
X15283992Y728370D01*
X15277846Y741527D01*
X15270073Y753770D01*
X15260777Y764946D01*
X15250210Y774903D01*
X15238476Y783437D01*
X15225725Y790448D01*
X15218359Y793343D01*
X15215057Y795528D01*
X15212771Y798779D01*
X15211958Y802690D01*
X15212720Y806602D01*
X15214904Y809955D01*
X15218206Y812139D01*
X15222118Y812952D01*
X15384881Y812952D01*
X15388793Y812139D01*
X15392095Y809955D01*
X15394279Y806602D01*
X15395041Y802690D01*
X15394228Y798779D01*
X15391942Y795528D01*
X15388640Y793343D01*
X15381274Y790448D01*
X15368524Y783437D01*
X15356789Y774903D01*
X15346222Y764946D01*
X15336926Y753770D01*
X15329154Y741527D01*
X15323007Y728370D01*
X15318486Y714552D01*
X15315793Y700278D01*
X15314879Y685800D01*
X15315793Y671322D01*
X15318486Y657047D01*
X15323007Y643229D01*
X15329154Y630072D01*
X15336926Y617829D01*
X15346222Y606653D01*
X15356789Y596696D01*
X15368524Y588162D01*
X15381274Y581152D01*
X15394787Y575818D01*
X15408808Y572211D01*
X15423235Y570382D01*
X15437764Y570382D01*
X15452191Y572211D01*
X15466212Y575818D01*
X15479725Y581152D01*
X15492476Y588162D01*
X15504210Y596696D01*
X15514777Y606653D01*
X15524073Y617829D01*
X15531846Y630072D01*
X15537992Y643229D01*
X15542513Y657047D01*
X15545206Y671322D01*
X15546120Y685800D01*
X15545206Y700278D01*
X15542513Y714552D01*
X15537992Y728370D01*
X15531846Y741527D01*
X15524073Y753770D01*
X15514777Y764946D01*
X15504210Y774903D01*
X15492476Y783437D01*
X15479725Y790448D01*
X15472359Y793343D01*
X15469057Y795528D01*
X15466771Y798779D01*
X15465958Y802690D01*
X15466720Y806602D01*
X15468904Y809955D01*
X15472206Y812139D01*
X15476118Y812952D01*
X15638881Y812952D01*
X15642793Y812139D01*
X15646095Y809955D01*
X15648279Y806602D01*
X15649041Y802690D01*
X15648228Y798779D01*
X15645942Y795528D01*
X15642640Y793343D01*
X15635274Y790448D01*
X15622524Y783437D01*
X15610789Y774903D01*
X15600222Y764946D01*
X15590926Y753770D01*
X15583154Y741527D01*
X15577007Y728370D01*
X15572486Y714552D01*
X15569793Y700278D01*
X15568879Y685800D01*
X15569793Y671322D01*
X15572486Y657047D01*
X15577007Y643229D01*
X15583154Y630072D01*
X15590926Y617829D01*
X15600222Y606653D01*
X15610789Y596696D01*
X15622524Y588162D01*
X15635274Y581152D01*
X15648787Y575818D01*
X15662808Y572211D01*
X15677235Y570382D01*
X15691764Y570382D01*
X15706191Y572211D01*
X15720212Y575818D01*
X15733725Y581152D01*
X15746476Y588162D01*
X15758210Y596696D01*
X15768777Y606653D01*
X15778073Y617829D01*
X15785846Y630072D01*
X15791992Y643229D01*
X15796513Y657047D01*
X15799206Y671322D01*
X15800120Y685800D01*
X15799206Y700278D01*
X15796513Y714552D01*
X15791992Y728370D01*
X15785846Y741527D01*
X15778073Y753770D01*
X15768777Y764946D01*
X15758210Y774903D01*
X15746476Y783437D01*
X15733725Y790448D01*
X15726359Y793343D01*
X15723057Y795528D01*
X15720771Y798779D01*
X15719958Y802690D01*
X15720720Y806602D01*
X15722904Y809955D01*
X15726206Y812139D01*
X15730118Y812952D01*
X16715892Y812952D01*
X16719753Y812190D01*
X16723055Y809955D01*
X16725290Y806653D01*
X16726052Y802792D01*
X16726052Y292303D01*
X16726255Y287680D01*
X16726814Y283311D01*
X16727779Y278993D01*
X16729100Y274777D01*
X16730776Y270713D01*
X16732859Y266801D01*
X16735196Y263042D01*
X16737888Y259537D01*
X16741038Y256133D01*
X16964355Y32816D01*
X16966590Y29514D01*
X16967352Y25603D01*
X16967352Y-164896D01*
X16967555Y-169519D01*
X16968114Y-173888D01*
X16969079Y-178206D01*
X16970400Y-182422D01*
X16972076Y-186486D01*
X16974159Y-190398D01*
X16976496Y-194157D01*
X16979188Y-197662D01*
X16989653Y-208381D01*
X16993057Y-211531D01*
X16996562Y-214223D01*
X17000321Y-216560D01*
X17004233Y-218643D01*
X17008297Y-220319D01*
X17012513Y-221640D01*
X17016831Y-222605D01*
X17021200Y-223164D01*
X17025823Y-223367D01*
X17052848Y-223367D01*
X17056963Y-224231D01*
X17060367Y-226720D01*
X17062500Y-230327D01*
X17064837Y-237337D01*
X17067834Y-242163D01*
X17071898Y-246176D01*
X17076674Y-249224D01*
X17079620Y-252018D01*
X17081246Y-255778D01*
X17081246Y-259842D01*
X17079620Y-263601D01*
X17076674Y-266395D01*
X17071898Y-269443D01*
X17067834Y-273456D01*
X17064786Y-278333D01*
X17062907Y-283718D01*
X17062196Y-290017D01*
X17062196Y-309829D01*
X17138650Y-309829D01*
X17138650Y-262026D01*
X17139412Y-258114D01*
X17141647Y-254812D01*
X17144898Y-252628D01*
X17148810Y-251866D01*
X17255490Y-251866D01*
X17259401Y-252628D01*
X17262652Y-254812D01*
X17264888Y-258114D01*
X17265650Y-262026D01*
X17265650Y-309829D01*
X17342104Y-309829D01*
X17342104Y-290017D01*
X17341392Y-283718D01*
X17339513Y-278333D01*
X17336465Y-273456D01*
X17332401Y-269443D01*
X17327626Y-266395D01*
X17324679Y-263601D01*
X17323054Y-259842D01*
X17323054Y-255778D01*
X17324679Y-252018D01*
X17327626Y-249224D01*
X17332401Y-246176D01*
X17336465Y-242163D01*
X17339462Y-237337D01*
X17341799Y-230327D01*
X17343932Y-226720D01*
X17347336Y-224231D01*
X17351451Y-223367D01*
X17388992Y-223367D01*
X17392853Y-224129D01*
X17396155Y-226364D01*
X17398390Y-229666D01*
X17399152Y-233527D01*
X17399152Y-439013D01*
X17398187Y-443280D01*
X17395545Y-446785D01*
X17391684Y-448818D01*
X17387316Y-449021D01*
X17378629Y-447598D01*
X17368570Y-447598D01*
X17358715Y-449224D01*
X17350892Y-451916D01*
X17346422Y-452374D01*
X17342205Y-450900D01*
X17339005Y-447700D01*
X17336465Y-443636D01*
X17332401Y-439623D01*
X17327626Y-436575D01*
X17324679Y-433781D01*
X17323054Y-430022D01*
X17323054Y-425958D01*
X17324679Y-422198D01*
X17327626Y-419404D01*
X17332401Y-416356D01*
X17336465Y-412343D01*
X17339513Y-407466D01*
X17341392Y-402082D01*
X17342104Y-395782D01*
X17342104Y-375970D01*
X17265650Y-375970D01*
X17265650Y-423824D01*
X17264888Y-427685D01*
X17262652Y-430987D01*
X17259401Y-433171D01*
X17255490Y-433984D01*
X17148810Y-433984D01*
X17144898Y-433171D01*
X17141647Y-430987D01*
X17139412Y-427685D01*
X17138650Y-423824D01*
X17138650Y-375970D01*
X17062196Y-375970D01*
X17062196Y-395782D01*
X17062907Y-402082D01*
X17064786Y-407466D01*
X17067834Y-412343D01*
X17071898Y-416356D01*
X17076674Y-419404D01*
X17079620Y-422198D01*
X17081246Y-425958D01*
X17081246Y-430022D01*
X17079620Y-433781D01*
X17076674Y-436575D01*
X17071898Y-439623D01*
X17067834Y-443636D01*
X17064786Y-448513D01*
X17062907Y-453898D01*
X17062196Y-460197D01*
X17062196Y-565962D01*
X17062907Y-572262D01*
X17064786Y-577646D01*
X17067834Y-582523D01*
X17071898Y-586536D01*
X17076674Y-589584D01*
X17079620Y-592378D01*
X17081246Y-596138D01*
X17081246Y-600202D01*
X17079620Y-603961D01*
X17076674Y-606755D01*
X17071898Y-609803D01*
X17067834Y-613816D01*
X17064786Y-618693D01*
X17062907Y-624078D01*
X17062196Y-630377D01*
X17062196Y-695502D01*
X17061434Y-699414D01*
X17059198Y-702665D01*
X16875353Y-886561D01*
X16872051Y-888796D01*
X16868140Y-889558D01*
X16754957Y-889558D01*
X16750842Y-888644D01*
X16747388Y-886155D01*
X16745305Y-882446D01*
X16744899Y-878230D01*
X16745204Y-875334D01*
X16745204Y189534D01*
X16744492Y195783D01*
X16742613Y201218D01*
X16739565Y206044D01*
X16735501Y210108D01*
X16730675Y213156D01*
X16725239Y215036D01*
X16718991Y215747D01*
X15831108Y215747D01*
X15824860Y215036D01*
X15819424Y213156D01*
X15814598Y210108D01*
X15810534Y206044D01*
X15807486Y201218D01*
X15805607Y195783D01*
X15804896Y189534D01*
X15804896Y-875334D01*
X15805607Y-881583D01*
X15807486Y-887018D01*
X15810534Y-891844D01*
X15814598Y-895908D01*
X15819424Y-898956D01*
X15824860Y-900836D01*
X15831108Y-901547D01*
X15922193Y-901547D01*
X15926511Y-902512D01*
X15930067Y-905256D01*
X15932048Y-909218D01*
X15932150Y-913688D01*
X15930372Y-917752D01*
X15926816Y-922578D01*
X15923768Y-927353D01*
X15921126Y-932383D01*
X15918891Y-937564D01*
X15917011Y-942898D01*
X15915538Y-948385D01*
X15914522Y-953922D01*
X15913862Y-959561D01*
X15913658Y-965403D01*
X15913658Y-3495040D01*
X15912896Y-3498951D01*
X15910661Y-3502253D01*
X15833953Y-3578961D01*
X15830651Y-3581196D01*
X15826740Y-3581958D01*
X12773660Y-3581958D01*
X12769748Y-3581196D01*
X12766446Y-3578961D01*
X12409627Y-3222142D01*
X12407442Y-3218840D01*
X12406680Y-3214979D01*
X12406680Y-2724505D01*
X12407442Y-2720644D01*
X12409627Y-2717342D01*
X12412929Y-2715107D01*
X12416840Y-2714345D01*
X12444933Y-2714345D01*
X12451181Y-2713634D01*
X12456617Y-2711754D01*
X12461443Y-2708706D01*
X12465507Y-2704642D01*
X12468555Y-2699816D01*
X12470434Y-2694381D01*
X12471146Y-2688132D01*
X12471146Y-2417267D01*
X12470434Y-2411018D01*
X12468555Y-2405583D01*
X12465507Y-2400757D01*
X12461443Y-2396693D01*
X12456617Y-2393645D01*
X12451181Y-2391765D01*
X12444933Y-2391054D01*
X12416840Y-2391054D01*
X12412929Y-2390292D01*
X12409627Y-2388057D01*
X12407442Y-2384755D01*
X12406680Y-2380894D01*
X12406680Y-2216505D01*
X12407442Y-2212644D01*
X12409627Y-2209342D01*
X12412929Y-2207107D01*
X12416840Y-2206345D01*
X12444933Y-2206345D01*
X12451181Y-2205634D01*
X12456617Y-2203754D01*
X12461443Y-2200706D01*
X12465507Y-2196642D01*
X12468555Y-2191816D01*
X12470434Y-2186381D01*
X12471146Y-2180132D01*
X12471146Y-1909267D01*
X12470434Y-1903018D01*
X12468555Y-1897583D01*
X12465507Y-1892757D01*
X12461443Y-1888693D01*
X12456617Y-1885645D01*
X12451181Y-1883765D01*
X12444933Y-1883054D01*
X12416840Y-1883054D01*
X12412929Y-1882292D01*
X12409627Y-1880057D01*
X12407442Y-1876755D01*
X12406680Y-1872894D01*
X12406579Y-1761947D01*
X12405766Y-1753158D01*
X12405360Y-1750720D01*
X12403226Y-1742135D01*
X12402464Y-1739798D01*
X12397994Y-1729435D01*
X12393422Y-1721815D01*
X12391999Y-1719834D01*
X12386310Y-1713026D01*
X11346230Y-672846D01*
X11344605Y-670712D01*
X11343589Y-668172D01*
X11341506Y-660146D01*
X11336172Y-646633D01*
X11329162Y-633882D01*
X11320627Y-622147D01*
X11310670Y-611581D01*
X11299494Y-602284D01*
X11287252Y-594512D01*
X11274094Y-588365D01*
X11260277Y-583844D01*
X11246002Y-581152D01*
X11231219Y-580186D01*
X11011865Y-580186D01*
X10997031Y-581152D01*
X10982756Y-583844D01*
X10968939Y-588365D01*
X10955832Y-594512D01*
X10943539Y-602284D01*
X10932363Y-611581D01*
X10922457Y-622147D01*
X10913872Y-633882D01*
X10906912Y-646633D01*
X10901578Y-660146D01*
X10897920Y-674166D01*
X10896142Y-688594D01*
X10896142Y-703122D01*
X10897920Y-717550D01*
X10901578Y-731570D01*
X10906912Y-745083D01*
X10913872Y-757834D01*
X10922457Y-769569D01*
X10932363Y-780135D01*
X10943539Y-789432D01*
X10955832Y-797204D01*
X10968939Y-803351D01*
X10982756Y-807872D01*
X10997031Y-810564D01*
X11011865Y-811530D01*
X11231219Y-811530D01*
X11246002Y-810564D01*
X11260886Y-807770D01*
X11264138Y-807669D01*
X11267287Y-808634D01*
X11269929Y-810564D01*
X12252350Y-1792986D01*
X12254585Y-1796237D01*
X12255347Y-1800148D01*
X12255347Y-1872894D01*
X12254585Y-1876755D01*
X12252350Y-1880057D01*
X12249099Y-1882292D01*
X12245187Y-1883054D01*
X12217095Y-1883054D01*
X12210796Y-1883765D01*
X12205411Y-1885645D01*
X12200534Y-1888693D01*
X12196521Y-1892757D01*
X12193473Y-1897583D01*
X12191542Y-1903018D01*
X12190831Y-1909267D01*
X12190831Y-2180132D01*
X12191542Y-2186381D01*
X12193473Y-2191816D01*
X12196521Y-2196642D01*
X12200534Y-2200706D01*
X12205411Y-2203754D01*
X12210796Y-2205634D01*
X12217095Y-2206345D01*
X12245187Y-2206345D01*
X12249099Y-2207107D01*
X12252350Y-2209342D01*
X12254585Y-2212644D01*
X12255347Y-2216505D01*
X12255347Y-2380894D01*
X12254585Y-2384755D01*
X12252350Y-2388057D01*
X12249099Y-2390292D01*
X12245187Y-2391054D01*
X12217095Y-2391054D01*
X12210796Y-2391765D01*
X12205411Y-2393645D01*
X12200534Y-2396693D01*
X12196521Y-2400757D01*
X12193473Y-2405583D01*
X12191542Y-2411018D01*
X12190831Y-2417267D01*
X12190831Y-2688132D01*
X12191542Y-2694381D01*
X12193473Y-2699816D01*
X12196521Y-2704642D01*
X12200534Y-2708706D01*
X12205411Y-2711754D01*
X12210796Y-2713634D01*
X12217095Y-2714345D01*
X12245187Y-2714345D01*
X12249099Y-2715107D01*
X12252350Y-2717342D01*
X12254585Y-2720644D01*
X12255347Y-2724505D01*
X12255398Y-3253130D01*
X12256211Y-3261969D01*
X12256617Y-3264357D01*
X12258751Y-3272993D01*
X12259513Y-3275329D01*
X12262916Y-3283508D01*
X12264034Y-3285693D01*
X12268606Y-3293262D01*
X12270028Y-3295294D01*
X12275667Y-3302101D01*
X12686487Y-3712921D01*
X12695326Y-3719982D01*
X12702895Y-3724554D01*
X12705130Y-3725672D01*
X12713309Y-3729075D01*
X12715595Y-3729837D01*
X12724231Y-3731971D01*
X12726619Y-3732377D01*
X12735458Y-3733190D01*
X15864941Y-3733190D01*
X15873780Y-3732377D01*
X15876168Y-3731971D01*
X15884804Y-3729837D01*
X15887090Y-3729075D01*
X15895269Y-3725672D01*
X15897504Y-3724554D01*
X15905073Y-3719982D01*
X15913912Y-3712921D01*
X16044621Y-3582212D01*
X16051682Y-3573373D01*
X16056254Y-3565804D01*
X16057372Y-3563569D01*
X16060775Y-3555390D01*
X16061537Y-3553104D01*
X16063671Y-3544468D01*
X16064077Y-3542080D01*
X16064890Y-3533241D01*
X16064941Y-1051001D01*
X16065703Y-1047140D01*
X16067938Y-1043838D01*
X16071240Y-1041603D01*
X16075101Y-1040841D01*
X16239591Y-1040841D01*
X16243452Y-1041603D01*
X16246754Y-1043838D01*
X16248989Y-1047140D01*
X16249751Y-1051001D01*
X16249751Y-1371549D01*
X16250462Y-1377797D01*
X16252342Y-1383233D01*
X16255390Y-1388059D01*
X16259454Y-1392123D01*
X16264280Y-1395171D01*
X16269716Y-1397050D01*
X16275964Y-1397762D01*
X16774820Y-1397762D01*
X16781068Y-1397050D01*
X16786504Y-1395171D01*
X16791330Y-1392123D01*
X16795394Y-1388059D01*
X16798442Y-1383233D01*
X16800322Y-1377797D01*
X16801033Y-1371549D01*
X16801033Y-1270355D01*
X16801846Y-1266494D01*
X16804030Y-1263192D01*
X16807332Y-1260957D01*
X16811193Y-1260195D01*
X16963948Y-1260195D01*
X16968571Y-1259992D01*
X16972940Y-1259433D01*
X16977258Y-1258468D01*
X16981474Y-1257147D01*
X16985538Y-1255471D01*
X16989450Y-1253388D01*
X16993209Y-1251051D01*
X16996714Y-1248359D01*
X17000118Y-1245209D01*
X17485461Y-759866D01*
X17488611Y-756462D01*
X17491303Y-752957D01*
X17493640Y-749198D01*
X17495723Y-745286D01*
X17497399Y-741222D01*
X17498720Y-737006D01*
X17499685Y-732688D01*
X17500244Y-728319D01*
X17500447Y-723696D01*
X17500447Y-233527D01*
X17501209Y-229666D01*
X17503444Y-226364D01*
X17506746Y-224129D01*
X17510607Y-223367D01*
X17807482Y-223367D01*
X17812105Y-223164D01*
X17816474Y-222605D01*
X17820792Y-221640D01*
X17825008Y-220319D01*
X17829072Y-218643D01*
X17834813Y-215341D01*
X17838521Y-213766D01*
X17842534Y-213715D01*
X17855133Y-216255D01*
X17868900Y-217119D01*
X17882666Y-216255D01*
X17896230Y-213563D01*
X17909336Y-209092D01*
X17921732Y-202996D01*
X17933212Y-195326D01*
X17943576Y-186182D01*
X17952720Y-175818D01*
X17960390Y-164338D01*
X17966486Y-151942D01*
X17970957Y-138836D01*
X17973649Y-125272D01*
X17974513Y-111506D01*
X17973649Y-97739D01*
X17970957Y-84175D01*
X17966486Y-71069D01*
X17960390Y-58674D01*
X17952720Y-47193D01*
X17943576Y-36830D01*
X17933212Y-27686D01*
X17921732Y-20015D01*
X17909336Y-13919D01*
X17896230Y-9448D01*
X17882666Y-6756D01*
X17868900Y-5892D01*
X17855133Y-6756D01*
X17841569Y-9448D01*
X17828463Y-13919D01*
X17816068Y-20015D01*
X17804587Y-27686D01*
X17794224Y-36830D01*
X17785080Y-47193D01*
X17777409Y-58674D01*
X17771313Y-71069D01*
X17766842Y-84175D01*
X17764150Y-97688D01*
X17763236Y-112522D01*
X17762321Y-116230D01*
X17760086Y-119329D01*
X17756835Y-121361D01*
X17753126Y-122072D01*
X17351451Y-122072D01*
X17347336Y-121208D01*
X17343932Y-118719D01*
X17341799Y-115112D01*
X17339462Y-108102D01*
X17336465Y-103276D01*
X17332401Y-99263D01*
X17327626Y-96215D01*
X17324679Y-93421D01*
X17323054Y-89662D01*
X17323054Y-85598D01*
X17324679Y-81838D01*
X17327626Y-79044D01*
X17332401Y-75996D01*
X17336465Y-71983D01*
X17339513Y-67106D01*
X17341392Y-61722D01*
X17342104Y-55422D01*
X17342104Y-35610D01*
X17265650Y-35610D01*
X17265650Y-83464D01*
X17264888Y-87325D01*
X17262652Y-90627D01*
X17259401Y-92811D01*
X17255490Y-93624D01*
X17148810Y-93624D01*
X17144898Y-92811D01*
X17141647Y-90627D01*
X17139412Y-87325D01*
X17138650Y-83464D01*
X17138650Y-35610D01*
X17078807Y-35610D01*
X17074946Y-34848D01*
X17071644Y-32664D01*
X17069409Y-29362D01*
X17068647Y-25450D01*
X17068647Y20370D01*
X17069409Y24282D01*
X17071644Y27584D01*
X17074946Y29768D01*
X17078807Y30530D01*
X17138650Y30530D01*
X17138650Y76555D01*
X17088408Y76555D01*
X17082160Y75895D01*
X17076724Y73964D01*
X17071949Y71882D01*
X17067987Y71983D01*
X17064380Y73558D01*
X17061688Y76454D01*
X17059503Y79857D01*
X17056811Y83362D01*
X17053661Y86766D01*
X16830344Y310083D01*
X16828109Y313385D01*
X16827347Y317296D01*
X16827347Y863142D01*
X16826534Y872388D01*
X16825569Y875944D01*
X16825315Y879652D01*
X16826331Y883208D01*
X16828617Y886155D01*
X16831767Y888085D01*
X16835424Y888746D01*
X18493486Y888746D01*
X18497397Y887984D01*
X18500648Y885748D01*
X18502884Y882497D01*
X18503646Y878586D01*
X18503646Y-4663186D01*
X18502884Y-4667097D01*
X18500648Y-4670348D01*
X18497397Y-4672584D01*
X18493486Y-4673346D01*
X12903911Y-4673346D01*
X12899999Y-4672533D01*
X12896646Y-4670298D01*
X12894462Y-4666945D01*
X12893751Y-4662982D01*
X12894665Y-4659071D01*
X12896951Y-4655769D01*
X12901879Y-4651146D01*
X12911175Y-4639970D01*
X12918948Y-4627727D01*
X12925094Y-4614570D01*
X12929616Y-4600752D01*
X12932308Y-4586478D01*
X12933222Y-4572000D01*
X12932308Y-4557522D01*
X12929616Y-4543247D01*
X12925094Y-4529429D01*
X12918948Y-4516272D01*
X12911175Y-4504029D01*
X12901879Y-4492853D01*
X12891312Y-4482896D01*
X12879578Y-4474362D01*
X12866827Y-4467352D01*
X12853314Y-4462018D01*
X12839293Y-4458411D01*
X12824866Y-4456582D01*
X12810337Y-4456582D01*
X12795910Y-4458411D01*
X12781889Y-4462018D01*
X12768376Y-4467352D01*
X12755626Y-4474362D01*
X12743891Y-4482896D01*
X12733324Y-4492853D01*
X12724028Y-4504029D01*
X12716256Y-4516272D01*
X12710109Y-4529429D01*
X12705588Y-4543247D01*
X12702895Y-4557522D01*
X12701981Y-4572000D01*
X12702895Y-4586478D01*
X12705588Y-4600752D01*
X12710109Y-4614570D01*
X12716256Y-4627727D01*
X12724028Y-4639970D01*
X12733324Y-4651146D01*
X12738252Y-4655769D01*
X12740538Y-4659071D01*
X12741452Y-4662982D01*
X12740741Y-4666945D01*
X12738557Y-4670298D01*
X12735204Y-4672533D01*
X12731292Y-4673346D01*
X12363907Y-4673346D01*
X12359995Y-4672533D01*
X12356642Y-4670298D01*
X12354458Y-4666945D01*
X12353747Y-4662982D01*
X12354661Y-4659071D01*
X12356947Y-4655769D01*
X12361875Y-4651146D01*
X12371171Y-4639970D01*
X12378944Y-4627727D01*
X12385090Y-4614570D01*
X12389612Y-4600752D01*
X12392304Y-4586478D01*
X12393218Y-4572000D01*
X12392304Y-4557522D01*
X12389612Y-4543247D01*
X12385090Y-4529429D01*
X12378944Y-4516272D01*
X12371171Y-4504029D01*
X12361875Y-4492853D01*
X12351308Y-4482896D01*
X12339574Y-4474362D01*
X12326823Y-4467352D01*
X12313310Y-4462018D01*
X12299289Y-4458411D01*
X12284862Y-4456582D01*
X12270333Y-4456582D01*
X12255906Y-4458411D01*
X12241885Y-4462018D01*
X12228372Y-4467352D01*
X12215622Y-4474362D01*
X12203887Y-4482896D01*
X12193320Y-4492853D01*
X12184024Y-4504029D01*
X12176252Y-4516272D01*
X12170105Y-4529429D01*
X12165584Y-4543247D01*
X12162891Y-4557522D01*
X12161977Y-4572000D01*
X12162891Y-4586478D01*
X12165584Y-4600752D01*
X12170105Y-4614570D01*
X12176252Y-4627727D01*
X12184024Y-4639970D01*
X12193320Y-4651146D01*
X12198248Y-4655769D01*
X12200534Y-4659071D01*
X12201448Y-4662982D01*
X12200737Y-4666945D01*
X12198553Y-4670298D01*
X12195200Y-4672533D01*
X12191288Y-4673346D01*
G37*

%LPC*%
G36*
X10752378Y-432003D02*
G01*
X10752378Y-324866D01*
X10688116Y-324866D01*
X10688116Y-328218D01*
X10689031Y-343001D01*
X10691774Y-357276D01*
X10696244Y-371094D01*
X10702442Y-384251D01*
X10710214Y-396494D01*
X10719460Y-407670D01*
X10730026Y-417626D01*
X10741812Y-426161D01*
G37*
G36*
X10851235Y570382D02*
G01*
X10865764Y570382D01*
X10880191Y572211D01*
X10894212Y575818D01*
X10907725Y581152D01*
X10920476Y588162D01*
X10932210Y596696D01*
X10942777Y606653D01*
X10952073Y617829D01*
X10959846Y630072D01*
X10965992Y643229D01*
X10970514Y657047D01*
X10973206Y671322D01*
X10974120Y685800D01*
X10973206Y700278D01*
X10970514Y714552D01*
X10965992Y728370D01*
X10959846Y741527D01*
X10952073Y753770D01*
X10942777Y764946D01*
X10932210Y774903D01*
X10920476Y783437D01*
X10907725Y790448D01*
X10894212Y795782D01*
X10880191Y799388D01*
X10865764Y801217D01*
X10851235Y801217D01*
X10836808Y799388D01*
X10822787Y795782D01*
X10809274Y790448D01*
X10796524Y783437D01*
X10784789Y774903D01*
X10774222Y764946D01*
X10764926Y753770D01*
X10757154Y741527D01*
X10751007Y728370D01*
X10746486Y714552D01*
X10743793Y700278D01*
X10742879Y685800D01*
X10743793Y671322D01*
X10746486Y657047D01*
X10751007Y643229D01*
X10757154Y630072D01*
X10764926Y617829D01*
X10774222Y606653D01*
X10784789Y596696D01*
X10796524Y588162D01*
X10809274Y581152D01*
X10822787Y575818D01*
X10836808Y572211D01*
G37*
G36*
X16162782Y-4506468D02*
G01*
X16180104Y-4506010D01*
X16197326Y-4503724D01*
X16214191Y-4499610D01*
X16230549Y-4493717D01*
X16246144Y-4486097D01*
X16260876Y-4476902D01*
X16274542Y-4466183D01*
X16286988Y-4454042D01*
X16298062Y-4440682D01*
X16307663Y-4426204D01*
X16315639Y-4410811D01*
X16321989Y-4394657D01*
X16326561Y-4377893D01*
X16329304Y-4360722D01*
X16330218Y-4343400D01*
X16329304Y-4326077D01*
X16326561Y-4308906D01*
X16321989Y-4292142D01*
X16315639Y-4275988D01*
X16307663Y-4260596D01*
X16298062Y-4246118D01*
X16286988Y-4232757D01*
X16274542Y-4220616D01*
X16260876Y-4209897D01*
X16246144Y-4200702D01*
X16230549Y-4193082D01*
X16214191Y-4187190D01*
X16197326Y-4183075D01*
X16180104Y-4180789D01*
X16162782Y-4180332D01*
X16145459Y-4181703D01*
X16128390Y-4184904D01*
X16111778Y-4189933D01*
X16095776Y-4196689D01*
X16080587Y-4205122D01*
X16066363Y-4215079D01*
X16053307Y-4226509D01*
X16041522Y-4239260D01*
X16031159Y-4253230D01*
X16022319Y-4268165D01*
X16015157Y-4284014D01*
X16009721Y-4300474D01*
X16006013Y-4317441D01*
X16004184Y-4334713D01*
X16004184Y-4352086D01*
X16006013Y-4369358D01*
X16009721Y-4386326D01*
X16015157Y-4402785D01*
X16022319Y-4418634D01*
X16031159Y-4433570D01*
X16041522Y-4447540D01*
X16053307Y-4460290D01*
X16066363Y-4471720D01*
X16080587Y-4481677D01*
X16095776Y-4490110D01*
X16111778Y-4496866D01*
X16128390Y-4501896D01*
X16145459Y-4505096D01*
G37*
G36*
X10367162Y-4503775D02*
G01*
X10384536Y-4503318D01*
X10401757Y-4500981D01*
X10418622Y-4496866D01*
X10434929Y-4490974D01*
X10450576Y-4483404D01*
X10465257Y-4474159D01*
X10478922Y-4463440D01*
X10491368Y-4451350D01*
X10502442Y-4437989D01*
X10512044Y-4423511D01*
X10520070Y-4408068D01*
X10526369Y-4391914D01*
X10530941Y-4375150D01*
X10533735Y-4358030D01*
X10534650Y-4340707D01*
X10533735Y-4323334D01*
X10530941Y-4306214D01*
X10526369Y-4289450D01*
X10520070Y-4273296D01*
X10512044Y-4257852D01*
X10502442Y-4243374D01*
X10491368Y-4230014D01*
X10478922Y-4217924D01*
X10465257Y-4207205D01*
X10450576Y-4197959D01*
X10434929Y-4190390D01*
X10418622Y-4184497D01*
X10401757Y-4180382D01*
X10384536Y-4178046D01*
X10367162Y-4177588D01*
X10349839Y-4178960D01*
X10332770Y-4182211D01*
X10316159Y-4187240D01*
X10300157Y-4193946D01*
X10284968Y-4202379D01*
X10270744Y-4212386D01*
X10257688Y-4223816D01*
X10245902Y-4236567D01*
X10235539Y-4250486D01*
X10226751Y-4265472D01*
X10219588Y-4281271D01*
X10214102Y-4297781D01*
X10210444Y-4314748D01*
X10208615Y-4332020D01*
X10208615Y-4349343D01*
X10210444Y-4366615D01*
X10214102Y-4383582D01*
X10219588Y-4400092D01*
X10226751Y-4415891D01*
X10235539Y-4430877D01*
X10245902Y-4444796D01*
X10257688Y-4457547D01*
X10270744Y-4468977D01*
X10284968Y-4478985D01*
X10300157Y-4487418D01*
X10316159Y-4494123D01*
X10332770Y-4499152D01*
X10349839Y-4502404D01*
G37*
G36*
X12810337Y-4382617D02*
G01*
X12824866Y-4382617D01*
X12839293Y-4380788D01*
X12853314Y-4377182D01*
X12866827Y-4371848D01*
X12879578Y-4364837D01*
X12891312Y-4356303D01*
X12901879Y-4346346D01*
X12911175Y-4335170D01*
X12918948Y-4322927D01*
X12925094Y-4309770D01*
X12929616Y-4295952D01*
X12932308Y-4281678D01*
X12933222Y-4267200D01*
X12932308Y-4252722D01*
X12929616Y-4238447D01*
X12925094Y-4224629D01*
X12918948Y-4211472D01*
X12911175Y-4199229D01*
X12901879Y-4188053D01*
X12891312Y-4178096D01*
X12879578Y-4169562D01*
X12866827Y-4162551D01*
X12853314Y-4157218D01*
X12839293Y-4153611D01*
X12824866Y-4151782D01*
X12810337Y-4151782D01*
X12795910Y-4153611D01*
X12781889Y-4157218D01*
X12768376Y-4162551D01*
X12755626Y-4169562D01*
X12743891Y-4178096D01*
X12733324Y-4188053D01*
X12724028Y-4199229D01*
X12716256Y-4211472D01*
X12710109Y-4224629D01*
X12705588Y-4238447D01*
X12702895Y-4252722D01*
X12701981Y-4267200D01*
X12702895Y-4281678D01*
X12705588Y-4295952D01*
X12710109Y-4309770D01*
X12716256Y-4322927D01*
X12724028Y-4335170D01*
X12733324Y-4346346D01*
X12743891Y-4356303D01*
X12755626Y-4364837D01*
X12768376Y-4371848D01*
X12781889Y-4377182D01*
X12795910Y-4380788D01*
G37*
G36*
X12270333Y-4382617D02*
G01*
X12284862Y-4382617D01*
X12299289Y-4380788D01*
X12313310Y-4377182D01*
X12326823Y-4371848D01*
X12339574Y-4364837D01*
X12351308Y-4356303D01*
X12361875Y-4346346D01*
X12371171Y-4335170D01*
X12378944Y-4322927D01*
X12385090Y-4309770D01*
X12389612Y-4295952D01*
X12392304Y-4281678D01*
X12393218Y-4267200D01*
X12392304Y-4252722D01*
X12389612Y-4238447D01*
X12385090Y-4224629D01*
X12378944Y-4211472D01*
X12371171Y-4199229D01*
X12361875Y-4188053D01*
X12351308Y-4178096D01*
X12339574Y-4169562D01*
X12326823Y-4162551D01*
X12313310Y-4157218D01*
X12299289Y-4153611D01*
X12284862Y-4151782D01*
X12270333Y-4151782D01*
X12255906Y-4153611D01*
X12241885Y-4157218D01*
X12228372Y-4162551D01*
X12215622Y-4169562D01*
X12203887Y-4178096D01*
X12193320Y-4188053D01*
X12184024Y-4199229D01*
X12176252Y-4211472D01*
X12170105Y-4224629D01*
X12165584Y-4238447D01*
X12162891Y-4252722D01*
X12161977Y-4267200D01*
X12162891Y-4281678D01*
X12165584Y-4295952D01*
X12170105Y-4309770D01*
X12176252Y-4322927D01*
X12184024Y-4335170D01*
X12193320Y-4346346D01*
X12203887Y-4356303D01*
X12215622Y-4364837D01*
X12228372Y-4371848D01*
X12241885Y-4377182D01*
X12255906Y-4380788D01*
G37*
G36*
X11771122Y483158D02*
G01*
X11823141Y483158D01*
X11823141Y535279D01*
X11812524Y529437D01*
X11800789Y520903D01*
X11790222Y510946D01*
X11780926Y499770D01*
X11773154Y487527D01*
G37*
G36*
X10796574Y-3681679D02*
G01*
X11015827Y-3681679D01*
X11028375Y-3680764D01*
X11040313Y-3678174D01*
X11051794Y-3673906D01*
X11062512Y-3668014D01*
X11072266Y-3660698D01*
X11080902Y-3652062D01*
X11088217Y-3642309D01*
X11094110Y-3631590D01*
X11098377Y-3620109D01*
X11100968Y-3608171D01*
X11101832Y-3595979D01*
X11100968Y-3583838D01*
X11098377Y-3571900D01*
X11094110Y-3560419D01*
X11088217Y-3549700D01*
X11080902Y-3539947D01*
X11072266Y-3531311D01*
X11062512Y-3523945D01*
X11051794Y-3518103D01*
X11040313Y-3513836D01*
X11028375Y-3511245D01*
X11015827Y-3510330D01*
X10796574Y-3510330D01*
X10784027Y-3511245D01*
X10772089Y-3513836D01*
X10760608Y-3518103D01*
X10749889Y-3523945D01*
X10740136Y-3531311D01*
X10731500Y-3539947D01*
X10724184Y-3549700D01*
X10718292Y-3560419D01*
X10714024Y-3571900D01*
X10711434Y-3583838D01*
X10710570Y-3595979D01*
X10711434Y-3608171D01*
X10714024Y-3620109D01*
X10718292Y-3631590D01*
X10724184Y-3642309D01*
X10731500Y-3652062D01*
X10740136Y-3660698D01*
X10749889Y-3668014D01*
X10760608Y-3673906D01*
X10772089Y-3678174D01*
X10784027Y-3680764D01*
G37*
G36*
X11925858Y483158D02*
G01*
X11977878Y483158D01*
X11975846Y487527D01*
X11968073Y499770D01*
X11958777Y510946D01*
X11948210Y520903D01*
X11936476Y529437D01*
X11925858Y535279D01*
G37*
G36*
X14224000Y-3532632D02*
G01*
X14278813Y-3531666D01*
X14333524Y-3528669D01*
X14388134Y-3523640D01*
X14442490Y-3516680D01*
X14496592Y-3507689D01*
X14550288Y-3496767D01*
X14603577Y-3483864D01*
X14656358Y-3469030D01*
X14708530Y-3452266D01*
X14760092Y-3433622D01*
X14810892Y-3413099D01*
X14860981Y-3390747D01*
X14910155Y-3366617D01*
X14958466Y-3340658D01*
X15005761Y-3312922D01*
X15051989Y-3283559D01*
X15097150Y-3252470D01*
X15141143Y-3219754D01*
X15183916Y-3185464D01*
X15207335Y-3165246D01*
X15211044Y-3163214D01*
X15215311Y-3162858D01*
X15219324Y-3164281D01*
X15222372Y-3167227D01*
X15223998Y-3171190D01*
X15223845Y-3175406D01*
X15221000Y-3186633D01*
X15218105Y-3206140D01*
X15217140Y-3225800D01*
X15218105Y-3245459D01*
X15221000Y-3264966D01*
X15225776Y-3284067D01*
X15232430Y-3302558D01*
X15240863Y-3320389D01*
X15250972Y-3337255D01*
X15262707Y-3353104D01*
X15275915Y-3367684D01*
X15290495Y-3380892D01*
X15306344Y-3392627D01*
X15323210Y-3402736D01*
X15341041Y-3411169D01*
X15359532Y-3417824D01*
X15378633Y-3422599D01*
X15398140Y-3425494D01*
X15417800Y-3426460D01*
X15437459Y-3425494D01*
X15456966Y-3422599D01*
X15476067Y-3417824D01*
X15494558Y-3411169D01*
X15512389Y-3402736D01*
X15529255Y-3392627D01*
X15545104Y-3380892D01*
X15559684Y-3367684D01*
X15572892Y-3353104D01*
X15584627Y-3337255D01*
X15594736Y-3320389D01*
X15603169Y-3302558D01*
X15609824Y-3284067D01*
X15614599Y-3264966D01*
X15617494Y-3245459D01*
X15618460Y-3225800D01*
X15617494Y-3206140D01*
X15614599Y-3186633D01*
X15609824Y-3167532D01*
X15603169Y-3149041D01*
X15594736Y-3131210D01*
X15584627Y-3114344D01*
X15572892Y-3098495D01*
X15559684Y-3083915D01*
X15545104Y-3070707D01*
X15529255Y-3058972D01*
X15512389Y-3048863D01*
X15494558Y-3040430D01*
X15476067Y-3033776D01*
X15456966Y-3029000D01*
X15437459Y-3026105D01*
X15417800Y-3025140D01*
X15398140Y-3026105D01*
X15378633Y-3029000D01*
X15367406Y-3031845D01*
X15363190Y-3031998D01*
X15359227Y-3030372D01*
X15356281Y-3027324D01*
X15354858Y-3023311D01*
X15355214Y-3019044D01*
X15357246Y-3015335D01*
X15377464Y-2991916D01*
X15411754Y-2949143D01*
X15444469Y-2905150D01*
X15475559Y-2859989D01*
X15504922Y-2813761D01*
X15532658Y-2766466D01*
X15558617Y-2718155D01*
X15582747Y-2668981D01*
X15605099Y-2618892D01*
X15625622Y-2568092D01*
X15644266Y-2516530D01*
X15661030Y-2464358D01*
X15675863Y-2411577D01*
X15688767Y-2358288D01*
X15699689Y-2304592D01*
X15708680Y-2250490D01*
X15715640Y-2196134D01*
X15720669Y-2141524D01*
X15723666Y-2086813D01*
X15724632Y-2032000D01*
X15723666Y-1977186D01*
X15720669Y-1922475D01*
X15715640Y-1867865D01*
X15708680Y-1813509D01*
X15699689Y-1759407D01*
X15688767Y-1705711D01*
X15675863Y-1652422D01*
X15661030Y-1599641D01*
X15644266Y-1547469D01*
X15625622Y-1495907D01*
X15605099Y-1445107D01*
X15582747Y-1395018D01*
X15558617Y-1345844D01*
X15532658Y-1297533D01*
X15504922Y-1250238D01*
X15475559Y-1204010D01*
X15444469Y-1158849D01*
X15411754Y-1114856D01*
X15377464Y-1072083D01*
X15357246Y-1048664D01*
X15355214Y-1044956D01*
X15354858Y-1040688D01*
X15356281Y-1036675D01*
X15359227Y-1033627D01*
X15363190Y-1032002D01*
X15367406Y-1032154D01*
X15378633Y-1034999D01*
X15398140Y-1037894D01*
X15417800Y-1038860D01*
X15437459Y-1037894D01*
X15456966Y-1034999D01*
X15476067Y-1030224D01*
X15494558Y-1023569D01*
X15512389Y-1015136D01*
X15529255Y-1005027D01*
X15545104Y-993292D01*
X15559684Y-980084D01*
X15572892Y-965504D01*
X15584627Y-949655D01*
X15594736Y-932789D01*
X15603169Y-914958D01*
X15609824Y-896467D01*
X15614599Y-877366D01*
X15617494Y-857859D01*
X15618460Y-838200D01*
X15617494Y-818540D01*
X15614599Y-799033D01*
X15609824Y-779932D01*
X15603169Y-761441D01*
X15594736Y-743610D01*
X15584627Y-726744D01*
X15572892Y-710895D01*
X15559684Y-696315D01*
X15545104Y-683107D01*
X15529255Y-671372D01*
X15512389Y-661263D01*
X15494558Y-652830D01*
X15476067Y-646176D01*
X15456966Y-641400D01*
X15437459Y-638505D01*
X15417800Y-637540D01*
X15398140Y-638505D01*
X15378633Y-641400D01*
X15359532Y-646176D01*
X15341041Y-652830D01*
X15323210Y-661263D01*
X15306344Y-671372D01*
X15290495Y-683107D01*
X15275915Y-696315D01*
X15262707Y-710895D01*
X15250972Y-726744D01*
X15240863Y-743610D01*
X15232430Y-761441D01*
X15225776Y-779932D01*
X15221000Y-799033D01*
X15218105Y-818540D01*
X15217140Y-838200D01*
X15218105Y-857859D01*
X15221000Y-877366D01*
X15223845Y-888593D01*
X15223998Y-892810D01*
X15222372Y-896772D01*
X15219324Y-899718D01*
X15215311Y-901141D01*
X15211044Y-900785D01*
X15207335Y-898753D01*
X15183916Y-878535D01*
X15141143Y-844245D01*
X15097150Y-811530D01*
X15051989Y-780440D01*
X15005761Y-751078D01*
X14958466Y-723341D01*
X14910155Y-697382D01*
X14860981Y-673252D01*
X14810892Y-650900D01*
X14760092Y-630377D01*
X14708530Y-611733D01*
X14656358Y-594969D01*
X14603577Y-580136D01*
X14550288Y-567232D01*
X14496592Y-556310D01*
X14442490Y-547319D01*
X14388134Y-540359D01*
X14333524Y-535330D01*
X14278813Y-532333D01*
X14224000Y-531368D01*
X14169186Y-532333D01*
X14114475Y-535330D01*
X14059865Y-540359D01*
X14005509Y-547319D01*
X13951407Y-556310D01*
X13897711Y-567232D01*
X13844422Y-580136D01*
X13791641Y-594969D01*
X13739469Y-611733D01*
X13687907Y-630377D01*
X13637107Y-650900D01*
X13587018Y-673252D01*
X13537844Y-697382D01*
X13489533Y-723341D01*
X13442238Y-751078D01*
X13396010Y-780440D01*
X13350849Y-811530D01*
X13306856Y-844245D01*
X13264083Y-878535D01*
X13240664Y-898753D01*
X13236956Y-900785D01*
X13232688Y-901141D01*
X13228675Y-899718D01*
X13225627Y-896772D01*
X13224001Y-892810D01*
X13224154Y-888593D01*
X13226999Y-877366D01*
X13229894Y-857859D01*
X13230860Y-838200D01*
X13229894Y-818540D01*
X13226999Y-799033D01*
X13222224Y-779932D01*
X13215569Y-761441D01*
X13207136Y-743610D01*
X13197027Y-726744D01*
X13185292Y-710895D01*
X13172084Y-696315D01*
X13157504Y-683107D01*
X13141655Y-671372D01*
X13124789Y-661263D01*
X13106958Y-652830D01*
X13088467Y-646176D01*
X13069366Y-641400D01*
X13049859Y-638505D01*
X13030200Y-637540D01*
X13010540Y-638505D01*
X12991033Y-641400D01*
X12971932Y-646176D01*
X12953441Y-652830D01*
X12935610Y-661263D01*
X12918744Y-671372D01*
X12902895Y-683107D01*
X12888315Y-696315D01*
X12875107Y-710895D01*
X12863372Y-726744D01*
X12853263Y-743610D01*
X12844830Y-761441D01*
X12838176Y-779932D01*
X12833400Y-799033D01*
X12830505Y-818540D01*
X12829540Y-838200D01*
X12830505Y-857859D01*
X12833400Y-877366D01*
X12838176Y-896467D01*
X12844830Y-914958D01*
X12853263Y-932789D01*
X12863372Y-949655D01*
X12875107Y-965504D01*
X12888315Y-980084D01*
X12902895Y-993292D01*
X12918744Y-1005027D01*
X12935610Y-1015136D01*
X12953441Y-1023569D01*
X12971932Y-1030224D01*
X12991033Y-1034999D01*
X13010540Y-1037894D01*
X13030200Y-1038860D01*
X13049859Y-1037894D01*
X13069366Y-1034999D01*
X13080593Y-1032154D01*
X13084810Y-1032002D01*
X13088772Y-1033627D01*
X13091718Y-1036675D01*
X13093141Y-1040688D01*
X13092785Y-1044956D01*
X13090753Y-1048664D01*
X13070535Y-1072083D01*
X13036245Y-1114856D01*
X13003530Y-1158849D01*
X12972440Y-1204010D01*
X12943078Y-1250238D01*
X12915341Y-1297533D01*
X12889382Y-1345844D01*
X12865252Y-1395018D01*
X12842900Y-1445107D01*
X12822377Y-1495907D01*
X12803733Y-1547469D01*
X12786969Y-1599641D01*
X12772136Y-1652422D01*
X12759232Y-1705711D01*
X12748310Y-1759407D01*
X12739319Y-1813509D01*
X12732359Y-1867865D01*
X12727330Y-1922475D01*
X12724333Y-1977186D01*
X12723368Y-2032000D01*
X12724333Y-2086813D01*
X12727330Y-2141524D01*
X12732359Y-2196134D01*
X12739319Y-2250490D01*
X12748310Y-2304592D01*
X12759232Y-2358288D01*
X12772136Y-2411577D01*
X12786969Y-2464358D01*
X12803733Y-2516530D01*
X12822377Y-2568092D01*
X12842900Y-2618892D01*
X12865252Y-2668981D01*
X12889382Y-2718155D01*
X12915341Y-2766466D01*
X12943078Y-2813761D01*
X12972440Y-2859989D01*
X13003530Y-2905150D01*
X13036245Y-2949143D01*
X13070535Y-2991916D01*
X13090753Y-3015335D01*
X13092785Y-3019044D01*
X13093141Y-3023311D01*
X13091718Y-3027324D01*
X13088772Y-3030372D01*
X13084810Y-3031998D01*
X13080593Y-3031845D01*
X13069366Y-3029000D01*
X13049859Y-3026105D01*
X13030200Y-3025140D01*
X13010540Y-3026105D01*
X12991033Y-3029000D01*
X12971932Y-3033776D01*
X12953441Y-3040430D01*
X12935610Y-3048863D01*
X12918744Y-3058972D01*
X12902895Y-3070707D01*
X12888315Y-3083915D01*
X12875107Y-3098495D01*
X12863372Y-3114344D01*
X12853263Y-3131210D01*
X12844830Y-3149041D01*
X12838176Y-3167532D01*
X12833400Y-3186633D01*
X12830505Y-3206140D01*
X12829540Y-3225800D01*
X12830505Y-3245459D01*
X12833400Y-3264966D01*
X12838176Y-3284067D01*
X12844830Y-3302558D01*
X12853263Y-3320389D01*
X12863372Y-3337255D01*
X12875107Y-3353104D01*
X12888315Y-3367684D01*
X12902895Y-3380892D01*
X12918744Y-3392627D01*
X12935610Y-3402736D01*
X12953441Y-3411169D01*
X12971932Y-3417824D01*
X12991033Y-3422599D01*
X13010540Y-3425494D01*
X13030200Y-3426460D01*
X13049859Y-3425494D01*
X13069366Y-3422599D01*
X13088467Y-3417824D01*
X13106958Y-3411169D01*
X13124789Y-3402736D01*
X13141655Y-3392627D01*
X13157504Y-3380892D01*
X13172084Y-3367684D01*
X13185292Y-3353104D01*
X13197027Y-3337255D01*
X13207136Y-3320389D01*
X13215569Y-3302558D01*
X13222224Y-3284067D01*
X13226999Y-3264966D01*
X13229894Y-3245459D01*
X13230860Y-3225800D01*
X13229894Y-3206140D01*
X13226999Y-3186633D01*
X13224154Y-3175406D01*
X13224001Y-3171190D01*
X13225627Y-3167227D01*
X13228675Y-3164281D01*
X13232688Y-3162858D01*
X13236956Y-3163214D01*
X13240664Y-3165246D01*
X13264083Y-3185464D01*
X13306856Y-3219754D01*
X13350849Y-3252470D01*
X13396010Y-3283559D01*
X13442238Y-3312922D01*
X13489533Y-3340658D01*
X13537844Y-3366617D01*
X13587018Y-3390747D01*
X13637107Y-3413099D01*
X13687907Y-3433622D01*
X13739469Y-3452266D01*
X13791641Y-3469030D01*
X13844422Y-3483864D01*
X13897711Y-3496767D01*
X13951407Y-3507689D01*
X14005509Y-3516680D01*
X14059865Y-3523640D01*
X14114475Y-3528669D01*
X14169186Y-3531666D01*
G37*
G36*
X11326774Y-3486708D02*
G01*
X11409883Y-3486708D01*
X11409883Y-3377437D01*
X11300561Y-3377437D01*
X11300561Y-3460496D01*
X11301272Y-3466744D01*
X11303152Y-3472179D01*
X11306200Y-3477006D01*
X11310264Y-3481070D01*
X11315141Y-3484118D01*
X11320526Y-3485997D01*
G37*
G36*
X11602567Y-3486708D02*
G01*
X11685676Y-3486708D01*
X11691924Y-3485997D01*
X11697309Y-3484118D01*
X11702186Y-3481070D01*
X11706250Y-3477006D01*
X11709298Y-3472179D01*
X11711178Y-3466744D01*
X11711889Y-3460496D01*
X11711889Y-3377437D01*
X11602567Y-3377437D01*
G37*
G36*
X10367162Y396240D02*
G01*
X10384536Y396697D01*
X10401757Y398983D01*
X10418622Y403098D01*
X10434929Y408990D01*
X10450576Y416610D01*
X10465257Y425805D01*
X10478922Y436524D01*
X10491368Y448665D01*
X10502442Y462026D01*
X10512044Y476504D01*
X10520070Y491896D01*
X10526369Y508050D01*
X10530941Y524814D01*
X10533735Y541985D01*
X10534650Y559308D01*
X10533735Y576630D01*
X10530941Y593801D01*
X10526369Y610565D01*
X10520070Y626719D01*
X10512044Y642112D01*
X10502442Y656590D01*
X10491368Y669950D01*
X10478922Y682091D01*
X10465257Y692810D01*
X10450576Y702005D01*
X10434929Y709625D01*
X10418622Y715518D01*
X10401757Y719632D01*
X10384536Y721918D01*
X10367162Y722376D01*
X10349839Y721004D01*
X10332770Y717804D01*
X10316159Y712774D01*
X10300157Y706018D01*
X10284968Y697585D01*
X10270744Y687628D01*
X10257688Y676198D01*
X10245902Y663448D01*
X10235539Y649478D01*
X10226751Y634542D01*
X10219588Y618693D01*
X10214102Y602234D01*
X10210444Y585266D01*
X10208615Y567994D01*
X10208615Y550621D01*
X10210444Y533349D01*
X10214102Y516382D01*
X10219588Y499922D01*
X10226751Y484073D01*
X10235539Y469138D01*
X10245902Y455168D01*
X10257688Y442417D01*
X10270744Y430987D01*
X10284968Y421030D01*
X10300157Y412597D01*
X10316159Y405841D01*
X10332770Y400812D01*
X10349839Y397611D01*
G37*
G36*
X16162782Y395732D02*
G01*
X16180104Y396189D01*
X16197326Y398475D01*
X16214191Y402590D01*
X16230549Y408482D01*
X16246144Y416102D01*
X16260876Y425297D01*
X16274542Y436016D01*
X16286988Y448157D01*
X16298062Y461518D01*
X16307663Y475996D01*
X16315639Y491388D01*
X16321989Y507542D01*
X16326561Y524306D01*
X16329304Y541477D01*
X16330218Y558800D01*
X16329304Y576122D01*
X16326561Y593293D01*
X16321989Y610057D01*
X16315639Y626211D01*
X16307663Y641604D01*
X16298062Y656082D01*
X16286988Y669442D01*
X16274542Y681583D01*
X16260876Y692302D01*
X16246144Y701497D01*
X16230549Y709117D01*
X16214191Y715010D01*
X16197326Y719124D01*
X16180104Y721410D01*
X16162782Y721868D01*
X16145459Y720496D01*
X16128390Y717296D01*
X16111778Y712266D01*
X16095776Y705510D01*
X16080587Y697077D01*
X16066363Y687120D01*
X16053307Y675690D01*
X16041522Y662940D01*
X16031159Y648970D01*
X16022319Y634034D01*
X16015157Y618185D01*
X16009721Y601726D01*
X16006013Y584758D01*
X16004184Y567486D01*
X16004184Y550113D01*
X16006013Y532841D01*
X16009721Y515874D01*
X16015157Y499414D01*
X16022319Y483565D01*
X16031159Y468630D01*
X16041522Y454659D01*
X16053307Y441909D01*
X16066363Y430479D01*
X16080587Y420522D01*
X16095776Y412089D01*
X16111778Y405333D01*
X16128390Y400304D01*
X16145459Y397103D01*
G37*
G36*
X11602567Y-3184702D02*
G01*
X11711889Y-3184702D01*
X11711889Y-3101644D01*
X11711178Y-3095396D01*
X11709298Y-3089960D01*
X11706250Y-3085134D01*
X11702186Y-3081070D01*
X11697309Y-3078022D01*
X11691924Y-3076143D01*
X11685676Y-3075432D01*
X11602567Y-3075432D01*
G37*
G36*
X11300561Y-3184702D02*
G01*
X11409883Y-3184702D01*
X11409883Y-3075432D01*
X11326774Y-3075432D01*
X11320526Y-3076143D01*
X11315141Y-3078022D01*
X11310264Y-3081070D01*
X11306200Y-3085134D01*
X11303152Y-3089960D01*
X11301272Y-3095396D01*
X11300561Y-3101644D01*
G37*
G36*
X11925858Y328320D02*
G01*
X11936476Y334162D01*
X11948210Y342696D01*
X11958777Y352653D01*
X11968073Y363829D01*
X11975846Y376072D01*
X11977878Y380441D01*
X11925858Y380441D01*
G37*
G36*
X11823141Y328320D02*
G01*
X11823141Y380441D01*
X11771122Y380441D01*
X11773154Y376072D01*
X11780926Y363829D01*
X11790222Y352653D01*
X11800789Y342696D01*
X11812524Y334162D01*
G37*
G36*
X11326774Y-2766669D02*
G01*
X11685625Y-2766669D01*
X11691874Y-2765958D01*
X11697309Y-2764078D01*
X11702135Y-2761030D01*
X11706199Y-2756966D01*
X11709247Y-2752090D01*
X11711127Y-2746705D01*
X11711838Y-2740456D01*
X11711838Y-2646832D01*
X11712651Y-2642920D01*
X11714835Y-2639618D01*
X11718137Y-2637434D01*
X11721998Y-2636672D01*
X11775694Y-2636672D01*
X11779554Y-2637434D01*
X11782856Y-2639618D01*
X11785092Y-2642920D01*
X11785854Y-2646832D01*
X11785854Y-2688132D01*
X11786565Y-2694381D01*
X11788444Y-2699816D01*
X11791492Y-2704642D01*
X11795556Y-2708706D01*
X11800382Y-2711754D01*
X11805818Y-2713634D01*
X11812066Y-2714345D01*
X12039955Y-2714345D01*
X12046204Y-2713634D01*
X12051588Y-2711754D01*
X12056465Y-2708706D01*
X12060529Y-2704642D01*
X12063577Y-2699816D01*
X12065457Y-2694381D01*
X12066168Y-2688132D01*
X12066168Y-2417267D01*
X12065457Y-2411018D01*
X12063577Y-2405583D01*
X12060529Y-2400757D01*
X12056465Y-2396693D01*
X12051588Y-2393645D01*
X12046204Y-2391765D01*
X12039955Y-2391054D01*
X11812066Y-2391054D01*
X11805818Y-2391765D01*
X11800382Y-2393645D01*
X11795556Y-2396693D01*
X11791492Y-2400757D01*
X11788444Y-2405583D01*
X11786565Y-2411018D01*
X11785854Y-2417267D01*
X11785854Y-2475179D01*
X11785092Y-2479090D01*
X11782856Y-2482392D01*
X11779554Y-2484577D01*
X11775694Y-2485339D01*
X11721998Y-2485339D01*
X11718137Y-2484577D01*
X11714835Y-2482392D01*
X11712651Y-2479090D01*
X11711838Y-2475179D01*
X11711838Y-2381554D01*
X11711127Y-2375306D01*
X11709247Y-2369921D01*
X11706199Y-2365044D01*
X11702135Y-2360980D01*
X11697309Y-2357932D01*
X11691874Y-2356053D01*
X11685625Y-2355342D01*
X11326774Y-2355342D01*
X11320526Y-2356053D01*
X11315090Y-2357932D01*
X11310264Y-2360980D01*
X11306200Y-2365044D01*
X11303152Y-2369921D01*
X11301272Y-2375306D01*
X11300561Y-2381554D01*
X11300561Y-2740456D01*
X11301272Y-2746705D01*
X11303152Y-2752090D01*
X11306200Y-2756966D01*
X11310264Y-2761030D01*
X11315090Y-2764078D01*
X11320526Y-2765958D01*
G37*
G36*
X16295979Y-2737764D02*
G01*
X16794835Y-2737764D01*
X16801084Y-2737053D01*
X16806519Y-2735122D01*
X16811345Y-2732074D01*
X16815409Y-2728061D01*
X16818457Y-2723184D01*
X16820337Y-2717800D01*
X16821048Y-2711500D01*
X16821048Y-2610408D01*
X16821810Y-2606548D01*
X16824045Y-2603246D01*
X16827296Y-2601010D01*
X16831208Y-2600248D01*
X17333366Y-2600248D01*
X17337989Y-2600045D01*
X17342408Y-2599486D01*
X17346726Y-2598521D01*
X17350892Y-2597200D01*
X17355007Y-2595524D01*
X17358918Y-2593441D01*
X17362627Y-2591104D01*
X17366132Y-2588412D01*
X17369586Y-2585262D01*
X17412614Y-2542184D01*
X17415662Y-2540101D01*
X17419218Y-2539238D01*
X17422825Y-2539695D01*
X17432426Y-2542692D01*
X17447361Y-2545435D01*
X17462500Y-2546350D01*
X17477638Y-2545435D01*
X17492573Y-2542692D01*
X17507051Y-2538171D01*
X17520869Y-2531922D01*
X17533874Y-2524099D01*
X17545812Y-2514752D01*
X17556530Y-2504033D01*
X17565878Y-2492044D01*
X17573752Y-2479090D01*
X17579949Y-2465273D01*
X17584470Y-2450744D01*
X17587214Y-2435860D01*
X17588128Y-2420721D01*
X17587214Y-2405532D01*
X17584470Y-2390648D01*
X17579949Y-2376170D01*
X17573752Y-2362301D01*
X17565878Y-2349347D01*
X17556530Y-2337409D01*
X17545812Y-2326640D01*
X17533874Y-2317292D01*
X17520869Y-2309469D01*
X17507051Y-2303221D01*
X17492573Y-2298700D01*
X17477638Y-2295956D01*
X17462500Y-2295042D01*
X17447361Y-2295956D01*
X17432426Y-2298700D01*
X17417948Y-2303221D01*
X17404130Y-2309469D01*
X17391126Y-2317292D01*
X17379188Y-2326640D01*
X17368469Y-2337409D01*
X17359122Y-2349347D01*
X17351248Y-2362301D01*
X17345050Y-2376170D01*
X17340529Y-2390648D01*
X17337786Y-2405532D01*
X17336871Y-2420721D01*
X17337786Y-2435860D01*
X17340529Y-2450744D01*
X17343526Y-2460345D01*
X17343932Y-2464003D01*
X17343069Y-2467559D01*
X17340986Y-2470556D01*
X17315586Y-2495956D01*
X17312284Y-2498191D01*
X17308423Y-2498953D01*
X16831208Y-2498953D01*
X16827296Y-2498191D01*
X16824045Y-2495956D01*
X16821810Y-2492654D01*
X16821048Y-2488793D01*
X16821048Y-2387650D01*
X16820337Y-2381402D01*
X16818457Y-2375966D01*
X16815409Y-2371140D01*
X16811345Y-2367076D01*
X16806519Y-2364028D01*
X16801084Y-2362149D01*
X16794835Y-2361438D01*
X16295979Y-2361438D01*
X16289680Y-2362149D01*
X16284295Y-2364028D01*
X16279418Y-2367076D01*
X16275405Y-2371140D01*
X16272357Y-2375966D01*
X16270427Y-2381402D01*
X16269766Y-2387650D01*
X16269766Y-2711500D01*
X16270427Y-2717800D01*
X16272357Y-2723184D01*
X16275405Y-2728061D01*
X16279418Y-2732074D01*
X16284295Y-2735122D01*
X16289680Y-2737053D01*
G37*
G36*
X13645235Y316382D02*
G01*
X13659764Y316382D01*
X13674191Y318211D01*
X13688212Y321818D01*
X13701725Y327152D01*
X13714476Y334162D01*
X13726210Y342696D01*
X13736777Y352653D01*
X13746073Y363829D01*
X13753846Y376072D01*
X13759992Y389229D01*
X13764513Y403047D01*
X13767206Y417322D01*
X13768120Y431800D01*
X13767206Y446278D01*
X13764513Y460552D01*
X13759992Y474370D01*
X13753846Y487527D01*
X13746073Y499770D01*
X13736777Y510946D01*
X13726210Y520903D01*
X13714476Y529437D01*
X13701725Y536448D01*
X13688212Y541782D01*
X13674191Y545388D01*
X13659764Y547217D01*
X13645235Y547217D01*
X13630808Y545388D01*
X13616787Y541782D01*
X13603274Y536448D01*
X13590524Y529437D01*
X13578789Y520903D01*
X13568222Y510946D01*
X13558926Y499770D01*
X13551154Y487527D01*
X13545007Y474370D01*
X13540486Y460552D01*
X13537793Y446278D01*
X13536879Y431800D01*
X13537793Y417322D01*
X13540486Y403047D01*
X13545007Y389229D01*
X13551154Y376072D01*
X13558926Y363829D01*
X13568222Y352653D01*
X13578789Y342696D01*
X13590524Y334162D01*
X13603274Y327152D01*
X13616787Y321818D01*
X13630808Y318211D01*
G37*
G36*
X14407235Y316382D02*
G01*
X14421764Y316382D01*
X14436191Y318211D01*
X14450212Y321818D01*
X14463725Y327152D01*
X14476476Y334162D01*
X14488210Y342696D01*
X14498777Y352653D01*
X14508073Y363829D01*
X14515846Y376072D01*
X14521992Y389229D01*
X14526513Y403047D01*
X14529206Y417322D01*
X14530120Y431800D01*
X14529206Y446278D01*
X14526513Y460552D01*
X14521992Y474370D01*
X14515846Y487527D01*
X14508073Y499770D01*
X14498777Y510946D01*
X14488210Y520903D01*
X14476476Y529437D01*
X14463725Y536448D01*
X14450212Y541782D01*
X14436191Y545388D01*
X14421764Y547217D01*
X14407235Y547217D01*
X14392808Y545388D01*
X14378787Y541782D01*
X14365274Y536448D01*
X14352524Y529437D01*
X14340789Y520903D01*
X14330222Y510946D01*
X14320926Y499770D01*
X14313154Y487527D01*
X14307007Y474370D01*
X14302486Y460552D01*
X14299793Y446278D01*
X14298879Y431800D01*
X14299793Y417322D01*
X14302486Y403047D01*
X14307007Y389229D01*
X14313154Y376072D01*
X14320926Y363829D01*
X14330222Y352653D01*
X14340789Y342696D01*
X14352524Y334162D01*
X14365274Y327152D01*
X14378787Y321818D01*
X14392808Y318211D01*
G37*
G36*
X13391235Y316382D02*
G01*
X13405764Y316382D01*
X13420191Y318211D01*
X13434212Y321818D01*
X13447725Y327152D01*
X13460476Y334162D01*
X13472210Y342696D01*
X13482777Y352653D01*
X13492073Y363829D01*
X13499846Y376072D01*
X13505992Y389229D01*
X13510513Y403047D01*
X13513206Y417322D01*
X13514120Y431800D01*
X13513206Y446278D01*
X13510513Y460552D01*
X13505992Y474370D01*
X13499846Y487527D01*
X13492073Y499770D01*
X13482777Y510946D01*
X13472210Y520903D01*
X13460476Y529437D01*
X13447725Y536448D01*
X13434212Y541782D01*
X13420191Y545388D01*
X13405764Y547217D01*
X13391235Y547217D01*
X13376808Y545388D01*
X13362787Y541782D01*
X13349274Y536448D01*
X13336524Y529437D01*
X13324789Y520903D01*
X13314222Y510946D01*
X13304926Y499770D01*
X13297154Y487527D01*
X13291007Y474370D01*
X13286486Y460552D01*
X13283793Y446278D01*
X13282879Y431800D01*
X13283793Y417322D01*
X13286486Y403047D01*
X13291007Y389229D01*
X13297154Y376072D01*
X13304926Y363829D01*
X13314222Y352653D01*
X13324789Y342696D01*
X13336524Y334162D01*
X13349274Y327152D01*
X13362787Y321818D01*
X13376808Y318211D01*
G37*
G36*
X14661235Y316382D02*
G01*
X14675764Y316382D01*
X14690191Y318211D01*
X14704212Y321818D01*
X14717725Y327152D01*
X14730476Y334162D01*
X14742210Y342696D01*
X14752777Y352653D01*
X14762073Y363829D01*
X14769846Y376072D01*
X14775992Y389229D01*
X14780513Y403047D01*
X14783206Y417322D01*
X14784120Y431800D01*
X14783206Y446278D01*
X14780513Y460552D01*
X14775992Y474370D01*
X14769846Y487527D01*
X14762073Y499770D01*
X14752777Y510946D01*
X14742210Y520903D01*
X14730476Y529437D01*
X14717725Y536448D01*
X14704212Y541782D01*
X14690191Y545388D01*
X14675764Y547217D01*
X14661235Y547217D01*
X14646808Y545388D01*
X14632787Y541782D01*
X14619274Y536448D01*
X14606524Y529437D01*
X14594789Y520903D01*
X14584222Y510946D01*
X14574926Y499770D01*
X14567154Y487527D01*
X14561007Y474370D01*
X14556486Y460552D01*
X14553793Y446278D01*
X14552879Y431800D01*
X14553793Y417322D01*
X14556486Y403047D01*
X14561007Y389229D01*
X14567154Y376072D01*
X14574926Y363829D01*
X14584222Y352653D01*
X14594789Y342696D01*
X14606524Y334162D01*
X14619274Y327152D01*
X14632787Y321818D01*
X14646808Y318211D01*
G37*
G36*
X10796574Y-2331669D02*
G01*
X11015827Y-2331669D01*
X11028375Y-2330754D01*
X11040313Y-2328164D01*
X11051794Y-2323896D01*
X11062512Y-2318054D01*
X11072266Y-2310688D01*
X11080902Y-2302052D01*
X11088217Y-2292299D01*
X11094110Y-2281580D01*
X11098377Y-2270099D01*
X11100968Y-2258161D01*
X11101832Y-2246020D01*
X11100968Y-2233828D01*
X11098377Y-2221890D01*
X11094110Y-2210409D01*
X11088217Y-2199690D01*
X11080902Y-2189937D01*
X11072266Y-2181301D01*
X11062512Y-2173986D01*
X11051794Y-2168093D01*
X11040313Y-2163826D01*
X11028375Y-2161235D01*
X11015827Y-2160371D01*
X10796574Y-2160371D01*
X10784027Y-2161235D01*
X10772089Y-2163826D01*
X10760608Y-2168093D01*
X10749889Y-2173986D01*
X10740136Y-2181301D01*
X10731500Y-2189937D01*
X10724184Y-2199690D01*
X10718292Y-2210409D01*
X10714024Y-2221890D01*
X10711434Y-2233828D01*
X10710570Y-2246020D01*
X10711434Y-2258161D01*
X10714024Y-2270099D01*
X10718292Y-2281580D01*
X10724184Y-2292299D01*
X10731500Y-2302052D01*
X10740136Y-2310688D01*
X10749889Y-2318054D01*
X10760608Y-2323896D01*
X10772089Y-2328164D01*
X10784027Y-2330754D01*
G37*
G36*
X11812066Y-2206345D02*
G01*
X12039955Y-2206345D01*
X12046204Y-2205634D01*
X12051588Y-2203754D01*
X12056465Y-2200706D01*
X12060529Y-2196642D01*
X12063577Y-2191816D01*
X12065457Y-2186381D01*
X12066168Y-2180132D01*
X12066168Y-1909267D01*
X12065457Y-1903018D01*
X12063577Y-1897583D01*
X12060529Y-1892757D01*
X12056465Y-1888693D01*
X12051588Y-1885645D01*
X12046204Y-1883765D01*
X12039955Y-1883054D01*
X11875566Y-1883054D01*
X11871655Y-1882292D01*
X11868353Y-1880057D01*
X11809831Y-1821637D01*
X11803024Y-1815998D01*
X11801043Y-1814575D01*
X11793423Y-1810004D01*
X11791238Y-1808886D01*
X11783060Y-1805482D01*
X11780723Y-1804720D01*
X11772138Y-1802587D01*
X11769699Y-1802180D01*
X11760911Y-1801368D01*
X11323218Y-1801317D01*
X11319154Y-1800453D01*
X11315801Y-1798116D01*
X11310670Y-1792681D01*
X11299494Y-1783384D01*
X11287252Y-1775612D01*
X11274094Y-1769465D01*
X11260277Y-1764944D01*
X11246002Y-1762252D01*
X11231219Y-1761286D01*
X11011865Y-1761286D01*
X10997031Y-1762252D01*
X10982756Y-1764944D01*
X10968939Y-1769465D01*
X10955832Y-1775612D01*
X10943539Y-1783384D01*
X10932363Y-1792681D01*
X10922457Y-1803247D01*
X10913872Y-1814982D01*
X10906912Y-1827733D01*
X10901578Y-1841246D01*
X10897920Y-1855266D01*
X10896142Y-1869693D01*
X10896142Y-1884222D01*
X10897920Y-1898650D01*
X10901578Y-1912670D01*
X10906912Y-1926183D01*
X10913872Y-1938934D01*
X10922457Y-1950669D01*
X10932363Y-1961235D01*
X10943539Y-1970532D01*
X10955832Y-1978304D01*
X10968939Y-1984451D01*
X10982756Y-1988972D01*
X10997031Y-1991664D01*
X11011865Y-1992630D01*
X11231219Y-1992630D01*
X11246002Y-1991664D01*
X11260277Y-1988972D01*
X11274094Y-1984451D01*
X11287252Y-1978304D01*
X11299494Y-1970532D01*
X11310670Y-1961235D01*
X11315801Y-1955800D01*
X11319154Y-1953463D01*
X11323218Y-1952599D01*
X11722709Y-1952599D01*
X11726621Y-1953361D01*
X11729872Y-1955596D01*
X11782856Y-2008581D01*
X11785092Y-2011883D01*
X11785854Y-2015743D01*
X11785854Y-2180132D01*
X11786565Y-2186381D01*
X11788444Y-2191816D01*
X11791492Y-2196642D01*
X11795556Y-2200706D01*
X11800382Y-2203754D01*
X11805818Y-2205634D01*
G37*
G36*
X14153235Y316382D02*
G01*
X14167764Y316382D01*
X14182191Y318211D01*
X14196212Y321818D01*
X14209725Y327152D01*
X14222476Y334162D01*
X14234210Y342696D01*
X14244777Y352653D01*
X14254073Y363829D01*
X14261846Y376072D01*
X14267992Y389229D01*
X14272513Y403047D01*
X14275206Y417322D01*
X14276120Y431800D01*
X14275206Y446278D01*
X14272513Y460552D01*
X14267992Y474370D01*
X14261846Y487527D01*
X14254073Y499770D01*
X14244777Y510946D01*
X14234210Y520903D01*
X14222476Y529437D01*
X14209725Y536448D01*
X14196212Y541782D01*
X14182191Y545388D01*
X14167764Y547217D01*
X14153235Y547217D01*
X14138808Y545388D01*
X14124787Y541782D01*
X14111274Y536448D01*
X14098524Y529437D01*
X14086789Y520903D01*
X14076222Y510946D01*
X14066926Y499770D01*
X14059154Y487527D01*
X14053007Y474370D01*
X14048486Y460552D01*
X14045793Y446278D01*
X14044879Y431800D01*
X14045793Y417322D01*
X14048486Y403047D01*
X14053007Y389229D01*
X14059154Y376072D01*
X14066926Y363829D01*
X14076222Y352653D01*
X14086789Y342696D01*
X14098524Y334162D01*
X14111274Y327152D01*
X14124787Y321818D01*
X14138808Y318211D01*
G37*
G36*
X11413998Y-1625041D02*
G01*
X11428526Y-1625041D01*
X11442903Y-1623212D01*
X11456974Y-1619605D01*
X11470487Y-1614271D01*
X11483187Y-1607261D01*
X11494973Y-1598726D01*
X11505539Y-1588770D01*
X11514785Y-1577594D01*
X11522557Y-1565351D01*
X11528755Y-1552194D01*
X11533225Y-1538376D01*
X11535968Y-1524101D01*
X11536883Y-1509318D01*
X11536883Y-1289964D01*
X11535968Y-1275130D01*
X11533225Y-1260856D01*
X11528755Y-1247038D01*
X11522557Y-1233932D01*
X11514785Y-1221638D01*
X11505539Y-1210462D01*
X11494973Y-1200556D01*
X11483187Y-1191971D01*
X11470487Y-1185011D01*
X11456974Y-1179677D01*
X11442903Y-1176020D01*
X11428526Y-1174242D01*
X11413998Y-1174242D01*
X11399570Y-1176020D01*
X11385499Y-1179677D01*
X11372037Y-1185011D01*
X11359286Y-1191971D01*
X11347551Y-1200556D01*
X11336934Y-1210462D01*
X11327688Y-1221638D01*
X11319916Y-1233932D01*
X11313718Y-1247038D01*
X11309248Y-1260856D01*
X11306505Y-1275130D01*
X11305590Y-1289964D01*
X11305590Y-1509318D01*
X11306505Y-1524101D01*
X11309248Y-1538376D01*
X11313718Y-1552194D01*
X11319916Y-1565351D01*
X11327688Y-1577594D01*
X11336934Y-1588770D01*
X11347551Y-1598726D01*
X11359286Y-1607261D01*
X11372037Y-1614271D01*
X11385499Y-1619605D01*
X11399570Y-1623212D01*
G37*
G36*
X10752378Y-1613103D02*
G01*
X10752378Y-1505966D01*
X10688116Y-1505966D01*
X10688116Y-1509318D01*
X10689031Y-1524101D01*
X10691774Y-1538376D01*
X10696244Y-1552194D01*
X10702442Y-1565351D01*
X10710214Y-1577594D01*
X10719460Y-1588770D01*
X10730026Y-1598726D01*
X10741812Y-1607261D01*
G37*
G36*
X10855096Y-1613103D02*
G01*
X10865713Y-1607261D01*
X10877448Y-1598726D01*
X10888065Y-1588770D01*
X10897311Y-1577594D01*
X10905083Y-1565351D01*
X10911281Y-1552194D01*
X10915751Y-1538376D01*
X10918494Y-1524101D01*
X10919409Y-1509318D01*
X10919409Y-1505966D01*
X10855096Y-1505966D01*
G37*
G36*
X11105235Y316382D02*
G01*
X11119764Y316382D01*
X11134191Y318211D01*
X11148212Y321818D01*
X11161725Y327152D01*
X11174476Y334162D01*
X11186210Y342696D01*
X11196777Y352653D01*
X11206073Y363829D01*
X11213846Y376072D01*
X11219992Y389229D01*
X11224514Y403047D01*
X11227206Y417322D01*
X11228120Y431800D01*
X11227206Y446278D01*
X11224514Y460552D01*
X11219992Y474370D01*
X11213846Y487527D01*
X11206073Y499770D01*
X11196777Y510946D01*
X11186210Y520903D01*
X11174476Y529437D01*
X11161725Y536448D01*
X11148212Y541782D01*
X11134191Y545388D01*
X11119764Y547217D01*
X11105235Y547217D01*
X11090808Y545388D01*
X11076787Y541782D01*
X11063274Y536448D01*
X11050524Y529437D01*
X11038789Y520903D01*
X11028222Y510946D01*
X11018926Y499770D01*
X11011154Y487527D01*
X11005007Y474370D01*
X11000486Y460552D01*
X10997793Y446278D01*
X10996879Y431800D01*
X10997793Y417322D01*
X11000486Y403047D01*
X11005007Y389229D01*
X11011154Y376072D01*
X11018926Y363829D01*
X11028222Y352653D01*
X11038789Y342696D01*
X11050524Y334162D01*
X11063274Y327152D01*
X11076787Y321818D01*
X11090808Y318211D01*
G37*
G36*
X10688116Y-1293266D02*
G01*
X10752378Y-1293266D01*
X10752378Y-1186180D01*
X10741812Y-1191971D01*
X10730026Y-1200556D01*
X10719460Y-1210462D01*
X10710214Y-1221638D01*
X10702442Y-1233932D01*
X10696244Y-1247038D01*
X10691774Y-1260856D01*
X10689031Y-1275130D01*
X10688116Y-1289964D01*
G37*
G36*
X10855096Y-1293266D02*
G01*
X10919409Y-1293266D01*
X10919409Y-1289964D01*
X10918494Y-1275130D01*
X10915751Y-1260856D01*
X10911281Y-1247038D01*
X10905083Y-1233932D01*
X10897311Y-1221638D01*
X10888065Y-1210462D01*
X10877448Y-1200556D01*
X10865713Y-1191971D01*
X10855096Y-1186180D01*
G37*
G36*
X17518837Y-1272844D02*
G01*
X17520869Y-1271930D01*
X17533874Y-1264107D01*
X17545812Y-1254760D01*
X17556530Y-1243990D01*
X17565878Y-1232052D01*
X17573752Y-1219098D01*
X17574666Y-1217066D01*
X17518837Y-1217066D01*
G37*
G36*
X17406162Y-1272844D02*
G01*
X17406162Y-1217066D01*
X17350333Y-1217066D01*
X17351248Y-1219098D01*
X17359122Y-1232052D01*
X17368469Y-1243990D01*
X17379188Y-1254760D01*
X17391126Y-1264107D01*
X17404130Y-1271930D01*
G37*
G36*
X17350333Y-1104341D02*
G01*
X17406162Y-1104341D01*
X17406162Y-1048562D01*
X17404130Y-1049477D01*
X17391126Y-1057300D01*
X17379188Y-1066647D01*
X17368469Y-1077366D01*
X17359122Y-1089355D01*
X17351248Y-1102309D01*
G37*
G36*
X17518837Y-1104341D02*
G01*
X17574666Y-1104341D01*
X17573752Y-1102309D01*
X17565878Y-1089355D01*
X17556530Y-1077366D01*
X17545812Y-1066647D01*
X17533874Y-1057300D01*
X17520869Y-1049477D01*
X17518837Y-1048562D01*
G37*
G36*
X12071350Y-1070864D02*
G01*
X12160250Y-1070864D01*
X12166498Y-1070152D01*
X12171883Y-1068273D01*
X12176760Y-1065225D01*
X12180824Y-1061161D01*
X12183872Y-1056284D01*
X12185751Y-1050899D01*
X12186462Y-1044651D01*
X12186462Y-885748D01*
X12185751Y-879500D01*
X12183872Y-874115D01*
X12180824Y-869238D01*
X12176760Y-865174D01*
X12171883Y-862126D01*
X12166498Y-860247D01*
X12160250Y-859536D01*
X12071350Y-859536D01*
X12065101Y-860247D01*
X12059716Y-862126D01*
X12054840Y-865174D01*
X12050776Y-869238D01*
X12048337Y-873150D01*
X12045289Y-876249D01*
X12041276Y-877773D01*
X12036958Y-877519D01*
X12033148Y-875487D01*
X12031014Y-873658D01*
X12028373Y-870203D01*
X12027458Y-865936D01*
X12027458Y-789482D01*
X12026646Y-781456D01*
X12024461Y-774242D01*
X12020905Y-767537D01*
X12015774Y-761339D01*
X11951512Y-697077D01*
X11949328Y-693775D01*
X11948566Y-689864D01*
X11948566Y-596188D01*
X11947855Y-589889D01*
X11945975Y-584504D01*
X11942927Y-579628D01*
X11938863Y-575614D01*
X11933986Y-572566D01*
X11928602Y-570636D01*
X11922353Y-569925D01*
X11823446Y-569925D01*
X11817197Y-570636D01*
X11811812Y-572566D01*
X11806936Y-575614D01*
X11802872Y-579628D01*
X11799824Y-584504D01*
X11797944Y-589889D01*
X11797233Y-596188D01*
X11797233Y-750011D01*
X11797944Y-756310D01*
X11799824Y-761695D01*
X11802872Y-766572D01*
X11806936Y-770585D01*
X11811812Y-773633D01*
X11817197Y-775563D01*
X11823446Y-776274D01*
X11917172Y-776274D01*
X11921083Y-777036D01*
X11924385Y-779221D01*
X11947194Y-802030D01*
X11949379Y-805332D01*
X11950141Y-809244D01*
X11950141Y-865936D01*
X11949226Y-870203D01*
X11946585Y-873658D01*
X11938863Y-880262D01*
X11933021Y-887120D01*
X11929567Y-889711D01*
X11925300Y-890676D01*
X11921032Y-889711D01*
X11917578Y-887120D01*
X11911736Y-880262D01*
X11903303Y-873048D01*
X11893854Y-867257D01*
X11890654Y-865936D01*
X11890654Y-918870D01*
X11908078Y-918870D01*
X11912142Y-919683D01*
X11915546Y-922121D01*
X11917680Y-925677D01*
X11918137Y-930605D01*
X11918137Y-999794D01*
X11917680Y-1004722D01*
X11915546Y-1008278D01*
X11912142Y-1010716D01*
X11908078Y-1011529D01*
X11890654Y-1011529D01*
X11890654Y-1064463D01*
X11893854Y-1063142D01*
X11903303Y-1057351D01*
X11911736Y-1050137D01*
X11917578Y-1043279D01*
X11921032Y-1040688D01*
X11925300Y-1039723D01*
X11929567Y-1040688D01*
X11933021Y-1043279D01*
X11938863Y-1050137D01*
X11947296Y-1057351D01*
X11956745Y-1063142D01*
X11966956Y-1067358D01*
X11977776Y-1069949D01*
X11988800Y-1070813D01*
X11999823Y-1069949D01*
X12010644Y-1067358D01*
X12020854Y-1063142D01*
X12030303Y-1057351D01*
X12033148Y-1054912D01*
X12036958Y-1052880D01*
X12041276Y-1052626D01*
X12045289Y-1054150D01*
X12048337Y-1057249D01*
X12050776Y-1061161D01*
X12054840Y-1065225D01*
X12059716Y-1068273D01*
X12065101Y-1070152D01*
G37*
G36*
X12121235Y316382D02*
G01*
X12135764Y316382D01*
X12150191Y318211D01*
X12164212Y321818D01*
X12177725Y327152D01*
X12190476Y334162D01*
X12202210Y342696D01*
X12212777Y352653D01*
X12222073Y363829D01*
X12229846Y376072D01*
X12235992Y389229D01*
X12240514Y403047D01*
X12243206Y417322D01*
X12244120Y431800D01*
X12243206Y446278D01*
X12240514Y460552D01*
X12235992Y474370D01*
X12229846Y487527D01*
X12222073Y499770D01*
X12212777Y510946D01*
X12202210Y520903D01*
X12190476Y529437D01*
X12177725Y536448D01*
X12164212Y541782D01*
X12150191Y545388D01*
X12135764Y547217D01*
X12121235Y547217D01*
X12106808Y545388D01*
X12092787Y541782D01*
X12079274Y536448D01*
X12066524Y529437D01*
X12054789Y520903D01*
X12044222Y510946D01*
X12034926Y499770D01*
X12027154Y487527D01*
X12021007Y474370D01*
X12016486Y460552D01*
X12013793Y446278D01*
X12012879Y431800D01*
X12013793Y417322D01*
X12016486Y403047D01*
X12021007Y389229D01*
X12027154Y376072D01*
X12034926Y363829D01*
X12044222Y352653D01*
X12054789Y342696D01*
X12066524Y334162D01*
X12079274Y327152D01*
X12092787Y321818D01*
X12106808Y318211D01*
G37*
G36*
X11832945Y-1064463D02*
G01*
X11832945Y-1011529D01*
X11792102Y-1011529D01*
X11794642Y-1022045D01*
X11798858Y-1032256D01*
X11804650Y-1041704D01*
X11811863Y-1050137D01*
X11820296Y-1057351D01*
X11829745Y-1063142D01*
G37*
G36*
X15677235Y316382D02*
G01*
X15691764Y316382D01*
X15706191Y318211D01*
X15720212Y321818D01*
X15733725Y327152D01*
X15746476Y334162D01*
X15758210Y342696D01*
X15768777Y352653D01*
X15778073Y363829D01*
X15785846Y376072D01*
X15791992Y389229D01*
X15796513Y403047D01*
X15799206Y417322D01*
X15800120Y431800D01*
X15799206Y446278D01*
X15796513Y460552D01*
X15791992Y474370D01*
X15785846Y487527D01*
X15778073Y499770D01*
X15768777Y510946D01*
X15758210Y520903D01*
X15746476Y529437D01*
X15733725Y536448D01*
X15720212Y541782D01*
X15706191Y545388D01*
X15691764Y547217D01*
X15677235Y547217D01*
X15662808Y545388D01*
X15648787Y541782D01*
X15635274Y536448D01*
X15622524Y529437D01*
X15610789Y520903D01*
X15600222Y510946D01*
X15590926Y499770D01*
X15583154Y487527D01*
X15577007Y474370D01*
X15572486Y460552D01*
X15569793Y446278D01*
X15568879Y431800D01*
X15569793Y417322D01*
X15572486Y403047D01*
X15577007Y389229D01*
X15583154Y376072D01*
X15590926Y363829D01*
X15600222Y352653D01*
X15610789Y342696D01*
X15622524Y334162D01*
X15635274Y327152D01*
X15648787Y321818D01*
X15662808Y318211D01*
G37*
G36*
X17915229Y-1057097D02*
G01*
X17921732Y-1053896D01*
X17933212Y-1046226D01*
X17943576Y-1037082D01*
X17952720Y-1026718D01*
X17960390Y-1015237D01*
X17963591Y-1008735D01*
X17915229Y-1008735D01*
G37*
G36*
X17822570Y-1057097D02*
G01*
X17822570Y-1008735D01*
X17774208Y-1008735D01*
X17777409Y-1015237D01*
X17785080Y-1026718D01*
X17794224Y-1037082D01*
X17804587Y-1046226D01*
X17816068Y-1053896D01*
G37*
G36*
X13137235Y316382D02*
G01*
X13151764Y316382D01*
X13166191Y318211D01*
X13180212Y321818D01*
X13193725Y327152D01*
X13206476Y334162D01*
X13218210Y342696D01*
X13228777Y352653D01*
X13238073Y363829D01*
X13245846Y376072D01*
X13251992Y389229D01*
X13256513Y403047D01*
X13259206Y417322D01*
X13260120Y431800D01*
X13259206Y446278D01*
X13256513Y460552D01*
X13251992Y474370D01*
X13245846Y487527D01*
X13238073Y499770D01*
X13228777Y510946D01*
X13218210Y520903D01*
X13206476Y529437D01*
X13193725Y536448D01*
X13180212Y541782D01*
X13166191Y545388D01*
X13151764Y547217D01*
X13137235Y547217D01*
X13122808Y545388D01*
X13108787Y541782D01*
X13095274Y536448D01*
X13082524Y529437D01*
X13070789Y520903D01*
X13060222Y510946D01*
X13050926Y499770D01*
X13043154Y487527D01*
X13037007Y474370D01*
X13032486Y460552D01*
X13029793Y446278D01*
X13028879Y431800D01*
X13029793Y417322D01*
X13032486Y403047D01*
X13037007Y389229D01*
X13043154Y376072D01*
X13050926Y363829D01*
X13060222Y352653D01*
X13070789Y342696D01*
X13082524Y334162D01*
X13095274Y327152D01*
X13108787Y321818D01*
X13122808Y318211D01*
G37*
G36*
X13899235Y316382D02*
G01*
X13913764Y316382D01*
X13928191Y318211D01*
X13942212Y321818D01*
X13955725Y327152D01*
X13968476Y334162D01*
X13980210Y342696D01*
X13990777Y352653D01*
X14000073Y363829D01*
X14007846Y376072D01*
X14013992Y389229D01*
X14018513Y403047D01*
X14021206Y417322D01*
X14022120Y431800D01*
X14021206Y446278D01*
X14018513Y460552D01*
X14013992Y474370D01*
X14007846Y487527D01*
X14000073Y499770D01*
X13990777Y510946D01*
X13980210Y520903D01*
X13968476Y529437D01*
X13955725Y536448D01*
X13942212Y541782D01*
X13928191Y545388D01*
X13913764Y547217D01*
X13899235Y547217D01*
X13884808Y545388D01*
X13870787Y541782D01*
X13857274Y536448D01*
X13844524Y529437D01*
X13832789Y520903D01*
X13822222Y510946D01*
X13812926Y499770D01*
X13805154Y487527D01*
X13799007Y474370D01*
X13794486Y460552D01*
X13791793Y446278D01*
X13790879Y431800D01*
X13791793Y417322D01*
X13794486Y403047D01*
X13799007Y389229D01*
X13805154Y376072D01*
X13812926Y363829D01*
X13822222Y352653D01*
X13832789Y342696D01*
X13844524Y334162D01*
X13857274Y327152D01*
X13870787Y321818D01*
X13884808Y318211D01*
G37*
G36*
X11792102Y-918870D02*
G01*
X11832945Y-918870D01*
X11832945Y-865936D01*
X11829745Y-867257D01*
X11820296Y-873048D01*
X11811863Y-880262D01*
X11804650Y-888695D01*
X11798858Y-898144D01*
X11794642Y-908354D01*
G37*
G36*
X17774208Y-916076D02*
G01*
X17822570Y-916076D01*
X17822570Y-867714D01*
X17816068Y-870915D01*
X17804587Y-878586D01*
X17794224Y-887730D01*
X17785080Y-898093D01*
X17777409Y-909574D01*
G37*
G36*
X17915229Y-916076D02*
G01*
X17963591Y-916076D01*
X17960390Y-909574D01*
X17952720Y-898093D01*
X17943576Y-887730D01*
X17933212Y-878586D01*
X17921732Y-870915D01*
X17915229Y-867714D01*
G37*
G36*
X12629235Y316382D02*
G01*
X12643764Y316382D01*
X12658191Y318211D01*
X12672212Y321818D01*
X12685725Y327152D01*
X12698476Y334162D01*
X12710210Y342696D01*
X12720777Y352653D01*
X12730073Y363829D01*
X12737846Y376072D01*
X12743992Y389229D01*
X12748514Y403047D01*
X12751206Y417322D01*
X12752120Y431800D01*
X12751206Y446278D01*
X12748514Y460552D01*
X12743992Y474370D01*
X12737846Y487527D01*
X12730073Y499770D01*
X12720777Y510946D01*
X12710210Y520903D01*
X12698476Y529437D01*
X12685725Y536448D01*
X12672212Y541782D01*
X12658191Y545388D01*
X12643764Y547217D01*
X12629235Y547217D01*
X12614808Y545388D01*
X12600787Y541782D01*
X12587274Y536448D01*
X12574524Y529437D01*
X12562789Y520903D01*
X12552222Y510946D01*
X12542926Y499770D01*
X12535154Y487527D01*
X12529007Y474370D01*
X12524486Y460552D01*
X12521793Y446278D01*
X12520879Y431800D01*
X12521793Y417322D01*
X12524486Y403047D01*
X12529007Y389229D01*
X12535154Y376072D01*
X12542926Y363829D01*
X12552222Y352653D01*
X12562789Y342696D01*
X12574524Y334162D01*
X12587274Y327152D01*
X12600787Y321818D01*
X12614808Y318211D01*
G37*
G36*
X14915235Y316382D02*
G01*
X14929764Y316382D01*
X14944191Y318211D01*
X14958212Y321818D01*
X14971725Y327152D01*
X14984476Y334162D01*
X14996210Y342696D01*
X15006777Y352653D01*
X15016073Y363829D01*
X15023846Y376072D01*
X15029992Y389229D01*
X15034513Y403047D01*
X15037206Y417322D01*
X15038120Y431800D01*
X15037206Y446278D01*
X15034513Y460552D01*
X15029992Y474370D01*
X15023846Y487527D01*
X15016073Y499770D01*
X15006777Y510946D01*
X14996210Y520903D01*
X14984476Y529437D01*
X14971725Y536448D01*
X14958212Y541782D01*
X14944191Y545388D01*
X14929764Y547217D01*
X14915235Y547217D01*
X14900808Y545388D01*
X14886787Y541782D01*
X14873274Y536448D01*
X14860524Y529437D01*
X14848789Y520903D01*
X14838222Y510946D01*
X14828926Y499770D01*
X14821154Y487527D01*
X14815007Y474370D01*
X14810486Y460552D01*
X14807793Y446278D01*
X14806879Y431800D01*
X14807793Y417322D01*
X14810486Y403047D01*
X14815007Y389229D01*
X14821154Y376072D01*
X14828926Y363829D01*
X14838222Y352653D01*
X14848789Y342696D01*
X14860524Y334162D01*
X14873274Y327152D01*
X14886787Y321818D01*
X14900808Y318211D01*
G37*
G36*
X15423235Y316382D02*
G01*
X15437764Y316382D01*
X15452191Y318211D01*
X15466212Y321818D01*
X15479725Y327152D01*
X15492476Y334162D01*
X15504210Y342696D01*
X15514777Y352653D01*
X15524073Y363829D01*
X15531846Y376072D01*
X15537992Y389229D01*
X15542513Y403047D01*
X15545206Y417322D01*
X15546120Y431800D01*
X15545206Y446278D01*
X15542513Y460552D01*
X15537992Y474370D01*
X15531846Y487527D01*
X15524073Y499770D01*
X15514777Y510946D01*
X15504210Y520903D01*
X15492476Y529437D01*
X15479725Y536448D01*
X15466212Y541782D01*
X15452191Y545388D01*
X15437764Y547217D01*
X15423235Y547217D01*
X15408808Y545388D01*
X15394787Y541782D01*
X15381274Y536448D01*
X15368524Y529437D01*
X15356789Y520903D01*
X15346222Y510946D01*
X15336926Y499770D01*
X15329154Y487527D01*
X15323007Y474370D01*
X15318486Y460552D01*
X15315793Y446278D01*
X15314879Y431800D01*
X15315793Y417322D01*
X15318486Y403047D01*
X15323007Y389229D01*
X15329154Y376072D01*
X15336926Y363829D01*
X15346222Y352653D01*
X15356789Y342696D01*
X15368524Y334162D01*
X15381274Y327152D01*
X15394787Y321818D01*
X15408808Y318211D01*
G37*
G36*
X15169235Y316382D02*
G01*
X15183764Y316382D01*
X15198191Y318211D01*
X15212212Y321818D01*
X15225725Y327152D01*
X15238476Y334162D01*
X15250210Y342696D01*
X15260777Y352653D01*
X15270073Y363829D01*
X15277846Y376072D01*
X15283992Y389229D01*
X15288513Y403047D01*
X15291206Y417322D01*
X15292120Y431800D01*
X15291206Y446278D01*
X15288513Y460552D01*
X15283992Y474370D01*
X15277846Y487527D01*
X15270073Y499770D01*
X15260777Y510946D01*
X15250210Y520903D01*
X15238476Y529437D01*
X15225725Y536448D01*
X15212212Y541782D01*
X15198191Y545388D01*
X15183764Y547217D01*
X15169235Y547217D01*
X15154808Y545388D01*
X15140787Y541782D01*
X15127274Y536448D01*
X15114524Y529437D01*
X15102789Y520903D01*
X15092222Y510946D01*
X15082926Y499770D01*
X15075154Y487527D01*
X15069007Y474370D01*
X15064486Y460552D01*
X15061793Y446278D01*
X15060879Y431800D01*
X15061793Y417322D01*
X15064486Y403047D01*
X15069007Y389229D01*
X15075154Y376072D01*
X15082926Y363829D01*
X15092222Y352653D01*
X15102789Y342696D01*
X15114524Y334162D01*
X15127274Y327152D01*
X15140787Y321818D01*
X15154808Y318211D01*
G37*
G36*
X12375235Y316382D02*
G01*
X12389764Y316382D01*
X12404191Y318211D01*
X12418212Y321818D01*
X12431725Y327152D01*
X12444476Y334162D01*
X12456210Y342696D01*
X12466777Y352653D01*
X12476073Y363829D01*
X12483846Y376072D01*
X12489992Y389229D01*
X12494514Y403047D01*
X12497206Y417322D01*
X12498120Y431800D01*
X12497206Y446278D01*
X12494514Y460552D01*
X12489992Y474370D01*
X12483846Y487527D01*
X12476073Y499770D01*
X12466777Y510946D01*
X12456210Y520903D01*
X12444476Y529437D01*
X12431725Y536448D01*
X12418212Y541782D01*
X12404191Y545388D01*
X12389764Y547217D01*
X12375235Y547217D01*
X12360808Y545388D01*
X12346787Y541782D01*
X12333274Y536448D01*
X12320524Y529437D01*
X12308789Y520903D01*
X12298222Y510946D01*
X12288926Y499770D01*
X12281154Y487527D01*
X12275007Y474370D01*
X12270486Y460552D01*
X12267793Y446278D01*
X12266879Y431800D01*
X12267793Y417322D01*
X12270486Y403047D01*
X12275007Y389229D01*
X12281154Y376072D01*
X12288926Y363829D01*
X12298222Y352653D01*
X12308789Y342696D01*
X12320524Y334162D01*
X12333274Y327152D01*
X12346787Y321818D01*
X12360808Y318211D01*
G37*
G36*
X12883235Y316382D02*
G01*
X12897764Y316382D01*
X12912191Y318211D01*
X12926212Y321818D01*
X12939725Y327152D01*
X12952476Y334162D01*
X12964210Y342696D01*
X12974777Y352653D01*
X12984073Y363829D01*
X12991846Y376072D01*
X12997992Y389229D01*
X13002514Y403047D01*
X13005206Y417322D01*
X13006120Y431800D01*
X13005206Y446278D01*
X13002514Y460552D01*
X12997992Y474370D01*
X12991846Y487527D01*
X12984073Y499770D01*
X12974777Y510946D01*
X12964210Y520903D01*
X12952476Y529437D01*
X12939725Y536448D01*
X12926212Y541782D01*
X12912191Y545388D01*
X12897764Y547217D01*
X12883235Y547217D01*
X12868808Y545388D01*
X12854787Y541782D01*
X12841274Y536448D01*
X12828524Y529437D01*
X12816789Y520903D01*
X12806222Y510946D01*
X12796926Y499770D01*
X12789154Y487527D01*
X12783007Y474370D01*
X12778486Y460552D01*
X12775793Y446278D01*
X12774879Y431800D01*
X12775793Y417322D01*
X12778486Y403047D01*
X12783007Y389229D01*
X12789154Y376072D01*
X12796926Y363829D01*
X12806222Y352653D01*
X12816789Y342696D01*
X12828524Y334162D01*
X12841274Y327152D01*
X12854787Y321818D01*
X12868808Y318211D01*
G37*
G36*
X10769092Y316128D02*
G01*
X10947908Y316128D01*
X10954207Y316839D01*
X10959592Y318719D01*
X10964468Y321818D01*
X10968482Y325831D01*
X10971580Y330708D01*
X10973460Y336092D01*
X10974171Y342392D01*
X10974171Y521208D01*
X10973460Y527507D01*
X10971580Y532892D01*
X10968482Y537768D01*
X10964468Y541782D01*
X10959592Y544830D01*
X10954207Y546760D01*
X10947908Y547471D01*
X10769092Y547471D01*
X10762792Y546760D01*
X10757408Y544830D01*
X10752531Y541782D01*
X10748518Y537768D01*
X10745470Y532892D01*
X10743539Y527507D01*
X10742828Y521208D01*
X10742828Y342392D01*
X10743539Y336092D01*
X10745470Y330708D01*
X10748518Y325831D01*
X10752531Y321818D01*
X10757408Y318719D01*
X10762792Y316839D01*
G37*
G36*
X17868900Y-718007D02*
G01*
X17882666Y-717143D01*
X17896230Y-714451D01*
X17909336Y-709980D01*
X17921732Y-703884D01*
X17933212Y-696214D01*
X17943576Y-687070D01*
X17952720Y-676706D01*
X17960390Y-665226D01*
X17966486Y-652830D01*
X17970957Y-639724D01*
X17973649Y-626160D01*
X17974513Y-612394D01*
X17973649Y-598627D01*
X17970957Y-585063D01*
X17966486Y-571957D01*
X17960390Y-559562D01*
X17952720Y-548081D01*
X17943576Y-537718D01*
X17933212Y-528574D01*
X17921732Y-520903D01*
X17909336Y-514807D01*
X17896230Y-510336D01*
X17882666Y-507644D01*
X17868900Y-506780D01*
X17855133Y-507644D01*
X17841569Y-510336D01*
X17828463Y-514807D01*
X17816068Y-520903D01*
X17804587Y-528574D01*
X17794224Y-537718D01*
X17785080Y-548081D01*
X17777409Y-559562D01*
X17771313Y-571957D01*
X17766842Y-585063D01*
X17764150Y-598627D01*
X17763286Y-612394D01*
X17764150Y-626160D01*
X17766842Y-639724D01*
X17771313Y-652830D01*
X17777409Y-665226D01*
X17785080Y-676706D01*
X17794224Y-687070D01*
X17804587Y-696214D01*
X17816068Y-703884D01*
X17828463Y-709980D01*
X17841569Y-714451D01*
X17855133Y-717143D01*
G37*
G36*
X17915229Y284835D02*
G01*
X17963591Y284835D01*
X17960390Y291338D01*
X17952720Y302818D01*
X17943576Y313182D01*
X17933212Y322326D01*
X17921732Y329996D01*
X17915229Y333197D01*
G37*
G36*
X11731193Y-485851D02*
G01*
X11840006Y-485851D01*
X11846306Y-485140D01*
X11851690Y-483260D01*
X11856567Y-480212D01*
X11860631Y-476148D01*
X11863679Y-471271D01*
X11865508Y-465937D01*
X11866321Y-458012D01*
X11867337Y-454406D01*
X11869572Y-451459D01*
X11872772Y-449529D01*
X11876430Y-448818D01*
X11946432Y-448818D01*
X11954459Y-448056D01*
X11961672Y-445871D01*
X11968378Y-442264D01*
X11972747Y-438658D01*
X11976100Y-436880D01*
X11979859Y-436372D01*
X11998147Y-442214D01*
X12012422Y-444906D01*
X12026900Y-445820D01*
X12041378Y-444906D01*
X12055652Y-442214D01*
X12069470Y-437692D01*
X12082627Y-431546D01*
X12094870Y-423773D01*
X12106046Y-414477D01*
X12116003Y-403910D01*
X12124537Y-392176D01*
X12131548Y-379425D01*
X12136882Y-365912D01*
X12140488Y-351891D01*
X12142317Y-337464D01*
X12142317Y-322935D01*
X12140488Y-308508D01*
X12136882Y-294487D01*
X12131548Y-280974D01*
X12124537Y-268224D01*
X12116003Y-256489D01*
X12106046Y-245922D01*
X12094870Y-236626D01*
X12082627Y-228854D01*
X12069470Y-222707D01*
X12055652Y-218186D01*
X12041378Y-215493D01*
X12026900Y-214579D01*
X12012422Y-215493D01*
X11998147Y-218186D01*
X11984329Y-222707D01*
X11971172Y-228854D01*
X11958929Y-236626D01*
X11947753Y-245922D01*
X11937796Y-256489D01*
X11929262Y-268224D01*
X11922252Y-280974D01*
X11916918Y-294487D01*
X11913311Y-308508D01*
X11911482Y-322935D01*
X11911482Y-337464D01*
X11913311Y-351891D01*
X11915089Y-358851D01*
X11915343Y-362508D01*
X11914276Y-366014D01*
X11912041Y-368960D01*
X11908891Y-370840D01*
X11905284Y-371551D01*
X11876430Y-371551D01*
X11872772Y-370840D01*
X11869572Y-368909D01*
X11867337Y-365912D01*
X11866321Y-362356D01*
X11865508Y-354431D01*
X11863679Y-349097D01*
X11860631Y-344220D01*
X11856567Y-340207D01*
X11854332Y-338785D01*
X11851386Y-335991D01*
X11849811Y-332232D01*
X11849811Y-328168D01*
X11851386Y-324408D01*
X11854332Y-321614D01*
X11856567Y-320192D01*
X11860631Y-316179D01*
X11863679Y-311302D01*
X11865559Y-305917D01*
X11866270Y-299618D01*
X11866270Y-200761D01*
X11865559Y-194513D01*
X11863679Y-189077D01*
X11860631Y-184251D01*
X11856567Y-180187D01*
X11851690Y-177139D01*
X11846306Y-175260D01*
X11840006Y-174548D01*
X11834418Y-174548D01*
X11830507Y-173786D01*
X11827205Y-171551D01*
X11825020Y-168300D01*
X11824258Y-164388D01*
X11824258Y-122834D01*
X11825122Y-118770D01*
X11827510Y-115366D01*
X11831066Y-113233D01*
X11836704Y-111252D01*
X11841530Y-108204D01*
X11845594Y-104139D01*
X11848642Y-99314D01*
X11850573Y-93878D01*
X11851233Y-87630D01*
X11851233Y-8788D01*
X11850573Y-2489D01*
X11848642Y2895D01*
X11845594Y7772D01*
X11841530Y11785D01*
X11836704Y14833D01*
X11831269Y16764D01*
X11825020Y17475D01*
X11746179Y17475D01*
X11739930Y16764D01*
X11734495Y14833D01*
X11729669Y11785D01*
X11725605Y7772D01*
X11722557Y2895D01*
X11720626Y-2489D01*
X11719966Y-8788D01*
X11719966Y-87630D01*
X11720626Y-93878D01*
X11722557Y-99314D01*
X11725605Y-104139D01*
X11729669Y-108204D01*
X11734495Y-111252D01*
X11740134Y-113233D01*
X11743690Y-115366D01*
X11746077Y-118770D01*
X11746941Y-122834D01*
X11746941Y-164388D01*
X11746179Y-168300D01*
X11743994Y-171551D01*
X11740692Y-173786D01*
X11736781Y-174548D01*
X11731193Y-174548D01*
X11724894Y-175260D01*
X11719509Y-177139D01*
X11714632Y-180187D01*
X11710568Y-184251D01*
X11707520Y-189077D01*
X11705640Y-194513D01*
X11704929Y-200761D01*
X11704929Y-299618D01*
X11705640Y-305917D01*
X11707520Y-311302D01*
X11710568Y-316179D01*
X11714632Y-320192D01*
X11716867Y-321614D01*
X11719814Y-324408D01*
X11721388Y-328168D01*
X11721388Y-332232D01*
X11719814Y-335991D01*
X11716867Y-338785D01*
X11714632Y-340207D01*
X11710568Y-344220D01*
X11707520Y-349097D01*
X11705640Y-354482D01*
X11704929Y-360781D01*
X11704929Y-459638D01*
X11705640Y-465886D01*
X11707520Y-471271D01*
X11710568Y-476148D01*
X11714632Y-480212D01*
X11719509Y-483260D01*
X11724894Y-485140D01*
G37*
G36*
X17774208Y284835D02*
G01*
X17822570Y284835D01*
X17822570Y333197D01*
X17816068Y329996D01*
X17804587Y322326D01*
X17794224Y313182D01*
X17785080Y302818D01*
X17777409Y291338D01*
G37*
G36*
X17822570Y143814D02*
G01*
X17822570Y192176D01*
X17774208Y192176D01*
X17777409Y185674D01*
X17785080Y174193D01*
X17794224Y163830D01*
X17804587Y154686D01*
X17816068Y147015D01*
G37*
G36*
X17915229Y143814D02*
G01*
X17921732Y147015D01*
X17933212Y154686D01*
X17943576Y163830D01*
X17952720Y174193D01*
X17960390Y185674D01*
X17963591Y192176D01*
X17915229Y192176D01*
G37*
G36*
X17265650Y30530D02*
G01*
X17342104Y30530D01*
X17342104Y50342D01*
X17341392Y56641D01*
X17339513Y62026D01*
X17336465Y66903D01*
X17332401Y70916D01*
X17327575Y73964D01*
X17322139Y75895D01*
X17315891Y76555D01*
X17265650Y76555D01*
G37*
G36*
X10855096Y-112166D02*
G01*
X10919409Y-112166D01*
X10919409Y-108864D01*
X10918494Y-94030D01*
X10915751Y-79756D01*
X10911281Y-65938D01*
X10905083Y-52832D01*
X10897311Y-40538D01*
X10888065Y-29362D01*
X10877448Y-19456D01*
X10865713Y-10871D01*
X10855096Y-5080D01*
G37*
G36*
X10855096Y-432003D02*
G01*
X10865713Y-426161D01*
X10877448Y-417626D01*
X10888065Y-407670D01*
X10897311Y-396494D01*
X10905083Y-384251D01*
X10911281Y-371094D01*
X10915751Y-357276D01*
X10918494Y-343001D01*
X10919409Y-328218D01*
X10919409Y-324866D01*
X10855096Y-324866D01*
G37*
G36*
X10688116Y-112166D02*
G01*
X10752378Y-112166D01*
X10752378Y-5080D01*
X10741812Y-10871D01*
X10730026Y-19456D01*
X10719460Y-29362D01*
X10710214Y-40538D01*
X10702442Y-52832D01*
X10696244Y-65938D01*
X10691774Y-79756D01*
X10689031Y-94030D01*
X10688116Y-108864D01*
G37*
G36*
X11937492Y-191871D02*
G01*
X12116308Y-191871D01*
X12122607Y-191160D01*
X12127992Y-189280D01*
X12132868Y-186182D01*
X12136882Y-182168D01*
X12139980Y-177292D01*
X12141860Y-171907D01*
X12142571Y-165608D01*
X12142571Y13208D01*
X12141860Y19507D01*
X12139980Y24892D01*
X12136882Y29768D01*
X12132868Y33782D01*
X12127992Y36830D01*
X12122607Y38760D01*
X12116308Y39471D01*
X12071604Y39471D01*
X12068048Y40081D01*
X12064898Y41960D01*
X12062663Y44805D01*
X12059005Y51663D01*
X12053874Y57912D01*
X12041886Y69900D01*
X12035637Y75031D01*
X12028982Y78587D01*
X12021718Y80772D01*
X12013692Y81584D01*
X11953951Y81584D01*
X11950039Y82346D01*
X11946737Y84582D01*
X11882678Y148844D01*
X11876430Y153974D01*
X11869775Y157581D01*
X11862511Y159766D01*
X11859412Y160070D01*
X11855754Y161188D01*
X11852757Y163525D01*
X11850827Y166827D01*
X11848642Y173075D01*
X11845594Y177952D01*
X11841530Y181965D01*
X11836704Y185013D01*
X11831269Y186944D01*
X11825020Y187655D01*
X11746179Y187655D01*
X11739930Y186944D01*
X11734495Y185013D01*
X11729669Y181965D01*
X11725605Y177952D01*
X11722557Y173075D01*
X11720626Y167690D01*
X11719966Y161391D01*
X11719966Y82550D01*
X11720626Y76301D01*
X11722557Y70866D01*
X11725605Y66040D01*
X11729669Y61976D01*
X11734495Y58928D01*
X11739930Y57048D01*
X11746179Y56337D01*
X11825020Y56337D01*
X11831269Y57048D01*
X11836704Y58928D01*
X11841530Y61976D01*
X11843664Y64058D01*
X11846966Y66294D01*
X11850827Y67056D01*
X11854738Y66294D01*
X11858040Y64058D01*
X11905945Y16002D01*
X11907570Y14681D01*
X11910263Y11176D01*
X11911228Y6858D01*
X11911228Y-165608D01*
X11911939Y-171907D01*
X11913870Y-177292D01*
X11916918Y-182168D01*
X11920931Y-186182D01*
X11925808Y-189280D01*
X11931192Y-191160D01*
G37*

%LPD*%
D11*
X11785600Y-410182D02*
G01*
X11946917Y-410182D01*
X12026900Y-330200D01*
X12026900Y-76200D02*
G01*
X12026900Y30223D01*
X12014200Y42923D01*
X11785600Y121920D02*
G01*
X11854941Y121920D01*
X11854941Y121920D02*
G01*
X11933681Y42926D01*
X12014200Y42926D01*
X17130522Y-2539D02*
G01*
X17094454Y-2539D01*
X17130522Y-2539D02*
G01*
X17202150Y-2539D01*
X11785600Y-250189D02*
G01*
X11785600Y-48257D01*
X17274031Y-683260D02*
G01*
X17202150Y-683260D01*
D12*
X10604500Y-1418338D02*
G01*
X10785040Y-1418338D01*
X10803763Y-1399616D01*
D13*
X17868900Y-962405D02*
G01*
X18072100Y-962405D01*
D11*
X17399000Y0D02*
G01*
X17396457Y-2542D01*
X17202150Y-2542D01*
D13*
X17202150Y-172720D02*
G01*
X17025614Y-172720D01*
X17018000Y-165100D01*
X17018000Y50800D01*
X16776700Y292100D01*
X16776700Y863600D01*
X11112500Y863600D01*
X11112500Y685800D01*
X16545407Y-2549601D02*
G01*
X17333595Y-2549601D01*
X17462500Y-2420696D01*
X17868900Y-111505D02*
G01*
X17807686Y-172720D01*
X17343120Y-172720D01*
X17202150Y-172720D01*
X17202150Y-513079D02*
G01*
X17207229Y-508000D01*
X17373600Y-508000D01*
D11*
X17373600Y-342900D02*
G01*
X17202150Y-342900D01*
X11620500Y685800D02*
G01*
X11493500Y558800D01*
X11493500Y50800D01*
X11557000Y-12700D01*
X11557000Y-673100D01*
X11672900Y-673100D01*
D13*
X17410938Y-172720D02*
G01*
X17449800Y-172720D01*
X17449800Y-723900D01*
X16964152Y-1209547D01*
X16525493Y-1209547D01*
D11*
X11872899Y-673100D02*
G01*
X11988800Y-789000D01*
X11988800Y-965200D01*
D13*
X17373600Y-685800D02*
G01*
X17259300Y-685800D01*
D12*
X11925998Y-2044700D02*
G01*
X11758256Y-1876958D01*
X11121542Y-1876958D01*
X12331001Y-2044700D02*
G01*
X12331001Y-1764601D01*
X11262258Y-695858D01*
X11121542Y-695858D01*
X17202150Y-683260D02*
G01*
X17185640Y-683260D01*
X16903700Y-965200D01*
X15989300Y-965200D01*
X15989300Y-3530600D01*
X12331014Y-2552700D02*
G01*
X12331014Y-2044707D01*
X12331006Y-2044700D01*
X15989300Y-3530600D02*
G01*
X15862300Y-3657600D01*
X12738100Y-3657600D01*
X12331014Y-3250514D01*
X12331014Y-2552700D01*
X11925993Y-2552700D02*
G01*
X11917687Y-2561005D01*
X11506200Y-2561005D01*
D15*
G01*
X12331014Y-2044700D03*
G01*
X11926011Y-2044700D03*
G01*
X12331014Y-2552700D03*
G01*
X11926011Y-2552700D03*
D16*
G01*
X16275050Y-342900D03*
D17*
G01*
X17202150Y-2539D03*
G01*
X17202150Y-172720D03*
G01*
X17202150Y-513079D03*
G01*
X17202150Y-342900D03*
G01*
X17202150Y-683260D03*
D18*
G01*
X16545407Y-2549601D03*
G01*
X16525392Y-1209598D03*
G36*
X11745600Y-8199D02*
G01*
X11825599Y-8199D01*
X11825599Y-88198D01*
X11745600Y-88198D01*
G37*
G36*
X11745600Y161980D02*
G01*
X11825599Y161980D01*
X11825599Y81981D01*
X11745600Y81981D01*
G37*
D20*
G01*
X11672900Y-673100D03*
G01*
X11872899Y-673100D03*
D21*
G01*
X11785600Y-250189D03*
G01*
X11785600Y-410184D03*
D22*
G01*
X15684500Y685800D03*
G01*
X15684500Y431800D03*
G01*
X15430500Y685800D03*
G01*
X15430500Y431800D03*
G01*
X15176500Y685800D03*
G01*
X15176500Y431800D03*
G01*
X14922500Y685800D03*
G01*
X14922500Y431800D03*
G01*
X14668500Y685800D03*
G01*
X14668500Y431800D03*
G01*
X14414500Y685800D03*
G01*
X14414500Y431800D03*
G01*
X14160500Y685800D03*
G01*
X14160500Y431800D03*
G01*
X13906500Y685800D03*
G01*
X13906500Y431800D03*
G01*
X13652500Y685800D03*
G01*
X13652500Y431800D03*
G01*
X13398500Y685800D03*
G01*
X13398500Y431800D03*
G01*
X13144500Y685800D03*
G01*
X13144500Y431800D03*
G01*
X12890500Y685800D03*
G01*
X12890500Y431800D03*
G01*
X12636500Y685800D03*
G01*
X12636500Y431800D03*
G01*
X12382500Y685800D03*
G01*
X12382500Y431800D03*
G01*
X12128500Y685800D03*
G01*
X12128500Y431800D03*
G01*
X11874500Y685800D03*
G01*
X11874500Y431800D03*
G01*
X11620500Y685800D03*
G01*
X11620500Y431800D03*
G01*
X11366500Y685800D03*
G01*
X11366500Y431800D03*
G01*
X11112500Y685800D03*
G01*
X11112500Y431800D03*
G01*
X10858500Y685800D03*
G36*
X10778500Y511799D02*
G01*
X10938499Y511799D01*
X10938499Y351800D01*
X10778500Y351800D01*
G37*
D24*
G01*
X12277597Y-4267200D03*
G01*
X12277597Y-4572000D03*
G01*
X12817602Y-4267200D03*
G01*
X12817602Y-4572000D03*
D22*
G01*
X17868900Y-962405D03*
G01*
X17868900Y-612394D03*
G01*
X17868900Y238505D03*
G01*
X17868900Y-111505D03*
D25*
G01*
X17462500Y-1160703D03*
G01*
X17462500Y-2420696D03*
G36*
X11326266Y-3461034D02*
G01*
X11326266Y-3101116D01*
X11686184Y-3101116D01*
X11686184Y-3461034D01*
G37*
D26*
G01*
X11506200Y-2561005D03*
D27*
G01*
X12026900Y-76200D03*
D24*
G01*
X12026900Y-330200D03*
D28*
G01*
X12115800Y-965200D03*
D14*
G01*
X17373600Y-508000D03*
G01*
X17373600Y-685800D03*
D24*
X11421262Y-1509615D02*
G01*
X11421262Y-1289616D01*
X10803763Y-1289616D02*
G01*
X10803763Y-1509615D01*
X11011542Y-1876958D02*
G01*
X11231542Y-1876958D01*
X11421262Y-328515D02*
G01*
X11421262Y-108516D01*
X10803763Y-108516D02*
G01*
X10803763Y-328515D01*
X11011542Y-695858D02*
G01*
X11231542Y-695858D01*
D29*
X10796201Y-3596004D02*
G01*
X11016200Y-3596004D01*
X10796201Y-2245995D02*
G01*
X11016200Y-2245995D01*
D30*
X11861800Y-1000201D02*
G01*
X11861800Y-930201D01*
X11988800Y-1000201D02*
G01*
X11988800Y-930201D01*
M02*
