G04 Layer: TopSilkLayer*
G04 EasyEDA v6.4.19.4, 2021-05-18T12:34:38--6:00*
G04 00e3982b90714801b635961d6bcae6ed,ecfdb7ac97474c2db5e1325c5a2f7ac0,10*
G04 Gerber Generator version 0.2*
G04 Scale: 100 percent, Rotated: No, Reflected: No *
G04 Dimensions in millimeters *
G04 leading zeros omitted , absolute positions ,4 integer and 5 decimal *
%FSLAX45Y45*%
%MOMM*%

%ADD10C,0.2540*%
%ADD11C,0.2600*%
%ADD31C,0.1270*%
%ADD32C,0.2030*%
%ADD33C,0.2500*%
%ADD34C,0.2032*%
%ADD35C,0.1524*%

%LPD*%
D33*
X10105643Y-3793236D02*
G01*
X10105643Y-3784345D01*
X10114788Y-3766057D01*
X10123677Y-3756913D01*
X10141965Y-3747770D01*
X10178288Y-3747770D01*
X10196575Y-3756913D01*
X10205465Y-3766057D01*
X10214609Y-3784345D01*
X10214609Y-3802379D01*
X10205465Y-3820668D01*
X10187431Y-3847845D01*
X10096500Y-3938778D01*
X10223754Y-3938778D01*
X10283697Y-3856989D02*
G01*
X10447527Y-3856989D01*
X10616438Y-3775202D02*
G01*
X10607293Y-3756913D01*
X10580115Y-3747770D01*
X10561827Y-3747770D01*
X10534650Y-3756913D01*
X10516615Y-3784345D01*
X10507472Y-3829812D01*
X10507472Y-3875278D01*
X10516615Y-3911600D01*
X10534650Y-3929634D01*
X10561827Y-3938778D01*
X10570972Y-3938778D01*
X10598404Y-3929634D01*
X10616438Y-3911600D01*
X10625581Y-3884168D01*
X10625581Y-3875278D01*
X10616438Y-3847845D01*
X10598404Y-3829812D01*
X10570972Y-3820668D01*
X10561827Y-3820668D01*
X10534650Y-3829812D01*
X10516615Y-3847845D01*
X10507472Y-3875278D01*
X10785602Y-3838702D02*
G01*
X10776458Y-3820668D01*
X10749279Y-3811523D01*
X10721847Y-3811523D01*
X10694670Y-3820668D01*
X10685525Y-3838702D01*
X10694670Y-3856989D01*
X10712958Y-3866134D01*
X10758424Y-3875278D01*
X10776458Y-3884168D01*
X10785602Y-3902455D01*
X10785602Y-3911600D01*
X10776458Y-3929634D01*
X10749279Y-3938778D01*
X10721847Y-3938778D01*
X10694670Y-3929634D01*
X10685525Y-3911600D01*
X10985500Y-3747770D02*
G01*
X10994643Y-3756913D01*
X11003788Y-3747770D01*
X10994643Y-3738879D01*
X10985500Y-3747770D01*
X10994643Y-3811523D02*
G01*
X10994643Y-3938778D01*
X11063731Y-3811523D02*
G01*
X11063731Y-3938778D01*
X11063731Y-3847845D02*
G01*
X11091163Y-3820668D01*
X11109197Y-3811523D01*
X11136375Y-3811523D01*
X11154663Y-3820668D01*
X11163808Y-3847845D01*
X11163808Y-3938778D01*
X11223752Y-3811523D02*
G01*
X11223752Y-4002531D01*
X11223752Y-3838702D02*
G01*
X11242040Y-3820668D01*
X11260074Y-3811523D01*
X11287506Y-3811523D01*
X11305540Y-3820668D01*
X11323827Y-3838702D01*
X11332972Y-3866134D01*
X11332972Y-3884168D01*
X11323827Y-3911600D01*
X11305540Y-3929634D01*
X11287506Y-3938778D01*
X11260074Y-3938778D01*
X11242040Y-3929634D01*
X11223752Y-3911600D01*
X11392915Y-3811523D02*
G01*
X11392915Y-3902455D01*
X11402059Y-3929634D01*
X11420093Y-3938778D01*
X11447525Y-3938778D01*
X11465559Y-3929634D01*
X11492738Y-3902455D01*
X11492738Y-3811523D02*
G01*
X11492738Y-3938778D01*
X11580113Y-3747770D02*
G01*
X11580113Y-3902455D01*
X11589258Y-3929634D01*
X11607291Y-3938778D01*
X11625579Y-3938778D01*
X11552936Y-3811523D02*
G01*
X11616436Y-3811523D01*
X10845800Y-4047236D02*
G01*
X10845800Y-4171187D01*
X10845800Y-4047236D02*
G01*
X10887202Y-4047236D01*
X10904981Y-4053078D01*
X10916665Y-4064762D01*
X10922508Y-4076700D01*
X10928604Y-4094479D01*
X10928604Y-4123944D01*
X10922508Y-4141723D01*
X10916665Y-4153407D01*
X10904981Y-4165345D01*
X10887202Y-4171187D01*
X10845800Y-4171187D01*
X11056111Y-4076700D02*
G01*
X11050270Y-4064762D01*
X11038331Y-4053078D01*
X11026647Y-4047236D01*
X11003025Y-4047236D01*
X10991088Y-4053078D01*
X10979404Y-4064762D01*
X10973561Y-4076700D01*
X10967465Y-4094479D01*
X10967465Y-4123944D01*
X10973561Y-4141723D01*
X10979404Y-4153407D01*
X10991088Y-4165345D01*
X11003025Y-4171187D01*
X11026647Y-4171187D01*
X11038331Y-4165345D01*
X11050270Y-4153407D01*
X11056111Y-4141723D01*
X11130534Y-4047236D02*
G01*
X11118850Y-4053078D01*
X11106911Y-4064762D01*
X11101070Y-4076700D01*
X11095227Y-4094479D01*
X11095227Y-4123944D01*
X11101070Y-4141723D01*
X11106911Y-4153407D01*
X11118850Y-4165345D01*
X11130534Y-4171187D01*
X11154156Y-4171187D01*
X11166093Y-4165345D01*
X11177777Y-4153407D01*
X11183874Y-4141723D01*
X11189715Y-4123944D01*
X11189715Y-4094479D01*
X11183874Y-4076700D01*
X11177777Y-4064762D01*
X11166093Y-4053078D01*
X11154156Y-4047236D01*
X11130534Y-4047236D01*
X11228831Y-4047236D02*
G01*
X11228831Y-4135628D01*
X11234674Y-4153407D01*
X11246358Y-4165345D01*
X11264138Y-4171187D01*
X11276075Y-4171187D01*
X11293602Y-4165345D01*
X11305540Y-4153407D01*
X11311381Y-4135628D01*
X11311381Y-4047236D01*
X11391900Y-4047236D02*
G01*
X11391900Y-4171187D01*
X11350497Y-4047236D02*
G01*
X11433047Y-4047236D01*
D34*
X10845800Y-4221987D02*
G01*
X11418570Y-4221987D01*
X13970000Y-252221D02*
G01*
X13970000Y-446023D01*
X13970000Y-252221D02*
G01*
X14090141Y-252221D01*
X13970000Y-344423D02*
G01*
X14043913Y-344423D01*
X14225016Y-252221D02*
G01*
X14151102Y-446023D01*
X14225016Y-252221D02*
G01*
X14298929Y-446023D01*
X14178788Y-381507D02*
G01*
X14270990Y-381507D01*
X14359890Y-252221D02*
G01*
X14359890Y-446023D01*
X14359890Y-252221D02*
G01*
X14489175Y-446023D01*
X14489175Y-252221D02*
G01*
X14489175Y-446023D01*
D33*
X12082272Y-3871721D02*
G01*
X12063729Y-3880865D01*
X12045441Y-3899407D01*
X12036043Y-3917950D01*
X12026900Y-3945636D01*
X12026900Y-3991610D01*
X12036043Y-4019550D01*
X12045441Y-4037837D01*
X12063729Y-4056379D01*
X12082272Y-4065523D01*
X12119356Y-4065523D01*
X12137643Y-4056379D01*
X12156186Y-4037837D01*
X12165329Y-4019550D01*
X12174727Y-3991610D01*
X12174727Y-3945636D01*
X12165329Y-3917950D01*
X12156186Y-3899407D01*
X12137643Y-3880865D01*
X12119356Y-3871721D01*
X12082272Y-3871721D01*
X12235688Y-3871721D02*
G01*
X12235688Y-4065523D01*
X12235688Y-3871721D02*
G01*
X12364974Y-4065523D01*
X12364974Y-3871721D02*
G01*
X12364974Y-4065523D01*
X12592050Y-3834637D02*
G01*
X12425934Y-4130294D01*
X12708636Y-3871721D02*
G01*
X12690093Y-3880865D01*
X12671552Y-3899407D01*
X12662408Y-3917950D01*
X12653009Y-3945636D01*
X12653009Y-3991610D01*
X12662408Y-4019550D01*
X12671552Y-4037837D01*
X12690093Y-4056379D01*
X12708636Y-4065523D01*
X12745465Y-4065523D01*
X12764008Y-4056379D01*
X12782550Y-4037837D01*
X12791693Y-4019550D01*
X12800838Y-3991610D01*
X12800838Y-3945636D01*
X12791693Y-3917950D01*
X12782550Y-3899407D01*
X12764008Y-3880865D01*
X12745465Y-3871721D01*
X12708636Y-3871721D01*
X12861797Y-3871721D02*
G01*
X12861797Y-4065523D01*
X12861797Y-3871721D02*
G01*
X12981940Y-3871721D01*
X12861797Y-3963923D02*
G01*
X12935711Y-3963923D01*
X13042900Y-3871721D02*
G01*
X13042900Y-4065523D01*
X13042900Y-3871721D02*
G01*
X13163041Y-3871721D01*
X13042900Y-3963923D02*
G01*
X13116813Y-3963923D01*
D34*
X11925300Y81534D02*
G01*
X12091670Y81534D01*
D33*
X10934700Y-4288536D02*
G01*
X10934700Y-4412487D01*
X10934700Y-4288536D02*
G01*
X10976102Y-4288536D01*
X10993881Y-4294378D01*
X11005565Y-4306062D01*
X11011408Y-4318000D01*
X11017504Y-4335779D01*
X11017504Y-4365244D01*
X11011408Y-4383023D01*
X11005565Y-4394707D01*
X10993881Y-4406645D01*
X10976102Y-4412487D01*
X10934700Y-4412487D01*
X11145011Y-4318000D02*
G01*
X11139170Y-4306062D01*
X11127231Y-4294378D01*
X11115547Y-4288536D01*
X11091925Y-4288536D01*
X11079988Y-4294378D01*
X11068304Y-4306062D01*
X11062461Y-4318000D01*
X11056365Y-4335779D01*
X11056365Y-4365244D01*
X11062461Y-4383023D01*
X11068304Y-4394707D01*
X11079988Y-4406645D01*
X11091925Y-4412487D01*
X11115547Y-4412487D01*
X11127231Y-4406645D01*
X11139170Y-4394707D01*
X11145011Y-4383023D01*
X11184127Y-4288536D02*
G01*
X11184127Y-4412487D01*
X11222990Y-4288536D02*
G01*
X11222990Y-4412487D01*
X11222990Y-4288536D02*
G01*
X11305793Y-4412487D01*
X11305793Y-4288536D02*
G01*
X11305793Y-4412487D01*
D34*
X10845800Y-4463287D02*
G01*
X11418570Y-4463287D01*
D33*
X10896600Y-4529836D02*
G01*
X10979404Y-4653787D01*
X10979404Y-4529836D02*
G01*
X10896600Y-4653787D01*
X11059668Y-4529836D02*
G01*
X11059668Y-4653787D01*
X11018265Y-4529836D02*
G01*
X11101070Y-4529836D01*
X11211052Y-4547362D02*
G01*
X11204956Y-4535678D01*
X11187429Y-4529836D01*
X11175491Y-4529836D01*
X11157711Y-4535678D01*
X11146027Y-4553457D01*
X11139931Y-4582921D01*
X11139931Y-4612386D01*
X11146027Y-4636007D01*
X11157711Y-4647945D01*
X11175491Y-4653787D01*
X11181334Y-4653787D01*
X11199113Y-4647945D01*
X11211052Y-4636007D01*
X11216893Y-4618228D01*
X11216893Y-4612386D01*
X11211052Y-4594605D01*
X11199113Y-4582921D01*
X11181334Y-4577079D01*
X11175491Y-4577079D01*
X11157711Y-4582921D01*
X11146027Y-4594605D01*
X11139931Y-4612386D01*
X11291315Y-4529836D02*
G01*
X11273536Y-4535678D01*
X11261852Y-4553457D01*
X11255756Y-4582921D01*
X11255756Y-4600702D01*
X11261852Y-4630165D01*
X11273536Y-4647945D01*
X11291315Y-4653787D01*
X11303254Y-4653787D01*
X11320779Y-4647945D01*
X11332718Y-4630165D01*
X11338559Y-4600702D01*
X11338559Y-4582921D01*
X11332718Y-4553457D01*
X11320779Y-4535678D01*
X11303254Y-4529836D01*
X11291315Y-4529836D01*
D35*
X13271500Y953515D02*
G01*
X13271500Y844550D01*
X13344143Y953515D02*
G01*
X13344143Y844550D01*
X13271500Y901700D02*
G01*
X13344143Y901700D01*
X13383768Y927607D02*
G01*
X13383768Y932687D01*
X13388847Y943102D01*
X13394181Y948436D01*
X13404595Y953515D01*
X13425170Y953515D01*
X13435584Y948436D01*
X13440918Y943102D01*
X13445997Y932687D01*
X13445997Y922273D01*
X13440918Y911860D01*
X13430504Y896365D01*
X13378434Y844550D01*
X13451331Y844550D01*
X12052300Y-1700784D02*
G01*
X12052300Y-1809750D01*
X12052300Y-1700784D02*
G01*
X12088622Y-1700784D01*
X12104370Y-1705863D01*
X12114529Y-1716278D01*
X12119863Y-1726692D01*
X12124943Y-1742439D01*
X12124943Y-1768347D01*
X12119863Y-1783842D01*
X12114529Y-1794255D01*
X12104370Y-1804670D01*
X12088622Y-1809750D01*
X12052300Y-1809750D01*
X12164568Y-1726692D02*
G01*
X12164568Y-1721612D01*
X12169647Y-1711197D01*
X12174981Y-1705863D01*
X12185395Y-1700784D01*
X12205970Y-1700784D01*
X12216384Y-1705863D01*
X12221718Y-1711197D01*
X12226797Y-1721612D01*
X12226797Y-1732026D01*
X12221718Y-1742439D01*
X12211304Y-1757934D01*
X12159234Y-1809750D01*
X12232131Y-1809750D01*
X12039600Y-2780284D02*
G01*
X12039600Y-2889250D01*
X12039600Y-2780284D02*
G01*
X12075922Y-2780284D01*
X12091670Y-2785363D01*
X12101829Y-2795778D01*
X12107163Y-2806192D01*
X12112243Y-2821939D01*
X12112243Y-2847847D01*
X12107163Y-2863342D01*
X12101829Y-2873755D01*
X12091670Y-2884170D01*
X12075922Y-2889250D01*
X12039600Y-2889250D01*
X12198604Y-2780284D02*
G01*
X12146534Y-2852928D01*
X12224511Y-2852928D01*
X12198604Y-2780284D02*
G01*
X12198604Y-2889250D01*
X11959843Y-4370578D02*
G01*
X11949429Y-4360163D01*
X11933936Y-4355084D01*
X11913108Y-4355084D01*
X11897613Y-4360163D01*
X11887200Y-4370578D01*
X11887200Y-4380992D01*
X11892279Y-4391405D01*
X11897613Y-4396739D01*
X11908027Y-4401820D01*
X11939270Y-4412234D01*
X11949429Y-4417313D01*
X11954763Y-4422647D01*
X11959843Y-4433062D01*
X11959843Y-4448555D01*
X11949429Y-4458970D01*
X11933936Y-4464050D01*
X11913108Y-4464050D01*
X11897613Y-4458970D01*
X11887200Y-4448555D01*
X11994134Y-4355084D02*
G01*
X12020295Y-4464050D01*
X12046204Y-4355084D02*
G01*
X12020295Y-4464050D01*
X12046204Y-4355084D02*
G01*
X12072111Y-4464050D01*
X12098020Y-4355084D02*
G01*
X12072111Y-4464050D01*
X12132309Y-4375912D02*
G01*
X12142724Y-4370578D01*
X12158472Y-4355084D01*
X12158472Y-4464050D01*
X16567150Y343915D02*
G01*
X16567150Y265937D01*
X16572229Y250444D01*
X16582643Y240029D01*
X16598391Y234950D01*
X16608806Y234950D01*
X16624300Y240029D01*
X16634713Y250444D01*
X16639793Y265937D01*
X16639793Y343915D01*
X16679418Y318007D02*
G01*
X16679418Y323087D01*
X16684497Y333502D01*
X16689831Y338836D01*
X16700245Y343915D01*
X16720820Y343915D01*
X16731234Y338836D01*
X16736568Y333502D01*
X16741647Y323087D01*
X16741647Y312673D01*
X16736568Y302260D01*
X16726154Y286765D01*
X16674084Y234950D01*
X16746981Y234950D01*
X18320258Y-771397D02*
G01*
X18309843Y-776731D01*
X18299429Y-787145D01*
X18294350Y-797305D01*
X18294350Y-818134D01*
X18299429Y-828547D01*
X18309843Y-838962D01*
X18320258Y-844295D01*
X18336006Y-849376D01*
X18361913Y-849376D01*
X18377408Y-844295D01*
X18387822Y-838962D01*
X18398236Y-828547D01*
X18403316Y-818134D01*
X18403316Y-797305D01*
X18398236Y-787145D01*
X18387822Y-776731D01*
X18377408Y-771397D01*
X18315177Y-737107D02*
G01*
X18309843Y-726694D01*
X18294350Y-711200D01*
X18403316Y-711200D01*
X18325591Y14478D02*
G01*
X18315177Y9144D01*
X18304763Y-1270D01*
X18299684Y-11429D01*
X18299684Y-32257D01*
X18304763Y-42671D01*
X18315177Y-53086D01*
X18325591Y-58420D01*
X18341340Y-63500D01*
X18367248Y-63500D01*
X18382741Y-58420D01*
X18393156Y-53086D01*
X18403570Y-42671D01*
X18408650Y-32257D01*
X18408650Y-11429D01*
X18403570Y-1270D01*
X18393156Y9144D01*
X18382741Y14478D01*
X18325591Y53847D02*
G01*
X18320511Y53847D01*
X18310098Y59181D01*
X18304763Y64262D01*
X18299684Y74676D01*
X18299684Y95504D01*
X18304763Y105918D01*
X18310098Y110997D01*
X18320511Y116331D01*
X18330925Y116331D01*
X18341340Y110997D01*
X18356834Y100584D01*
X18408650Y48768D01*
X18408650Y121412D01*
X17702784Y-1866900D02*
G01*
X17811750Y-1866900D01*
X17702784Y-1866900D02*
G01*
X17702784Y-1830578D01*
X17707863Y-1814829D01*
X17718277Y-1804670D01*
X17728691Y-1799336D01*
X17744440Y-1794255D01*
X17770348Y-1794255D01*
X17785841Y-1799336D01*
X17796256Y-1804670D01*
X17806670Y-1814829D01*
X17811750Y-1830578D01*
X17811750Y-1866900D01*
X17723611Y-1759965D02*
G01*
X17718277Y-1749552D01*
X17702784Y-1733804D01*
X17811750Y-1733804D01*
X16470884Y-2908300D02*
G01*
X16579850Y-2908300D01*
X16579850Y-2908300D02*
G01*
X16579850Y-2846070D01*
X16491711Y-2811779D02*
G01*
X16486377Y-2801365D01*
X16470884Y-2785618D01*
X16579850Y-2785618D01*
X12446000Y-164084D02*
G01*
X12446000Y-273050D01*
X12518643Y-164084D02*
G01*
X12518643Y-273050D01*
X12446000Y-215900D02*
G01*
X12518643Y-215900D01*
X12552934Y-184912D02*
G01*
X12563347Y-179578D01*
X12579095Y-164084D01*
X12579095Y-273050D01*
X11555984Y-127000D02*
G01*
X11664950Y-127000D01*
X11664950Y-127000D02*
G01*
X11664950Y-64770D01*
X11555984Y-30479D02*
G01*
X11664950Y-30479D01*
X11555984Y-30479D02*
G01*
X11555984Y37084D01*
X11607800Y-30479D02*
G01*
X11607800Y11176D01*
X11664950Y-30479D02*
G01*
X11664950Y37084D01*
X11555984Y71373D02*
G01*
X11664950Y71373D01*
X11555984Y71373D02*
G01*
X11555984Y107950D01*
X11561063Y123444D01*
X11571477Y133857D01*
X11581891Y138937D01*
X11597640Y144271D01*
X11623547Y144271D01*
X11639041Y138937D01*
X11649456Y133857D01*
X11659870Y123444D01*
X11664950Y107950D01*
X11664950Y71373D01*
X11576811Y178562D02*
G01*
X11571477Y188976D01*
X11555984Y204470D01*
X11664950Y204470D01*
X11931141Y-1243584D02*
G01*
X11920727Y-1248663D01*
X11910313Y-1259078D01*
X11904979Y-1269492D01*
X11899900Y-1285239D01*
X11899900Y-1311147D01*
X11904979Y-1326642D01*
X11910313Y-1337055D01*
X11920727Y-1347470D01*
X11931141Y-1352550D01*
X11951970Y-1352550D01*
X11962129Y-1347470D01*
X11972543Y-1337055D01*
X11977877Y-1326642D01*
X11982958Y-1311147D01*
X11982958Y-1285239D01*
X11977877Y-1269492D01*
X11972543Y-1259078D01*
X11962129Y-1248663D01*
X11951970Y-1243584D01*
X11931141Y-1243584D01*
X11946636Y-1331976D02*
G01*
X11977877Y-1362963D01*
X12017247Y-1264412D02*
G01*
X12027661Y-1259078D01*
X12043409Y-1243584D01*
X12043409Y-1352550D01*
X12039600Y-633984D02*
G01*
X12039600Y-742950D01*
X12039600Y-633984D02*
G01*
X12086336Y-633984D01*
X12101829Y-639063D01*
X12107163Y-644397D01*
X12112243Y-654812D01*
X12112243Y-665226D01*
X12107163Y-675639D01*
X12101829Y-680720D01*
X12086336Y-685800D01*
X12039600Y-685800D01*
X12075922Y-685800D02*
G01*
X12112243Y-742950D01*
X12146534Y-654812D02*
G01*
X12156947Y-649478D01*
X12172695Y-633984D01*
X12172695Y-742950D01*
X11555984Y-392490D02*
G01*
X11664950Y-392490D01*
X11555984Y-392490D02*
G01*
X11555984Y-345754D01*
X11561063Y-330260D01*
X11566397Y-324926D01*
X11576811Y-319846D01*
X11587225Y-319846D01*
X11597640Y-324926D01*
X11602720Y-330260D01*
X11607800Y-345754D01*
X11607800Y-392490D01*
X11607800Y-356168D02*
G01*
X11664950Y-319846D01*
X11581891Y-280222D02*
G01*
X11576811Y-280222D01*
X11566397Y-275142D01*
X11561063Y-269808D01*
X11555984Y-259394D01*
X11555984Y-238820D01*
X11561063Y-228406D01*
X11566397Y-223072D01*
X11576811Y-217992D01*
X11587225Y-217992D01*
X11597640Y-223072D01*
X11613134Y-233486D01*
X11664950Y-285556D01*
X11664950Y-212658D01*
G36*
X17568926Y-1062380D02*
G01*
X17582896Y-1075131D01*
X17597374Y-1087272D01*
X17612410Y-1098753D01*
X17627955Y-1109573D01*
X17643906Y-1119682D01*
X17660315Y-1129131D01*
X17677130Y-1137818D01*
X17694249Y-1145794D01*
X17711724Y-1153007D01*
X17729504Y-1159459D01*
X17747589Y-1165148D01*
X17765826Y-1170025D01*
X17784318Y-1174089D01*
X17802961Y-1177391D01*
X17821706Y-1179830D01*
X17840553Y-1181455D01*
X17859451Y-1182319D01*
X17878348Y-1182319D01*
X17897246Y-1181455D01*
X17916093Y-1179830D01*
X17934838Y-1177391D01*
X17953482Y-1174089D01*
X17971973Y-1170025D01*
X17990210Y-1165148D01*
X18008295Y-1159459D01*
X18026075Y-1153007D01*
X18043550Y-1145794D01*
X18060670Y-1137818D01*
X18077484Y-1129131D01*
X18093893Y-1119682D01*
X18109844Y-1109573D01*
X18125389Y-1098753D01*
X18140426Y-1087272D01*
X18154904Y-1075131D01*
X18168874Y-1062380D01*
G37*
G36*
X17868900Y458520D02*
G01*
X17850002Y458114D01*
X17831104Y456844D01*
X17812308Y454812D01*
X17793614Y451916D01*
X17775072Y448259D01*
X17756682Y443788D01*
X17738496Y438505D01*
X17720614Y432460D01*
X17702987Y425602D01*
X17685664Y418033D01*
X17668646Y409651D01*
X17652085Y400608D01*
X17635880Y390804D01*
X17620132Y380339D01*
X17604841Y369214D01*
X17590058Y357378D01*
X17575834Y344932D01*
X17568926Y338480D01*
X18168874Y338480D01*
X18154904Y351231D01*
X18140426Y363372D01*
X18125389Y374853D01*
X18109844Y385673D01*
X18093893Y395782D01*
X18077484Y405231D01*
X18060670Y413918D01*
X18043550Y421893D01*
X18026075Y429107D01*
X18008295Y435559D01*
X17990210Y441248D01*
X17971973Y446125D01*
X17953482Y450189D01*
X17934838Y453491D01*
X17916093Y455930D01*
X17897246Y457555D01*
X17878348Y458419D01*
G37*
D11*
X12725400Y-533400D02*
G01*
X12725400Y-3530600D01*
X15722600Y-3530600D01*
X15722600Y-533400D01*
X12725400Y-533400D01*
D10*
X15811500Y812800D02*
G01*
X15811500Y304800D01*
X10731500Y812800D02*
G01*
X15811500Y812800D01*
X10731500Y812800D02*
G01*
X10731500Y304800D01*
X10731500Y304800D02*
G01*
X15811500Y304800D01*
X12363503Y-2244699D02*
G01*
X11893501Y-2244699D01*
D31*
X12085223Y-2094699D02*
G01*
X12163501Y-2040699D01*
X12085223Y-1991700D02*
G01*
X12085223Y-2093300D01*
X12167420Y-2091700D02*
G01*
X12167420Y-1990100D01*
X12183308Y-2043699D02*
G01*
X12061421Y-2043699D01*
X12163501Y-2040699D02*
G01*
X12085223Y-1992698D01*
D10*
X12363503Y-1844700D02*
G01*
X11893501Y-1844700D01*
X12363503Y-2244699D02*
G01*
X12363503Y-2203813D01*
X12363503Y-1885586D02*
G01*
X12363503Y-1844700D01*
X11893501Y-2244699D02*
G01*
X11893501Y-2203813D01*
X11893501Y-1885586D02*
G01*
X11893501Y-1844700D01*
X12363503Y-2752699D02*
G01*
X11893501Y-2752699D01*
D31*
X12085223Y-2602699D02*
G01*
X12163501Y-2548699D01*
X12085223Y-2499700D02*
G01*
X12085223Y-2601300D01*
X12167420Y-2599700D02*
G01*
X12167420Y-2498100D01*
X12183308Y-2551699D02*
G01*
X12061421Y-2551699D01*
X12163501Y-2548699D02*
G01*
X12085223Y-2500698D01*
D10*
X12363503Y-2352700D02*
G01*
X11893501Y-2352700D01*
X12363503Y-2752699D02*
G01*
X12363503Y-2711813D01*
X12363503Y-2393586D02*
G01*
X12363503Y-2352700D01*
X11893501Y-2752699D02*
G01*
X11893501Y-2711813D01*
X11893501Y-2393586D02*
G01*
X11893501Y-2352700D01*
X12319000Y-4216400D02*
G01*
X12776200Y-4216400D01*
X12776200Y-4622800D02*
G01*
X12319000Y-4622800D01*
X12547600Y-4622800D02*
G01*
X12547600Y-4495800D01*
X12649200Y-4394200D01*
X12547600Y-4216400D02*
G01*
X12547600Y-4318000D01*
X12319000Y-4216400D02*
G01*
X12319000Y-4622800D01*
X12776200Y-4622800D01*
X12776200Y-4216400D01*
X12319000Y-4216400D01*
X16764000Y165100D02*
G01*
X16917670Y165100D01*
X16917670Y-850900D01*
X16764000Y-850900D01*
X10044569Y-955128D02*
G01*
X11459578Y-955128D01*
X10044569Y-954290D02*
G01*
X10044569Y-1854288D01*
X10346829Y-955128D02*
G01*
X10346829Y-1855127D01*
X11461889Y-1169167D02*
G01*
X11461889Y-955128D01*
X11461889Y-955128D02*
G01*
X10044569Y-955128D01*
X10044569Y-955128D02*
G01*
X10044569Y-1854288D01*
X10044569Y-1854288D02*
G01*
X10887715Y-1854288D01*
X11461889Y-1628211D02*
G01*
X11461889Y-1854288D01*
X11461889Y-1854288D02*
G01*
X11345311Y-1854288D01*
X10044569Y225971D02*
G01*
X11459578Y225971D01*
X10044569Y226809D02*
G01*
X10044569Y-673188D01*
X10346829Y225971D02*
G01*
X10346829Y-674027D01*
X11461889Y11932D02*
G01*
X11461889Y225971D01*
X11461889Y225971D02*
G01*
X10044569Y225971D01*
X10044569Y225971D02*
G01*
X10044569Y-673188D01*
X10044569Y-673188D02*
G01*
X10887715Y-673188D01*
X11461889Y-447111D02*
G01*
X11461889Y-673188D01*
X11461889Y-673188D02*
G01*
X11345311Y-673188D01*
X17961589Y-505170D02*
G01*
X18096209Y-505170D01*
X18028899Y-567400D02*
G01*
X18028899Y-442940D01*
X17776210Y-218729D02*
G01*
X17641590Y-218729D01*
X17708900Y-156499D02*
G01*
X17708900Y-280959D01*
X17652497Y-2133600D02*
G01*
X17272502Y-2133600D01*
X17652497Y-2108200D02*
G01*
X17272502Y-2108200D01*
X17272502Y-1360698D02*
G01*
X17652497Y-1360698D01*
X17652497Y-2220701D02*
G01*
X17272502Y-2220701D01*
X17652497Y-1360698D02*
G01*
X17652497Y-2220701D01*
X17652497Y-2082800D02*
G01*
X17272502Y-2082800D01*
X17272502Y-2220701D02*
G01*
X17272502Y-1360698D01*
X15915398Y-2549598D02*
G01*
X15915396Y-1209601D01*
X17175391Y-2549598D02*
G01*
X17175393Y-1209601D01*
X15915398Y-2549598D02*
G01*
X16272281Y-2549598D01*
X16818508Y-2549598D02*
G01*
X17175391Y-2549598D01*
X17175393Y-1209601D02*
G01*
X16818508Y-1209601D01*
X16272281Y-1209601D02*
G01*
X15915396Y-1209601D01*
X10046154Y-3705697D02*
G01*
X10046154Y-2155789D01*
X11366192Y-2155789D02*
G01*
X10046154Y-2155789D01*
X11766242Y-3505799D02*
G01*
X11766242Y-2355687D01*
X11366192Y-3705697D02*
G01*
X10046154Y-3705697D01*
X12407900Y-76200D02*
G01*
X13042900Y-76200D01*
X12407900Y-330200D02*
G01*
X13042900Y-330200D01*
X12407900Y50800D02*
G01*
X12407900Y-457200D01*
X12153900Y-457200D01*
X12153900Y50800D01*
X12407900Y50800D01*
X11699240Y-139639D02*
G01*
X11871959Y-139639D01*
X11871959Y-139639D02*
G01*
X11871959Y7680D01*
X11699240Y-139639D02*
G01*
X11699240Y7680D01*
X11871959Y66100D02*
G01*
X11871959Y182940D01*
X11699240Y68640D02*
G01*
X11699240Y182940D01*
X11699240Y182940D02*
G01*
X11734800Y218500D01*
X11836400Y218500D01*
X11871959Y182940D01*
D32*
X11744959Y29270D02*
G01*
X11823700Y29270D01*
X11784804Y29270D02*
G01*
X11784804Y46807D01*
D10*
X11790809Y-815212D02*
G01*
X12186790Y-815212D01*
X11822899Y-775096D02*
G01*
X11947900Y-775096D01*
X11822899Y-571103D02*
G01*
X11947900Y-571103D01*
X11722900Y-775096D02*
G01*
X11597899Y-775096D01*
X11722900Y-571103D02*
G01*
X11597899Y-571103D01*
X11947903Y-775096D02*
G01*
X11947900Y-571103D01*
X11597899Y-775096D02*
G01*
X11597899Y-571103D01*
X11705597Y-485195D02*
G01*
X11865602Y-485195D01*
X11865091Y-300134D02*
G01*
X11865091Y-175138D01*
X11705087Y-300134D02*
G01*
X11705087Y-175138D01*
X11865602Y-360192D02*
G01*
X11865602Y-485195D01*
X11705597Y-360192D02*
G01*
X11705597Y-485195D01*
X11705087Y-175138D02*
G01*
X11865091Y-175138D01*
G75*
G01*
X18268950Y-787654D02*
G03*
X18268950Y-794766I-399984J-3556D01*
G75*
G01*
X17468850Y63754D02*
G03*
X17468850Y70866I399984J3556D01*
G75*
G01*
X11359749Y-2156297D02*
G02*
X11766149Y-2359497I28768J-450464D01*
G75*
G01*
X11359749Y-3705697D02*
G03*
X11766149Y-3502497I28768J450463D01*
G75*
G01*
X11790680Y-815086D02*
G03*
X12186920Y-815086I198120J-149840D01*
G75*
G01
X12712700Y-4419600D02*
G03X12712700Y-4419600I-165100J0D01*
G75*
G01
X17212310Y-812800D02*
G03X17212310Y-812800I-16510J0D01*
M02*
